<svg width="98" height="98" viewBox="0 0 98 98" fill="none" xmlns="http://www.w3.org/2000/svg">
<path d="M1.00195 0.880859L30.9467 0.880859C40.9184 0.880859 49.002 8.96445 49.002 18.9361L49.002 48.8809" stroke="#111111" stroke-width="1.20368" stroke-linecap="round"/>
<path d="M49 32.8789L49 18.9341C49 8.9625 40.9164 0.878906 30.9448 0.878906L17 0.878906C34.6078 1.02804 48.8613 15.271 49 32.8789Z" fill="#111111" stroke="#111111" stroke-width="1.20368" stroke-linecap="round"/>
<path d="M49.002 0.880859L78.9467 0.880859C88.9184 0.880859 97.002 8.96445 97.002 18.9361V48.8809" stroke="#111111" stroke-width="1.20368" stroke-linecap="round"/>
<path d="M97 32.8789V18.9341C97 8.9625 88.9164 0.878906 78.9448 0.878906L65 0.878906C82.6078 1.02804 96.8613 15.271 97 32.8789Z" fill="#111111" stroke="#111111" stroke-width="1.20368" stroke-linecap="round"/>
<path d="M49.002 48.8809L78.9467 48.8809C88.9184 48.8809 97.002 56.9645 97.002 66.9361V96.8809" stroke="#111111" stroke-width="1.20368" stroke-linecap="round"/>
<path d="M97 80.8789V66.9341C97 56.9625 88.9164 48.8789 78.9448 48.8789L65 48.8789C82.6078 49.028 96.8613 63.271 97 80.8789Z" fill="#111111" stroke="#111111" stroke-width="1.20368" stroke-linecap="round"/>
<path d="M49.002 96.8809H19.0572C9.08555 96.8809 1.00195 88.7973 1.00195 78.8256V48.8809" stroke="#111111" stroke-width="1.20368" stroke-linecap="round"/>
<path d="M1 64.8789V78.8237C1 88.7953 9.08359 96.8789 19.0552 96.8789H33C15.3922 96.7298 1.13873 82.4868 1 64.8789Z" fill="#111111" stroke="#111111" stroke-width="1.20368" stroke-linecap="round"/>
<g clip-path="url(#clip0_1848_23861)">
<path d="M57.3078 48.2395C53.0702 48.2389 49.6367 44.8054 49.6361 40.5677L49.6337 21.7768C49.6336 21.4044 49.3154 21.1079 48.9358 21.1404C48.5977 21.1711 48.3537 21.4838 48.3537 21.8237L48.3561 40.5676C48.3567 44.8052 44.924 48.2379 40.6864 48.2373L21.9425 48.2349C21.6026 48.2349 21.2899 48.4789 21.2628 48.8169C21.2285 49.1948 21.525 49.513 21.8975 49.5131L40.6884 49.5155C44.926 49.516 48.3595 52.9496 48.3601 57.1872L48.3625 75.9311C48.3626 76.2746 48.6157 76.5928 48.9592 76.6146C49.1526 76.6272 49.3298 76.5549 49.4545 76.4302C49.5702 76.3145 49.6425 76.1555 49.6425 75.9783L49.6401 57.1874C49.6395 52.9498 53.0722 49.5171 57.3098 49.5176L76.1007 49.5201C76.2779 49.5201 76.437 49.4478 76.5527 49.3321C76.6774 49.2074 76.7497 49.0302 76.737 48.8368C76.7152 48.4933 76.397 48.2401 76.0535 48.2401L57.3097 48.2377L57.3078 48.2395Z" fill="#562AE5"/>
</g>
<defs>
<clipPath id="clip0_1848_23861">
<rect width="56.0029" height="56.0033" fill="white" transform="translate(21 20.8789)"/>
</clipPath>
</defs>
</svg>
