<svg width="98" height="98" viewBox="0 0 98 98" fill="none" xmlns="http://www.w3.org/2000/svg">
<path d="M49.002 1.00195V30.9467C49.002 40.9184 40.9184 49.002 30.9467 49.002H1.00195" stroke="#111111" stroke-width="1.20368" stroke-linecap="round"/>
<path d="M17 49H30.9448C40.9164 49 49 40.9164 49 30.9448V17C48.8509 34.6078 34.6079 48.8613 17 49Z" fill="#111111" stroke="#111111" stroke-width="1.20368" stroke-linecap="round"/>
<path d="M97.002 49.002H67.0572C57.0855 49.002 49.002 40.9184 49.002 30.9467V1.00195" stroke="#111111" stroke-width="1.20368" stroke-linecap="round"/>
<path d="M49 17V30.9448C49 40.9164 57.0836 49 67.0552 49H81C63.3922 48.8509 49.1387 34.6079 49 17Z" fill="#111111" stroke="#111111" stroke-width="1.20368" stroke-linecap="round"/>
<path d="M49.0022 97.0024V67.0577C49.0022 57.086 57.0858 49.0024 67.0574 49.0024H97.0022" stroke="#111111" stroke-width="1.20368" stroke-linecap="round"/>
<path d="M81 49H67.0552C57.0836 49 49 57.0836 49 67.0552V81C49.1491 63.3922 63.3921 49.1387 81 49Z" fill="#111111" stroke="#111111" stroke-width="1.20368" stroke-linecap="round"/>
<path d="M1.00195 49.002L30.9467 49.002C40.9184 49.002 49.002 57.0855 49.002 67.0572L49.002 97.002" stroke="#111111" stroke-width="1.20368" stroke-linecap="round"/>
<path d="M49 81L49 67.0552C49 57.0836 40.9164 49 30.9448 49L17 49C34.6078 49.1491 48.8613 63.3921 49 81Z" fill="#111111" stroke="#111111" stroke-width="1.20368" stroke-linecap="round"/>
<path d="M54.9252 54.0195C51.9291 51.0227 51.9291 46.1669 54.9252 43.17L68.2106 29.8812C68.4739 29.6178 68.4586 29.1831 68.1672 28.9376C67.9064 28.7203 67.5128 28.7688 67.2725 29.0092L54.0202 42.2648C51.0242 45.2617 46.1696 45.2617 43.1736 42.2648L29.9213 29.0092C29.681 28.7688 29.2874 28.7203 29.0292 28.9402C28.7377 29.1831 28.7224 29.6178 28.9857 29.8812L42.2712 43.17C45.2672 46.1669 45.2672 51.0227 42.2712 54.0195L29.0189 67.2752C28.7761 67.5181 28.7301 67.9221 28.9576 68.1803C29.0854 68.3261 29.2618 68.4002 29.4382 68.4002C29.6018 68.4002 29.7654 68.3389 29.8907 68.2136L43.1761 54.9247C46.1722 51.9279 51.0267 51.9279 54.0228 54.9247L67.3082 68.2136C67.4335 68.3389 67.5971 68.4002 67.7607 68.4002C67.9371 68.4002 68.1135 68.3261 68.2413 68.1803C68.4688 67.9221 68.4228 67.5181 68.18 67.2752L54.9277 54.0195H54.9252Z" fill="#562AE5"/>
</svg>
