<svg width="98" height="98" viewBox="0 0 98 98" fill="none" xmlns="http://www.w3.org/2000/svg">
<path d="M49.002 1.00195V30.9467C49.002 40.9184 40.9184 49.002 30.9467 49.002H1.00195" stroke="#111111" stroke-width="1.20368" stroke-linecap="round"/>
<path d="M17 49H30.9448C40.9164 49 49 40.9164 49 30.9448V17C48.8509 34.6078 34.6079 48.8613 17 49Z" fill="#111111" stroke="#111111" stroke-width="1.20368" stroke-linecap="round"/>
<path d="M97.002 1.00195V30.9467C97.002 40.9184 88.9184 49.002 78.9467 49.002H49.002" stroke="#111111" stroke-width="1.20368" stroke-linecap="round"/>
<path d="M65 49H78.9448C88.9164 49 97 40.9164 97 30.9448V17C96.8509 34.6078 82.6079 48.8613 65 49Z" fill="#111111" stroke="#111111" stroke-width="1.20368" stroke-linecap="round"/>
<path d="M49.0022 97.0024V67.0577C49.0022 57.086 57.0858 49.0024 67.0574 49.0024H97.0022" stroke="#111111" stroke-width="1.20368" stroke-linecap="round"/>
<path d="M81 49H67.0552C57.0836 49 49 57.0836 49 67.0552V81C49.1491 63.3922 63.3921 49.1387 81 49Z" fill="#111111" stroke="#111111" stroke-width="1.20368" stroke-linecap="round"/>
<path d="M1.0022 97.0024L1.0022 67.0577C1.0022 57.086 9.08579 49.0024 19.0574 49.0024H49.0022" stroke="#111111" stroke-width="1.20368" stroke-linecap="round"/>
<path d="M33 49H19.0552C9.0836 49 1 57.0836 1 67.0552L1 81C1.14913 63.3922 15.3921 49.1387 33 49Z" fill="#111111" stroke="#111111" stroke-width="1.20368" stroke-linecap="round"/>
<g clip-path="url(#clip0_666_14935)">
<path d="M57.3078 48.3606C53.0702 48.36 49.6367 44.9265 49.6361 40.6888L49.6337 21.8979C49.6336 21.5255 49.3154 21.229 48.9358 21.2615C48.5977 21.2922 48.3537 21.6049 48.3537 21.9448L48.3561 40.6887C48.3567 44.9263 44.924 48.359 40.6864 48.3584L21.9425 48.356C21.6026 48.356 21.2899 48.6 21.2628 48.938C21.2285 49.3159 21.525 49.6341 21.8975 49.6342L40.6884 49.6366C44.926 49.6371 48.3595 53.0707 48.3601 57.3083L48.3625 76.0522C48.3626 76.3957 48.6157 76.7139 48.9592 76.7357C49.1526 76.7483 49.3298 76.676 49.4545 76.5513C49.5702 76.4356 49.6425 76.2765 49.6425 76.0994L49.6401 57.3085C49.6395 53.0709 53.0722 49.6382 57.3098 49.6387L76.1007 49.6411C76.2779 49.6412 76.437 49.5689 76.5527 49.4532C76.6774 49.3285 76.7497 49.1513 76.737 48.9579C76.7152 48.6144 76.397 48.3612 76.0535 48.3612L57.3097 48.3588L57.3078 48.3606Z" fill="#562AE5"/>
</g>
<defs>
<clipPath id="clip0_666_14935">
<rect width="56.0029" height="56.0033" fill="white" transform="translate(21 21)"/>
</clipPath>
</defs>
</svg>
