<svg width="98" height="98" viewBox="0 0 98 98" fill="none" xmlns="http://www.w3.org/2000/svg">
<path d="M1.00195 1.00195L30.9467 1.00195C40.9184 1.00195 49.002 9.08555 49.002 19.0572L49.002 49.002" stroke="#111111" stroke-width="1.20368" stroke-linecap="round"/>
<path d="M49 33L49 19.0552C49 9.08359 40.9164 1 30.9448 1L17 1C34.6078 1.14913 48.8613 15.3921 49 33Z" fill="#111111" stroke="#111111" stroke-width="1.20368" stroke-linecap="round"/>
<path d="M49.0022 49.002V19.0572C49.0022 9.08555 57.0858 1.00195 67.0574 1.00195L97.0022 1.00195" stroke="#111111" stroke-width="1.20368" stroke-linecap="round"/>
<path d="M81 1L67.0552 1C57.0836 1 49 9.08359 49 19.0552V33C49.1491 15.3922 63.3921 1.13873 81 1Z" fill="#111111" stroke="#111111" stroke-width="1.20368" stroke-linecap="round"/>
<path d="M49.002 49.002L78.9467 49.002C88.9184 49.002 97.002 57.0855 97.002 67.0572V97.002" stroke="#111111" stroke-width="1.20368" stroke-linecap="round"/>
<path d="M97 81V67.0552C97 57.0836 88.9164 49 78.9448 49L65 49C82.6078 49.1491 96.8613 63.3921 97 81Z" fill="#111111" stroke="#111111" stroke-width="1.20368" stroke-linecap="round"/>
<path d="M1.0022 97.002L1.0022 67.0572C1.0022 57.0855 9.08579 49.002 19.0574 49.002H49.0022" stroke="#111111" stroke-width="1.20368" stroke-linecap="round"/>
<path d="M33 49H19.0552C9.0836 49 1 57.0836 1 67.0552L1 81C1.14913 63.3922 15.3921 49.1387 33 49Z" fill="#111111" stroke="#111111" stroke-width="1.20368" stroke-linecap="round"/>
<g clip-path="url(#clip0_1848_23981)">
<path d="M57.3078 48.3606C53.0702 48.36 49.6367 44.9265 49.6361 40.6888L49.6337 21.8979C49.6336 21.5255 49.3154 21.229 48.9358 21.2615C48.5977 21.2922 48.3537 21.6049 48.3537 21.9448L48.3561 40.6887C48.3567 44.9263 44.924 48.359 40.6864 48.3584L21.9425 48.356C21.6026 48.356 21.2899 48.6 21.2628 48.938C21.2285 49.3159 21.525 49.6341 21.8975 49.6342L40.6884 49.6366C44.926 49.6371 48.3595 53.0707 48.3601 57.3083L48.3625 76.0522C48.3626 76.3957 48.6157 76.7139 48.9592 76.7357C49.1526 76.7483 49.3298 76.676 49.4545 76.5513C49.5702 76.4356 49.6425 76.2765 49.6425 76.0994L49.6401 57.3085C49.6395 53.0709 53.0722 49.6382 57.3098 49.6387L76.1007 49.6411C76.2779 49.6412 76.437 49.5689 76.5527 49.4532C76.6774 49.3285 76.7497 49.1513 76.737 48.9579C76.7152 48.6144 76.397 48.3612 76.0535 48.3612L57.3097 48.3588L57.3078 48.3606Z" fill="#562AE5"/>
</g>
<defs>
<clipPath id="clip0_1848_23981">
<rect width="56.0029" height="56.0033" fill="white" transform="translate(21 21)"/>
</clipPath>
</defs>
</svg>
