<svg width="98" height="98" viewBox="0 0 98 98" fill="none" xmlns="http://www.w3.org/2000/svg">
<path d="M49.002 0.880857V30.8256C49.002 40.7973 40.9184 48.8809 30.9467 48.8809H1.00195" stroke="#111111" stroke-width="1.20368" stroke-linecap="round"/>
<path d="M17 48.8789H30.9448C40.9164 48.8789 49 40.7953 49 30.8237V16.8789C48.8509 34.4867 34.6079 48.7402 17 48.8789Z" fill="#111111" stroke="#111111" stroke-width="1.20368" stroke-linecap="round"/>
<path d="M97.002 0.880857V30.8256C97.002 40.7973 88.9184 48.8809 78.9467 48.8809H49.002" stroke="#111111" stroke-width="1.20368" stroke-linecap="round"/>
<path d="M65 48.8789H78.9448C88.9164 48.8789 97 40.7953 97 30.8237V16.8789C96.8509 34.4867 82.6079 48.7402 65 48.8789Z" fill="#111111" stroke="#111111" stroke-width="1.20368" stroke-linecap="round"/>
<path d="M49.002 48.8809L78.9467 48.8809C88.9184 48.8809 97.002 56.9645 97.002 66.9361V96.8809" stroke="#111111" stroke-width="1.20368" stroke-linecap="round"/>
<path d="M97 80.8789V66.9341C97 56.9625 88.9164 48.8789 78.9448 48.8789L65 48.8789C82.6078 49.028 96.8613 63.271 97 80.8789Z" fill="#111111" stroke="#111111" stroke-width="1.20368" stroke-linecap="round"/>
<path d="M1.00195 48.8809L30.9467 48.8809C40.9184 48.8809 49.002 56.9645 49.002 66.9361L49.002 96.8809" stroke="#111111" stroke-width="1.20368" stroke-linecap="round"/>
<path d="M49 80.8789L49 66.9341C49 56.9625 40.9164 48.8789 30.9448 48.8789L17 48.8789C34.6078 49.028 48.8613 63.271 49 80.8789Z" fill="#111111" stroke="#111111" stroke-width="1.20368" stroke-linecap="round"/>
<path d="M54.9252 53.8984C51.9291 50.9016 51.9291 46.0458 54.9252 43.0489L68.2106 29.7601C68.4739 29.4967 68.4586 29.062 68.1672 28.8165C67.9064 28.5992 67.5128 28.6478 67.2725 28.8881L54.0202 42.1438C51.0242 45.1406 46.1696 45.1406 43.1736 42.1438L29.9213 28.8881C29.681 28.6478 29.2874 28.5992 29.0292 28.8191C28.7377 29.062 28.7224 29.4967 28.9857 29.7601L42.2712 43.0489C45.2672 46.0458 45.2672 50.9016 42.2712 53.8984L29.0189 67.1541C28.7761 67.397 28.7301 67.801 28.9576 68.0592C29.0854 68.205 29.2618 68.2792 29.4382 68.2792C29.6018 68.2792 29.7654 68.2178 29.8907 68.0925L43.1761 54.8036C46.1722 51.8068 51.0267 51.8068 54.0228 54.8036L67.3082 68.0925C67.4335 68.2178 67.5971 68.2792 67.7607 68.2792C67.9371 68.2792 68.1135 68.205 68.2413 68.0592C68.4688 67.801 68.4228 67.397 68.18 67.1541L54.9277 53.8984H54.9252Z" fill="#562AE5"/>
</svg>
