<svg width="98" height="98" viewBox="0 0 98 98" fill="none" xmlns="http://www.w3.org/2000/svg">
<path d="M48.998 1.00195V30.9467C48.998 40.9184 57.0816 49.002 67.0533 49.002H96.998" stroke="#111111" stroke-width="1.20368" stroke-linecap="round"/>
<path d="M81 49H67.0552C57.0836 49 49 40.9164 49 30.9448V17C49.1491 34.6078 63.3921 48.8613 81 49Z" fill="#111111" stroke="#111111" stroke-width="1.20368" stroke-linecap="round"/>
<path d="M0.998047 1.00195L0.998047 30.9467C0.998047 40.9184 9.08164 49.002 19.0533 49.002H48.998" stroke="#111111" stroke-width="1.20368" stroke-linecap="round"/>
<path d="M33 49H19.0552C9.0836 49 1 40.9164 1 30.9448L1 17C1.14913 34.6078 15.3921 48.8613 33 49Z" fill="#111111" stroke="#111111" stroke-width="1.20368" stroke-linecap="round"/>
<path d="M0.998044 97.002H30.9428C40.9145 97.002 48.998 88.9184 48.998 78.9467V49.002" stroke="#111111" stroke-width="1.20368" stroke-linecap="round"/>
<path d="M49 65V78.9448C49 88.9164 40.9164 97 30.9448 97H17C34.6078 96.8509 48.8613 82.6079 49 65Z" fill="#111111" stroke="#111111" stroke-width="1.20368" stroke-linecap="round"/>
<path d="M48.998 97.002H78.9428C88.9145 97.002 96.998 88.9184 96.998 78.9467V49.002" stroke="#111111" stroke-width="1.20368" stroke-linecap="round"/>
<path d="M97 65V78.9448C97 88.9164 88.9164 97 78.9448 97H65C82.6078 96.8509 96.8613 82.6079 97 65Z" fill="#111111" stroke="#111111" stroke-width="1.20368" stroke-linecap="round"/>
<path d="M43.0748 54.0195C46.0709 51.0227 46.0709 46.1669 43.0748 43.17L29.7894 29.8812C29.5261 29.6178 29.5414 29.1831 29.8328 28.9376C30.0936 28.7203 30.4872 28.7688 30.7275 29.0092L43.9798 42.2648C46.9758 45.2617 51.8304 45.2617 54.8264 42.2648L68.0787 29.0092C68.319 28.7688 68.7126 28.7203 68.9708 28.9402C69.2623 29.1831 69.2776 29.6178 69.0143 29.8812L55.7288 43.17C52.7328 46.1669 52.7328 51.0227 55.7288 54.0195L68.9811 67.2752C69.2239 67.5181 69.2699 67.9221 69.0424 68.1803C68.9146 68.3261 68.7382 68.4002 68.5618 68.4002C68.3982 68.4002 68.2346 68.3389 68.1093 68.2136L54.8239 54.9247C51.8278 51.9279 46.9733 51.9279 43.9772 54.9247L30.6918 68.2136C30.5665 68.3389 30.4029 68.4002 30.2393 68.4002C30.0629 68.4002 29.8865 68.3261 29.7587 68.1803C29.5312 67.9221 29.5772 67.5181 29.82 67.2752L43.0723 54.0195H43.0748Z" fill="#562AE5"/>
</svg>
