<svg width="322" height="322" viewBox="0 0 322 322" fill="none" xmlns="http://www.w3.org/2000/svg">
<path d="M195.07 189.863C177.842 172.631 177.842 144.71 195.07 127.478L271.461 51.0671C272.975 49.5527 272.887 47.0532 271.211 45.6417C269.712 44.392 267.448 44.6713 266.067 46.0534L189.866 122.273C172.639 139.505 144.725 139.505 127.498 122.273L51.2977 46.0534C49.916 44.6713 47.6523 44.392 46.1677 45.6564C44.492 47.0532 44.4038 49.5527 45.9178 51.0671L122.309 127.478C139.537 144.71 139.537 172.631 122.309 189.863L46.1089 266.083C44.7125 267.479 44.4479 269.802 45.7561 271.287C46.4911 272.126 47.5053 272.552 48.5196 272.552C49.4603 272.552 50.4011 272.199 51.1213 271.479L127.513 195.068C144.74 177.836 172.654 177.836 189.881 195.068L266.272 271.479C266.993 272.199 267.933 272.552 268.874 272.552C269.888 272.552 270.903 272.126 271.638 271.287C272.946 269.802 272.681 267.479 271.285 266.083L195.085 189.863H195.07Z" fill="#562AE5"/>
</svg>
