<svg width="323" height="323" viewBox="0 0 323 323" fill="none" xmlns="http://www.w3.org/2000/svg">
<g clip-path="url(#clip0_1105_21704)">
<path d="M208.77 157.324C184.404 157.32 164.661 137.577 164.658 113.211L164.644 5.16338C164.643 3.02197 162.814 1.31691 160.631 1.50375C158.687 1.68021 157.284 3.4784 157.284 5.4327L157.298 113.21C157.301 137.576 137.563 157.314 113.197 157.311L5.41934 157.297C3.46504 157.297 1.66686 158.7 1.51118 160.644C1.31395 162.817 3.019 164.646 5.16041 164.647L113.208 164.661C137.574 164.664 157.317 184.407 157.321 208.773L157.334 316.55C157.335 318.526 158.79 320.355 160.765 320.48C161.878 320.553 162.896 320.137 163.614 319.42C164.279 318.755 164.694 317.84 164.694 316.822L164.68 208.774C164.677 184.408 184.415 164.67 208.781 164.673L316.829 164.687C317.848 164.687 318.763 164.271 319.428 163.606C320.145 162.889 320.561 161.87 320.488 160.758C320.363 158.783 318.533 157.327 316.558 157.327L208.781 157.313L208.77 157.324Z" fill="#562AE5"/>
</g>
<defs>
<clipPath id="clip0_1105_21704">
<rect width="322.017" height="322.019" fill="white"/>
</clipPath>
</defs>
</svg>
