<svg width="258" height="44" viewBox="0 0 258 44" fill="none" xmlns="http://www.w3.org/2000/svg">
<g clip-path="url(#clip0_2017_20098)">
<path d="M35.6147 11.2596C34.0257 11.2594 32.7382 9.97184 32.738 8.38283L32.7371 1.33667C32.737 1.19702 32.6177 1.08582 32.4754 1.09801C32.3486 1.10952 32.2571 1.22678 32.2571 1.35423L32.258 8.38276C32.2582 9.97178 30.971 11.259 29.382 11.2588L22.3534 11.2578C22.226 11.2578 22.1087 11.3493 22.0985 11.4761C22.0857 11.6178 22.1969 11.7371 22.3365 11.7371L29.3827 11.738C30.9718 11.7382 32.2593 13.0257 32.2595 14.6148L32.2604 21.6433C32.2604 21.7721 32.3553 21.8914 32.4841 21.8996C32.5567 21.9043 32.6231 21.8772 32.6699 21.8305C32.7133 21.7871 32.7404 21.7274 32.7404 21.661L32.7395 14.6148C32.7393 13.0258 34.0264 11.7386 35.6155 11.7388L42.6617 11.7397C42.7281 11.7398 42.7878 11.7126 42.8311 11.6693C42.8779 11.6225 42.905 11.5561 42.9003 11.4835C42.8921 11.3547 42.7728 11.2598 42.644 11.2598L35.6154 11.2589L35.6147 11.2596Z" fill="#562AE5"/>
</g>
<path d="M11.5009 11.5009H24.6017C28.9643 11.5009 32.5009 15.0374 32.5009 19.4V32.5009" stroke="#111111" stroke-width="0.52661" stroke-linecap="round"/>
<path d="M32.5 25.5V19.3992C32.5 15.0366 28.9634 11.5 24.6008 11.5H18.5C26.2034 11.5652 32.4393 17.7966 32.5 25.5Z" fill="#111111" stroke="#111111" stroke-width="0.52661" stroke-linecap="round"/>
<path d="M1.00086 1.00085L14.1017 1.00085C18.4643 1.00085 22.0009 4.53743 22.0009 8.90001L22.0009 22.0009" stroke="#111111" stroke-width="0.52661" stroke-linecap="round"/>
<path d="M22 15V8.89915C22 4.53657 18.4634 1 14.1008 1L8 1C15.7034 1.06524 21.9393 7.29655 22 15Z" fill="#111111" stroke="#111111" stroke-width="0.52661" stroke-linecap="round"/>
<path d="M1.00086 22.0009L14.1017 22.0009C18.4643 22.0009 22.0009 25.5374 22.0009 29.9L22.0009 43.0009" stroke="#111111" stroke-width="0.52661" stroke-linecap="round"/>
<path d="M22 36V29.8992C22 25.5366 18.4634 22 14.1008 22H8C15.7034 22.0652 21.9393 28.2966 22 36Z" fill="#111111" stroke="#111111" stroke-width="0.52661" stroke-linecap="round"/>
<path d="M22.0009 22.0009L35.1017 22.0009C39.4643 22.0009 43.0009 25.5374 43.0009 29.9V43.0009" stroke="#111111" stroke-width="0.52661" stroke-linecap="round"/>
<path d="M43 36V29.8992C43 25.5366 39.4634 22 35.1008 22H29C36.7034 22.0652 42.9393 28.2966 43 36Z" fill="#111111" stroke="#111111" stroke-width="0.52661" stroke-linecap="round"/>
<path d="M78.73 10.54C78.934 10.54 79.1154 10.5967 79.274 10.71C79.4554 10.8233 79.5687 10.982 79.614 11.186L87.468 34H85.156L78.56 14.212C78.4694 13.8947 78.3674 13.5773 78.254 13.26C78.1407 12.92 78.0387 12.6027 77.948 12.308H76.962C76.8714 12.6027 76.7694 12.92 76.656 13.26C76.5654 13.5773 76.4633 13.8947 76.35 14.212L69.754 34H67.442L75.296 11.186C75.364 10.982 75.4774 10.8233 75.636 10.71C75.7947 10.5967 75.976 10.54 76.18 10.54H78.73ZM83.388 24.276V26.214H71.488V24.276H83.388Z" fill="#111111"/>
<path d="M93.29 10.54V34H91.08V10.54H93.29Z" fill="#111111"/>
<path d="M134.497 10.54L129.227 33.32C129.159 33.5013 129.045 33.66 128.887 33.796C128.728 33.932 128.524 34 128.275 34H125.589C125.362 34 125.158 33.932 124.977 33.796C124.818 33.66 124.716 33.49 124.671 33.286L120.523 14.892C120.432 14.4387 120.33 13.9967 120.217 13.566C120.126 13.1127 120.035 12.6707 119.945 12.24H119.163C119.072 12.6707 118.981 13.1127 118.891 13.566C118.8 14.0193 118.709 14.4613 118.619 14.892L114.471 33.286C114.425 33.49 114.312 33.66 114.131 33.796C113.972 33.932 113.779 34 113.553 34H110.833C110.606 34 110.402 33.932 110.221 33.796C110.062 33.66 109.96 33.5013 109.915 33.32L104.645 10.54H106.991L111.275 29.58C111.388 29.988 111.479 30.4187 111.547 30.872C111.637 31.3253 111.728 31.79 111.819 32.266H112.669C112.759 31.79 112.85 31.3367 112.941 30.906C113.031 30.4527 113.122 30.0107 113.213 29.58L117.361 11.322C117.406 11.0727 117.508 10.88 117.667 10.744C117.848 10.608 118.052 10.54 118.279 10.54H120.863C121.089 10.54 121.282 10.608 121.441 10.744C121.599 10.88 121.701 11.0727 121.747 11.322L125.929 29.58C126.042 30.0333 126.133 30.4867 126.201 30.94C126.291 31.3707 126.371 31.8127 126.439 32.266H127.323C127.413 31.8127 127.493 31.3707 127.561 30.94C127.651 30.4867 127.742 30.0447 127.833 29.614L132.151 10.54H134.497Z" fill="#111111"/>
<path d="M144.589 17.102C146.425 17.102 147.898 17.3853 149.009 17.952C150.119 18.5187 150.913 19.4367 151.389 20.706C151.887 21.9753 152.137 23.664 152.137 25.772C152.137 27.88 151.887 29.5687 151.389 30.838C150.913 32.1073 150.119 33.0253 149.009 33.592C147.898 34.1587 146.425 34.442 144.589 34.442C142.753 34.442 141.279 34.1587 140.169 33.592C139.058 33.0253 138.253 32.1073 137.755 30.838C137.256 29.5687 137.007 27.88 137.007 25.772C137.007 23.664 137.256 21.9753 137.755 20.706C138.253 19.4367 139.058 18.5187 140.169 17.952C141.279 17.3853 142.753 17.102 144.589 17.102ZM144.589 18.972C143.251 18.972 142.197 19.176 141.427 19.584C140.656 19.992 140.101 20.6947 139.761 21.692C139.443 22.6667 139.285 24.0267 139.285 25.772C139.285 27.4947 139.443 28.8547 139.761 29.852C140.101 30.8493 140.656 31.552 141.427 31.96C142.197 32.368 143.251 32.572 144.589 32.572C145.903 32.572 146.946 32.368 147.717 31.96C148.51 31.552 149.065 30.8493 149.383 29.852C149.723 28.8547 149.893 27.4947 149.893 25.772C149.893 24.0267 149.723 22.6667 149.383 21.692C149.065 20.6947 148.51 19.992 147.717 19.584C146.946 19.176 145.903 18.972 144.589 18.972Z" fill="#111111"/>
<path d="M158.713 17.51L158.985 20.638L159.189 21.148V34H157.047V17.51H158.713ZM166.941 17.102L166.669 19.142H165.853C164.788 19.142 163.734 19.38 162.691 19.856C161.671 20.3093 160.436 20.9667 158.985 21.828L158.815 20.4C160.085 19.38 161.343 18.5753 162.589 17.986C163.836 17.3967 165.049 17.102 166.227 17.102H166.941Z" fill="#111111"/>
<path d="M183.177 17.51L177.635 23.698C177.499 23.8567 177.329 24.038 177.125 24.242C176.921 24.4233 176.751 24.5593 176.615 24.65V24.718C176.751 24.8313 176.921 25.0013 177.125 25.228C177.329 25.4547 177.499 25.67 177.635 25.874L183.721 34H181.171L174.269 24.548L180.593 17.51H183.177ZM172.603 10.2L172.637 21.012C172.637 21.692 172.615 22.304 172.569 22.848C172.524 23.392 172.456 23.9813 172.365 24.616C172.456 25.2507 172.513 25.8627 172.535 26.452C172.581 27.0413 172.603 27.6307 172.603 28.22V34H170.461V10.2H172.603ZM175.629 23.834V25.466H171.753V23.834H175.629Z" fill="#111111"/>
<path d="M192.633 17.102C193.335 17.102 194.072 17.1247 194.843 17.17C195.636 17.2153 196.418 17.272 197.189 17.34C197.959 17.408 198.685 17.4873 199.365 17.578L199.161 19.176C198.141 19.108 197.098 19.0627 196.033 19.04C194.967 18.9947 193.925 18.972 192.905 18.972C191.817 18.9493 190.944 18.9833 190.287 19.074C189.652 19.142 189.176 19.3687 188.859 19.754C188.564 20.1167 188.417 20.7287 188.417 21.59C188.417 22.5647 188.632 23.2333 189.063 23.596C189.493 23.936 190.128 24.1853 190.967 24.344L196.033 25.296C197.302 25.5453 198.243 25.9987 198.855 26.656C199.489 27.3133 199.807 28.322 199.807 29.682C199.807 31.0647 199.557 32.0847 199.059 32.742C198.56 33.3993 197.801 33.83 196.781 34.034C195.761 34.2607 194.491 34.374 192.973 34.374C192.315 34.374 191.431 34.3513 190.321 34.306C189.233 34.2607 188.02 34.136 186.683 33.932L186.853 32.368C187.465 32.3907 188.077 32.4247 188.689 32.47C189.301 32.4927 189.924 32.5153 190.559 32.538C191.216 32.538 191.896 32.538 192.599 32.538C193.891 32.5153 194.911 32.4473 195.659 32.334C196.407 32.198 196.939 31.926 197.257 31.518C197.574 31.11 197.733 30.498 197.733 29.682C197.733 28.73 197.472 28.084 196.951 27.744C196.452 27.404 195.806 27.1547 195.013 26.996L189.981 26.078C189.142 25.8967 188.451 25.636 187.907 25.296C187.363 24.9333 186.955 24.4573 186.683 23.868C186.433 23.256 186.309 22.4967 186.309 21.59C186.309 20.2753 186.535 19.3007 186.989 18.666C187.442 18.0087 188.133 17.578 189.063 17.374C189.992 17.17 191.182 17.0793 192.633 17.102Z" fill="#111111"/>
<path d="M214.049 17.102C217.018 17.102 218.503 18.6093 218.503 21.624V34H216.327V22.202C216.327 21.0233 216.1 20.196 215.647 19.72C215.216 19.2213 214.502 18.972 213.505 18.972C212.394 18.972 211.295 19.2327 210.207 19.754C209.141 20.2527 207.872 20.9893 206.399 21.964L206.331 20.366C207.645 19.3687 208.949 18.5753 210.241 17.986C211.533 17.3967 212.802 17.102 214.049 17.102ZM206.637 10.2L206.671 17.034C206.671 17.714 206.648 18.36 206.603 18.972C206.557 19.584 206.489 20.1393 206.399 20.638L206.637 21.148V34H204.495V10.2H206.637Z" fill="#111111"/>
<path d="M230.884 17.102C232.72 17.102 234.193 17.3853 235.304 17.952C236.414 18.5187 237.208 19.4367 237.684 20.706C238.182 21.9753 238.432 23.664 238.432 25.772C238.432 27.88 238.182 29.5687 237.684 30.838C237.208 32.1073 236.414 33.0253 235.304 33.592C234.193 34.1587 232.72 34.442 230.884 34.442C229.048 34.442 227.574 34.1587 226.464 33.592C225.353 33.0253 224.548 32.1073 224.05 30.838C223.551 29.5687 223.302 27.88 223.302 25.772C223.302 23.664 223.551 21.9753 224.05 20.706C224.548 19.4367 225.353 18.5187 226.464 17.952C227.574 17.3853 229.048 17.102 230.884 17.102ZM230.884 18.972C229.546 18.972 228.492 19.176 227.722 19.584C226.951 19.992 226.396 20.6947 226.056 21.692C225.738 22.6667 225.58 24.0267 225.58 25.772C225.58 27.4947 225.738 28.8547 226.056 29.852C226.396 30.8493 226.951 31.552 227.722 31.96C228.492 32.368 229.546 32.572 230.884 32.572C232.198 32.572 233.241 32.368 234.012 31.96C234.805 31.552 235.36 30.8493 235.678 29.852C236.018 28.8547 236.188 27.4947 236.188 25.772C236.188 24.0267 236.018 22.6667 235.678 21.692C235.36 20.6947 234.805 19.992 234.012 19.584C233.241 19.176 232.198 18.972 230.884 18.972Z" fill="#111111"/>
<path d="M252.114 17.102C254.2 17.102 255.684 17.816 256.568 19.244C257.452 20.672 257.894 22.8593 257.894 25.806C257.894 27.914 257.679 29.6027 257.248 30.872C256.818 32.1187 256.149 33.0253 255.242 33.592C254.336 34.136 253.168 34.408 251.74 34.408C250.652 34.408 249.564 34.2607 248.476 33.966C247.411 33.6487 246.346 33.1953 245.28 32.606L245.382 31.246C246.561 31.6313 247.592 31.9373 248.476 32.164C249.383 32.3907 250.324 32.504 251.298 32.504C252.364 32.504 253.214 32.3113 253.848 31.926C254.483 31.518 254.948 30.8267 255.242 29.852C255.537 28.8773 255.684 27.5287 255.684 25.806C255.684 24.1287 255.537 22.8027 255.242 21.828C254.97 20.8307 254.528 20.1167 253.916 19.686C253.327 19.2327 252.522 19.006 251.502 19.006C250.55 19.006 249.598 19.244 248.646 19.72C247.717 20.196 246.618 20.9327 245.348 21.93L245.212 20.366C245.892 19.686 246.606 19.108 247.354 18.632C248.125 18.1333 248.918 17.7593 249.734 17.51C250.55 17.238 251.344 17.102 252.114 17.102ZM245.11 17.51L245.348 20.808L245.484 21.114V31.994L245.382 32.402C245.45 33.0367 245.484 33.626 245.484 34.17C245.484 34.714 245.484 35.3033 245.484 35.938V40.936H243.342V17.51H245.11Z" fill="#111111"/>
<defs>
<clipPath id="clip0_2017_20098">
<rect width="21" height="21" fill="white" transform="translate(22 1)"/>
</clipPath>
</defs>
</svg>
