<svg width="102" height="102" viewBox="0 0 102 102" fill="none" xmlns="http://www.w3.org/2000/svg">
<g clip-path="url(#clip0_1797_24328)">
<path d="M83.4161 25.062C79.6327 25.0615 76.5672 21.996 76.5667 18.2127L76.5645 1.43604C76.5645 1.10354 76.2803 0.838796 75.9414 0.867805C75.6396 0.895206 75.4217 1.17441 75.4217 1.47786L75.4239 18.2125C75.4244 21.9959 72.3596 25.0606 68.5762 25.0601L51.8415 25.058C51.538 25.0579 51.2588 25.2758 51.2346 25.5776C51.204 25.9149 51.4688 26.199 51.8013 26.1991L68.578 26.2013C72.3614 26.2017 75.4269 29.2673 75.4274 33.0506L75.4296 49.7853C75.4296 50.092 75.6556 50.3761 75.9623 50.3955C76.135 50.4068 76.2932 50.3422 76.4046 50.2309C76.5078 50.1276 76.5724 49.9856 76.5724 49.8274L76.5702 33.0508C76.5697 29.2674 79.6345 26.2027 83.4179 26.2032L100.195 26.2053C100.353 26.2054 100.495 26.1408 100.598 26.0375C100.709 25.9262 100.774 25.768 100.763 25.5953C100.743 25.2886 100.459 25.0626 100.152 25.0626L83.4177 25.0604L83.4161 25.062Z" fill="#562AE5"/>
</g>
<path d="M26.0021 25.6367L57.1946 25.6367C67.5818 25.6367 76.0022 34.0571 76.0022 44.4443V75.6368" stroke="#111111" stroke-width="1.25384" stroke-linecap="round"/>
<path d="M76 58.9682V44.4423C76 34.0552 67.5796 25.6348 57.1924 25.6348H42.6666C61.0081 25.7901 75.8555 40.6266 76 58.9682Z" fill="#111111" stroke="#111111" stroke-width="1.25384" stroke-linecap="round"/>
<path d="M1.00208 0.636719L32.1946 0.636719C42.5818 0.636719 51.0022 9.05715 51.0022 19.4443L51.0022 50.6368" stroke="#111111" stroke-width="1.25384" stroke-linecap="round"/>
<path d="M51 33.9682L51 19.4423C51 9.0552 42.5796 0.634766 32.1924 0.634766L17.6666 0.634766C36.0081 0.79011 50.8555 15.6266 51 33.9682Z" fill="#111111" stroke="#111111" stroke-width="1.25384" stroke-linecap="round"/>
<path d="M1.00208 50.6367L32.1946 50.6367C42.5818 50.6367 51.0022 59.0571 51.0022 69.4443L51.0022 100.637" stroke="#111111" stroke-width="1.25384" stroke-linecap="round"/>
<path d="M51 83.9682L51 69.4423C51 59.0552 42.5796 50.6348 32.1924 50.6348L17.6666 50.6348C36.0081 50.7901 50.8555 65.6266 51 83.9682Z" fill="#111111" stroke="#111111" stroke-width="1.25384" stroke-linecap="round"/>
<path d="M51.0021 50.6367L82.1946 50.6367C92.5818 50.6367 101.002 59.0571 101.002 69.4443V100.637" stroke="#111111" stroke-width="1.25384" stroke-linecap="round"/>
<path d="M101 83.9682V69.4423C101 59.0552 92.5796 50.6348 82.1924 50.6348L67.6666 50.6348C86.0081 50.7901 100.855 65.6266 101 83.9682Z" fill="#111111" stroke="#111111" stroke-width="1.25384" stroke-linecap="round"/>
<defs>
<clipPath id="clip0_1797_24328">
<rect width="50.0001" height="50.0001" fill="white" transform="translate(51 0.634766)"/>
</clipPath>
</defs>
</svg>
