<svg width="102" height="103" viewBox="0 0 102 103" fill="none" xmlns="http://www.w3.org/2000/svg">
<path d="M81.2905 30.911C78.6154 28.2353 78.6154 23.8998 81.2905 21.224L93.1525 9.35894C93.3876 9.12378 93.3739 8.73566 93.1137 8.51649C92.8809 8.32243 92.5294 8.36581 92.3148 8.58041L80.4825 20.4158C77.8074 23.0916 73.473 23.0916 70.798 20.4158L58.9656 8.58041C58.7511 8.36581 58.3996 8.32243 58.169 8.51877C57.9088 8.73566 57.8951 9.12378 58.1302 9.35894L69.9922 21.224C72.6673 23.8998 72.6673 28.2353 69.9922 30.911L58.1599 42.7464C57.9431 42.9633 57.902 43.3241 58.1051 43.5546C58.2193 43.6848 58.3767 43.751 58.5342 43.751C58.6803 43.751 58.8264 43.6962 58.9382 43.5843L70.8002 31.7192C73.4753 29.0435 77.8097 29.0435 80.4848 31.7192L92.3468 43.5843C92.4586 43.6962 92.6047 43.751 92.7508 43.751C92.9083 43.751 93.0658 43.6848 93.1799 43.5546C93.383 43.3241 93.3419 42.9633 93.1251 42.7464L81.2928 30.911H81.2905Z" fill="#562AE5"/>
<path d="M76.002 76.4316H44.8095C34.4224 76.4316 26.002 68.0112 26.002 57.6241V26.4316" stroke="#111111" stroke-width="1.25383" stroke-linecap="round"/>
<path d="M26 43.0964V57.6222C26 68.0093 34.4204 76.4297 44.8075 76.4297H59.3333C40.9919 76.2743 26.1445 61.4379 26 43.0964Z" fill="#111111" stroke="#111111" stroke-width="1.25383" stroke-linecap="round"/>
<path d="M1.0022 51.4316L1.0022 20.2392C1.0022 9.85205 9.42261 1.43164 19.8097 1.43164L51.0022 1.43164" stroke="#111111" stroke-width="1.25383" stroke-linecap="round"/>
<path d="M34.3333 1.42969L19.8075 1.42969C9.42041 1.42969 1 9.85011 1 20.2372L1 34.763C1.15534 16.4216 15.9918 1.5742 34.3333 1.42969Z" fill="#111111" stroke="#111111" stroke-width="1.25383" stroke-linecap="round"/>
<path d="M1.00195 51.4316L32.1944 51.4316C42.5815 51.4316 51.002 59.8521 51.002 70.2392L51.002 101.432" stroke="#111111" stroke-width="1.25383" stroke-linecap="round"/>
<path d="M51 84.763L51 70.2372C51 59.8501 42.5796 51.4297 32.1925 51.4297L17.6667 51.4297C36.0081 51.585 50.8555 66.4215 51 84.763Z" fill="#111111" stroke="#111111" stroke-width="1.25383" stroke-linecap="round"/>
<path d="M101.002 51.4316V82.6241C101.002 93.0112 92.5815 101.432 82.1944 101.432H51.002" stroke="#111111" stroke-width="1.25383" stroke-linecap="round"/>
<path d="M67.6667 101.43H82.1925C92.5796 101.43 101 93.0093 101 82.6222V68.0964C100.845 86.4378 86.0082 101.285 67.6667 101.43Z" fill="#111111" stroke="#111111" stroke-width="1.25383" stroke-linecap="round"/>
</svg>
