<svg width="331" height="44" viewBox="0 0 331 44" fill="none" xmlns="http://www.w3.org/2000/svg">
<path d="M34.7219 13.3823C33.5984 12.2585 33.5984 10.4376 34.7219 9.31376L39.704 4.33043C39.8027 4.23167 39.797 4.06866 39.6877 3.9766C39.5899 3.8951 39.4423 3.91332 39.3522 4.00345L34.3826 8.97432C33.2591 10.0981 31.4386 10.0981 30.3151 8.97432L25.3455 4.00345C25.2554 3.91332 25.1078 3.8951 25.0109 3.97756C24.9017 4.06866 24.8959 4.23167 24.9946 4.33043L29.9767 9.31376C31.1002 10.4376 31.1002 12.2585 29.9767 13.3823L25.0071 18.3532C24.916 18.4443 24.8988 18.5958 24.9841 18.6926C25.032 18.7473 25.0982 18.7751 25.1643 18.7751C25.2257 18.7751 25.287 18.7521 25.334 18.7051L30.316 13.7218C31.4396 12.5979 33.26 12.5979 34.3835 13.7218L39.3656 18.7051C39.4126 18.7521 39.4739 18.7751 39.5353 18.7751C39.6014 18.7751 39.6676 18.7473 39.7155 18.6926C39.8008 18.5958 39.7836 18.4443 39.6925 18.3532L34.7229 13.3823H34.7219Z" fill="#562AE5"/>
<path d="M32.5009 32.5009H19.4C15.0374 32.5009 11.5009 28.9643 11.5009 24.6017V11.5009" stroke="#111111" stroke-width="0.52661" stroke-linecap="round"/>
<path d="M11.5 18.5V24.6008C11.5 28.9634 15.0366 32.5 19.3992 32.5H25.5C17.7966 32.4348 11.5607 26.2034 11.5 18.5Z" fill="#111111" stroke="#111111" stroke-width="0.52661" stroke-linecap="round"/>
<path d="M1.00098 22.001L1.00098 8.90019C1.00098 4.53761 4.53755 1.00104 8.90013 1.00104L22.001 1.00104" stroke="#111111" stroke-width="0.52661" stroke-linecap="round"/>
<path d="M15 1L8.89916 1C4.53657 1 1 4.53657 1 8.89916L1 15C1.06524 7.29659 7.29655 1.06069 15 1Z" fill="#111111" stroke="#111111" stroke-width="0.52661" stroke-linecap="round"/>
<path d="M1.00085 22.0009L14.1017 22.0009C18.4643 22.0009 22.0009 25.5374 22.0009 29.9L22.0009 43.0009" stroke="#111111" stroke-width="0.52661" stroke-linecap="round"/>
<path d="M22 36V29.8992C22 25.5366 18.4634 22 14.1008 22H8C15.7034 22.0652 21.9393 28.2966 22 36Z" fill="#111111" stroke="#111111" stroke-width="0.52661" stroke-linecap="round"/>
<path d="M43.0009 22.0009V35.1017C43.0009 39.4643 39.4643 43.0009 35.1017 43.0009H22.0009" stroke="#111111" stroke-width="0.52661" stroke-linecap="round"/>
<path d="M29 43H35.1008C39.4634 43 43 39.4634 43 35.1008V29C42.9348 36.7034 36.7034 42.9393 29 43Z" fill="#111111" stroke="#111111" stroke-width="0.52661" stroke-linecap="round"/>
<path d="M78.288 9.13202C79.24 9.13202 80.056 9.15469 80.736 9.20002C81.4387 9.24535 82.0847 9.31335 82.674 9.40402C83.2634 9.49469 83.8754 9.61935 84.51 9.77802L84.238 11.478C83.558 11.3874 82.9347 11.3194 82.368 11.274C81.824 11.2287 81.2234 11.1947 80.566 11.172C79.9314 11.1267 79.172 11.104 78.288 11.104C76.6107 11.104 75.2847 11.4327 74.31 12.09C73.3354 12.7247 72.644 13.7787 72.236 15.252C71.828 16.7254 71.624 18.7314 71.624 21.27C71.624 23.8087 71.828 25.8147 72.236 27.288C72.644 28.7614 73.3354 29.8267 74.31 30.484C75.2847 31.1187 76.6107 31.436 78.288 31.436C79.6934 31.436 80.8834 31.402 81.858 31.334C82.8327 31.266 83.7847 31.164 84.714 31.028L84.986 32.694C84.034 32.9434 83.048 33.1247 82.028 33.238C81.0307 33.3514 79.784 33.408 78.288 33.408C76.0894 33.408 74.3214 33.0227 72.984 32.252C71.6694 31.4587 70.7174 30.178 70.128 28.41C69.5387 26.642 69.244 24.262 69.244 21.27C69.244 18.278 69.5387 15.898 70.128 14.13C70.7174 12.362 71.6694 11.0927 72.984 10.322C74.3214 9.52869 76.0894 9.13202 78.288 9.13202Z" fill="#111111"/>
<path d="M91.187 16.51V28.342C91.1644 29.4754 91.391 30.2914 91.867 30.79C92.3657 31.2887 93.1477 31.538 94.213 31.538C95.233 31.538 96.2304 31.2887 97.205 30.79C98.2024 30.2914 99.3924 29.5774 100.775 28.648L101.013 30.212C99.6984 31.2774 98.429 32.082 97.205 32.626C95.981 33.17 94.7457 33.442 93.499 33.442C90.5297 33.442 89.045 31.9347 89.045 28.92V16.51H91.187ZM102.679 16.51V33H100.979L100.775 29.906L100.537 29.396V16.51H102.679Z" fill="#111111"/>
<path d="M113.709 16.102C114.412 16.102 115.148 16.1247 115.919 16.17C116.712 16.2154 117.494 16.272 118.265 16.34C119.036 16.408 119.761 16.4874 120.441 16.578L120.237 18.176C119.217 18.108 118.174 18.0627 117.109 18.04C116.044 17.9947 115.001 17.972 113.981 17.972C112.893 17.9494 112.02 17.9834 111.363 18.074C110.728 18.142 110.252 18.3687 109.935 18.754C109.64 19.1167 109.493 19.7287 109.493 20.59C109.493 21.5647 109.708 22.2334 110.139 22.596C110.57 22.936 111.204 23.1854 112.043 23.344L117.109 24.296C118.378 24.5454 119.319 24.9987 119.931 25.656C120.566 26.3134 120.883 27.322 120.883 28.682C120.883 30.0647 120.634 31.0847 120.135 31.742C119.636 32.3994 118.877 32.83 117.857 33.034C116.837 33.2607 115.568 33.374 114.049 33.374C113.392 33.374 112.508 33.3514 111.397 33.306C110.309 33.2607 109.096 33.136 107.759 32.932L107.929 31.368C108.541 31.3907 109.153 31.4247 109.765 31.47C110.377 31.4927 111 31.5154 111.635 31.538C112.292 31.538 112.972 31.538 113.675 31.538C114.967 31.5154 115.987 31.4474 116.735 31.334C117.483 31.198 118.016 30.926 118.333 30.518C118.65 30.11 118.809 29.498 118.809 28.682C118.809 27.73 118.548 27.084 118.027 26.744C117.528 26.404 116.882 26.1547 116.089 25.996L111.057 25.078C110.218 24.8967 109.527 24.636 108.983 24.296C108.439 23.9334 108.031 23.4574 107.759 22.868C107.51 22.256 107.385 21.4967 107.385 20.59C107.385 19.2754 107.612 18.3007 108.065 17.666C108.518 17.0087 109.21 16.578 110.139 16.374C111.068 16.17 112.258 16.0794 113.709 16.102Z" fill="#111111"/>
<path d="M128.835 11.546V28.886C128.835 29.7247 129.028 30.3367 129.413 30.722C129.821 31.1074 130.433 31.3 131.249 31.3H133.935L134.207 32.898C133.867 32.9887 133.47 33.0567 133.017 33.102C132.586 33.17 132.167 33.2154 131.759 33.238C131.351 33.2607 131.022 33.272 130.773 33.272C129.436 33.272 128.416 32.9207 127.713 32.218C127.033 31.5154 126.693 30.4954 126.693 29.158V11.546H128.835ZM134.411 16.51V18.278H123.701V16.68L126.931 16.51H134.411Z" fill="#111111"/>
<path d="M144.888 16.102C146.724 16.102 148.197 16.3854 149.308 16.952C150.418 17.5187 151.212 18.4367 151.688 19.706C152.186 20.9754 152.436 22.664 152.436 24.772C152.436 26.88 152.186 28.5687 151.688 29.838C151.212 31.1074 150.418 32.0254 149.308 32.592C148.197 33.1587 146.724 33.442 144.888 33.442C143.052 33.442 141.578 33.1587 140.468 32.592C139.357 32.0254 138.552 31.1074 138.054 29.838C137.555 28.5687 137.306 26.88 137.306 24.772C137.306 22.664 137.555 20.9754 138.054 19.706C138.552 18.4367 139.357 17.5187 140.468 16.952C141.578 16.3854 143.052 16.102 144.888 16.102ZM144.888 17.972C143.55 17.972 142.496 18.176 141.726 18.584C140.955 18.992 140.4 19.6947 140.06 20.692C139.742 21.6667 139.584 23.0267 139.584 24.772C139.584 26.4947 139.742 27.8547 140.06 28.852C140.4 29.8494 140.955 30.552 141.726 30.96C142.496 31.368 143.55 31.572 144.888 31.572C146.202 31.572 147.245 31.368 148.016 30.96C148.809 30.552 149.364 29.8494 149.682 28.852C150.022 27.8547 150.192 26.4947 150.192 24.772C150.192 23.0267 150.022 21.6667 149.682 20.692C149.364 19.6947 148.809 18.992 148.016 18.584C147.245 18.176 146.202 17.972 144.888 17.972Z" fill="#111111"/>
<path d="M177.236 16.102C178.642 16.102 179.718 16.4874 180.466 17.258C181.214 18.0287 181.588 19.1507 181.588 20.624V33H179.446V21.202C179.424 20.0914 179.186 19.2754 178.732 18.754C178.279 18.2327 177.542 17.972 176.522 17.972C175.865 17.972 175.23 18.0854 174.618 18.312C174.029 18.516 173.394 18.8447 172.714 19.298C172.034 19.7287 171.23 20.284 170.3 20.964L170.164 19.4C171.388 18.312 172.578 17.496 173.734 16.952C174.913 16.3854 176.08 16.102 177.236 16.102ZM159.114 16.51L159.284 19.638L159.488 20.148V33H157.346V16.51H159.114ZM166.186 16.102C167.569 16.102 168.634 16.4874 169.382 17.258C170.13 18.006 170.504 19.128 170.504 20.624V33H168.43V21.202C168.43 20.046 168.181 19.2187 167.682 18.72C167.206 18.2214 166.481 17.972 165.506 17.972C164.872 17.972 164.248 18.074 163.636 18.278C163.047 18.482 162.401 18.8107 161.698 19.264C161.018 19.6947 160.202 20.2614 159.25 20.964L159.114 19.4C160.338 18.312 161.528 17.496 162.684 16.952C163.84 16.3854 165.008 16.102 166.186 16.102Z" fill="#111111"/>
<path d="M202.993 9.23402C204.739 9.23402 206.144 9.43802 207.209 9.84602C208.275 10.2314 209.045 10.9114 209.521 11.886C210.02 12.838 210.269 14.198 210.269 15.966C210.269 17.2807 210.122 18.3687 209.827 19.23C209.533 20.0687 209.068 20.7147 208.433 21.168C207.799 21.6214 206.971 21.9274 205.951 22.086V22.222C206.337 22.3354 206.711 22.5394 207.073 22.834C207.436 23.1287 207.765 23.5027 208.059 23.956C208.354 24.4094 208.581 24.942 208.739 25.554L211.119 33H208.739L206.495 25.622C206.178 24.6474 205.736 23.956 205.169 23.548C204.625 23.14 203.934 22.936 203.095 22.936C201.758 22.936 200.568 22.936 199.525 22.936C198.505 22.9134 197.655 22.8907 196.975 22.868C196.295 22.8454 195.785 22.8227 195.445 22.8L195.547 20.998H202.925C204.195 20.9754 205.192 20.828 205.917 20.556C206.665 20.2614 207.198 19.7627 207.515 19.06C207.833 18.3347 207.991 17.3374 207.991 16.068C207.991 14.776 207.833 13.7787 207.515 13.076C207.198 12.3734 206.665 11.886 205.917 11.614C205.192 11.342 204.195 11.206 202.925 11.206C201.112 11.206 199.548 11.2174 198.233 11.24C196.919 11.24 196.035 11.2514 195.581 11.274L195.105 9.54002C195.944 9.44935 196.726 9.38135 197.451 9.33602C198.177 9.29069 198.97 9.26802 199.831 9.26802C200.715 9.24535 201.769 9.23402 202.993 9.23402ZM197.315 9.54002V33H195.105V9.54002H197.315Z" fill="#111111"/>
<path d="M222.08 16.102C224.437 16.102 226.16 16.5327 227.248 17.394C228.359 18.2554 228.925 19.536 228.948 21.236C228.971 22.7094 228.687 23.8427 228.098 24.636C227.509 25.4294 226.523 25.826 225.14 25.826H215.586V24.126H224.664C225.503 24.126 226.069 23.854 226.364 23.31C226.659 22.766 226.795 22.086 226.772 21.27C226.749 20.0914 226.375 19.2527 225.65 18.754C224.925 18.2327 223.769 17.972 222.182 17.972C220.867 17.972 219.825 18.176 219.054 18.584C218.283 18.992 217.739 19.6834 217.422 20.658C217.105 21.61 216.946 22.9134 216.946 24.568C216.946 26.404 217.139 27.832 217.524 28.852C217.909 29.8494 218.521 30.552 219.36 30.96C220.199 31.3454 221.298 31.538 222.658 31.538C223.61 31.538 224.596 31.504 225.616 31.436C226.659 31.3454 227.565 31.2434 228.336 31.13L228.574 32.592C228.098 32.7734 227.486 32.9207 226.738 33.034C226.013 33.1474 225.253 33.238 224.46 33.306C223.689 33.374 222.998 33.408 222.386 33.408C220.527 33.408 219.031 33.1247 217.898 32.558C216.787 31.9687 215.971 31.0394 215.45 29.77C214.929 28.478 214.668 26.7894 214.668 24.704C214.668 22.5507 214.917 20.8507 215.416 19.604C215.937 18.3574 216.742 17.462 217.83 16.918C218.918 16.374 220.335 16.102 222.08 16.102Z" fill="#111111"/>
<path d="M238.951 16.102C239.654 16.102 240.39 16.1247 241.161 16.17C241.954 16.2154 242.736 16.272 243.507 16.34C244.278 16.408 245.003 16.4874 245.683 16.578L245.479 18.176C244.459 18.108 243.416 18.0627 242.351 18.04C241.286 17.9947 240.243 17.972 239.223 17.972C238.135 17.9494 237.262 17.9834 236.605 18.074C235.97 18.142 235.494 18.3687 235.177 18.754C234.882 19.1167 234.735 19.7287 234.735 20.59C234.735 21.5647 234.95 22.2334 235.381 22.596C235.812 22.936 236.446 23.1854 237.285 23.344L242.351 24.296C243.62 24.5454 244.561 24.9987 245.173 25.656C245.808 26.3134 246.125 27.322 246.125 28.682C246.125 30.0647 245.876 31.0847 245.377 31.742C244.878 32.3994 244.119 32.83 243.099 33.034C242.079 33.2607 240.81 33.374 239.291 33.374C238.634 33.374 237.75 33.3514 236.639 33.306C235.551 33.2607 234.338 33.136 233.001 32.932L233.171 31.368C233.783 31.3907 234.395 31.4247 235.007 31.47C235.619 31.4927 236.242 31.5154 236.877 31.538C237.534 31.538 238.214 31.538 238.917 31.538C240.209 31.5154 241.229 31.4474 241.977 31.334C242.725 31.198 243.258 30.926 243.575 30.518C243.892 30.11 244.051 29.498 244.051 28.682C244.051 27.73 243.79 27.084 243.269 26.744C242.77 26.404 242.124 26.1547 241.331 25.996L236.299 25.078C235.46 24.8967 234.769 24.636 234.225 24.296C233.681 23.9334 233.273 23.4574 233.001 22.868C232.752 22.256 232.627 21.4967 232.627 20.59C232.627 19.2754 232.854 18.3007 233.307 17.666C233.76 17.0087 234.452 16.578 235.381 16.374C236.31 16.17 237.5 16.0794 238.951 16.102Z" fill="#111111"/>
<path d="M257.375 16.102C259.732 16.102 261.455 16.5327 262.543 17.394C263.654 18.2554 264.22 19.536 264.243 21.236C264.266 22.7094 263.982 23.8427 263.393 24.636C262.804 25.4294 261.818 25.826 260.435 25.826H250.881V24.126H259.959C260.798 24.126 261.364 23.854 261.659 23.31C261.954 22.766 262.09 22.086 262.067 21.27C262.044 20.0914 261.67 19.2527 260.945 18.754C260.22 18.2327 259.064 17.972 257.477 17.972C256.162 17.972 255.12 18.176 254.349 18.584C253.578 18.992 253.034 19.6834 252.717 20.658C252.4 21.61 252.241 22.9134 252.241 24.568C252.241 26.404 252.434 27.832 252.819 28.852C253.204 29.8494 253.816 30.552 254.655 30.96C255.494 31.3454 256.593 31.538 257.953 31.538C258.905 31.538 259.891 31.504 260.911 31.436C261.954 31.3454 262.86 31.2434 263.631 31.13L263.869 32.592C263.393 32.7734 262.781 32.9207 262.033 33.034C261.308 33.1474 260.548 33.238 259.755 33.306C258.984 33.374 258.293 33.408 257.681 33.408C255.822 33.408 254.326 33.1247 253.193 32.558C252.082 31.9687 251.266 31.0394 250.745 29.77C250.224 28.478 249.963 26.7894 249.963 24.704C249.963 22.5507 250.212 20.8507 250.711 19.604C251.232 18.3574 252.037 17.462 253.125 16.918C254.213 16.374 255.63 16.102 257.375 16.102Z" fill="#111111"/>
<path d="M276.626 16.102C277.759 16.102 278.711 16.272 279.482 16.612C280.275 16.9294 280.876 17.462 281.284 18.21C281.692 18.9354 281.896 19.9214 281.896 21.168V33H280.196L279.856 29.396L279.72 29.09V21.168C279.72 20.1254 279.471 19.332 278.972 18.788C278.496 18.244 277.578 17.972 276.218 17.972C275.221 17.972 274.065 18.0174 272.75 18.108C271.435 18.1987 270.155 18.312 268.908 18.448L268.704 16.85C269.475 16.714 270.291 16.6007 271.152 16.51C272.013 16.3967 272.909 16.306 273.838 16.238C274.767 16.1474 275.697 16.102 276.626 16.102ZM280.774 22.936L280.74 24.568L272.682 24.636C271.821 24.6587 271.186 24.8967 270.778 25.35C270.393 25.7807 270.2 26.3927 270.2 27.186V28.614C270.2 29.5434 270.438 30.2347 270.914 30.688C271.39 31.1414 272.115 31.368 273.09 31.368C273.815 31.3907 274.609 31.266 275.47 30.994C276.354 30.722 277.227 30.3254 278.088 29.804C278.949 29.2827 279.709 28.6707 280.366 27.968V29.634C280.094 29.974 279.697 30.348 279.176 30.756C278.677 31.164 278.088 31.5607 277.408 31.946C276.751 32.3314 276.014 32.6487 275.198 32.898C274.405 33.1474 273.577 33.272 272.716 33.272C271.764 33.272 270.937 33.102 270.234 32.762C269.531 32.422 268.976 31.9234 268.568 31.266C268.183 30.586 267.99 29.77 267.99 28.818V26.914C267.99 25.6447 268.364 24.67 269.112 23.99C269.883 23.2874 270.959 22.936 272.342 22.936H280.774Z" fill="#111111"/>
<path d="M289.135 16.51L289.407 19.638L289.611 20.148V33H287.469V16.51H289.135ZM297.363 16.102L297.091 18.142H296.275C295.21 18.142 294.156 18.38 293.113 18.856C292.093 19.3094 290.858 19.9667 289.407 20.828L289.237 19.4C290.507 18.38 291.765 17.5754 293.011 16.986C294.258 16.3967 295.471 16.102 296.649 16.102H297.363Z" fill="#111111"/>
<path d="M307.221 16.102C307.674 16.102 308.196 16.1247 308.785 16.17C309.374 16.2154 309.975 16.2947 310.587 16.408C311.199 16.4987 311.766 16.6347 312.287 16.816L311.981 18.244C311.278 18.1534 310.508 18.0854 309.669 18.04C308.83 17.9947 308.128 17.972 307.561 17.972C306.133 17.972 304.988 18.176 304.127 18.584C303.288 18.9694 302.676 19.6607 302.291 20.658C301.928 21.6327 301.747 22.9927 301.747 24.738C301.747 26.4834 301.928 27.8547 302.291 28.852C302.676 29.8494 303.288 30.552 304.127 30.96C304.988 31.3454 306.133 31.538 307.561 31.538C307.901 31.538 308.343 31.5267 308.887 31.504C309.431 31.4814 310.009 31.4474 310.621 31.402C311.233 31.3567 311.811 31.2887 312.355 31.198L312.627 32.66C311.811 32.9094 310.927 33.0907 309.975 33.204C309.046 33.34 308.116 33.408 307.187 33.408C305.328 33.408 303.832 33.1247 302.699 32.558C301.566 31.9914 300.738 31.0847 300.217 29.838C299.718 28.5687 299.469 26.8687 299.469 24.738C299.469 22.63 299.718 20.9414 300.217 19.672C300.738 18.4027 301.566 17.496 302.699 16.952C303.832 16.3854 305.34 16.102 307.221 16.102Z" fill="#111111"/>
<path d="M326.375 16.102C329.344 16.102 330.829 17.6094 330.829 20.624V33H328.653V21.202C328.653 20.0234 328.426 19.196 327.973 18.72C327.542 18.2214 326.828 17.972 325.831 17.972C324.72 17.972 323.621 18.2327 322.533 18.754C321.468 19.2527 320.198 19.9894 318.725 20.964L318.657 19.366C319.972 18.3687 321.275 17.5754 322.567 16.986C323.859 16.3967 325.128 16.102 326.375 16.102ZM318.963 9.20002L318.997 16.034C318.997 16.714 318.974 17.36 318.929 17.972C318.884 18.584 318.816 19.1394 318.725 19.638L318.963 20.148V33H316.821V9.20002H318.963Z" fill="#111111"/>
</svg>
