<svg width="104" height="104" viewBox="0 0 104 104" fill="none" xmlns="http://www.w3.org/2000/svg">
<g clip-path="url(#clip0_970_22306)">
<rect width="104" height="104" rx="26" fill="#ECEBF0"/>
<g clip-path="url(#clip1_970_22306)">
<path d="M77.4798 73.855C65.4985 61.8706 65.4985 42.4522 77.4798 30.4678L130.609 -22.6747C131.662 -23.7279 131.6 -25.4663 130.435 -26.4479C129.392 -27.3171 127.818 -27.1228 126.857 -26.1616L73.8609 26.8479C61.8795 38.8323 42.4661 38.8323 30.4848 26.8479L-22.5111 -26.1616C-23.472 -27.1228 -25.0464 -27.3171 -26.0789 -26.4377C-27.2443 -25.4663 -27.3056 -23.7279 -26.2527 -22.6747L26.8761 30.4678C38.8574 42.4522 38.8574 61.8706 26.8761 73.855L-26.1198 126.865C-27.0909 127.836 -27.275 129.452 -26.3651 130.484C-25.854 131.067 -25.1486 131.364 -24.4432 131.364C-23.7889 131.364 -23.1347 131.118 -22.6337 130.617L30.495 77.4749C42.4763 65.4905 61.8898 65.4905 73.8711 77.4749L127 130.617C127.501 131.118 128.155 131.364 128.809 131.364C129.515 131.364 130.22 131.067 130.731 130.484C131.641 129.452 131.457 127.836 130.486 126.865L77.49 73.855H77.4798Z" fill="#111111"/>
</g>
</g>
<defs>
<clipPath id="clip0_970_22306">
<rect width="104" height="104" rx="26" fill="white"/>
</clipPath>
<clipPath id="clip1_970_22306">
<rect width="158.354" height="158.354" fill="white" transform="translate(-26.9993 -27)"/>
</clipPath>
</defs>
</svg>
