<svg width="142" height="142" viewBox="0 0 142 142" fill="none" xmlns="http://www.w3.org/2000/svg">
<path d="M127.674 28.3465C135.51 28.3465 141.862 22.001 141.862 14.1733C141.862 6.34559 135.51 0 127.674 0C119.838 0 113.486 6.34559 113.486 14.1733C113.486 22.001 119.838 28.3465 127.674 28.3465Z" fill="#111111"/>
<path d="M109.055 14.1715C109.055 19.5523 104.688 23.9144 99.3019 23.9144C93.9155 23.9144 89.5489 19.5523 89.5489 14.1715C89.5489 8.79062 93.9155 4.42858 99.3019 4.42858C104.688 4.42858 109.055 8.79062 109.055 14.1715Z" fill="#111111"/>
<path d="M70.926 23.914C76.3115 23.914 80.6773 19.5528 80.6773 14.1729C80.6773 8.79301 76.3115 4.43175 70.926 4.43175C65.5405 4.43175 61.1747 8.79301 61.1747 14.1729C61.1747 19.5528 65.5405 23.914 70.926 23.914Z" fill="#111111"/>
<path d="M19.5024 14.1715C19.5024 17.1065 17.1206 19.4858 14.1825 19.4858C11.2444 19.4858 8.86267 17.1065 8.86267 14.1715C8.86267 11.2365 11.2444 8.85715 14.1825 8.85715C17.1206 8.85715 19.5024 11.2365 19.5024 14.1715Z" fill="#111111"/>
<path d="M47.8747 14.1715C47.8747 17.1065 45.4929 19.4858 42.5549 19.4858C39.6168 19.4858 37.235 17.1065 37.235 14.1715C37.235 11.2365 39.6168 8.85715 42.5549 8.85715C45.4929 8.85715 47.8747 11.2365 47.8747 14.1715Z" fill="#111111"/>
<path d="M19.5024 42.5145C19.5024 45.4495 17.1206 47.8288 14.1825 47.8288C11.2444 47.8288 8.86267 45.4495 8.86267 42.5145C8.86267 39.5795 11.2444 37.2002 14.1825 37.2002C17.1206 37.2002 19.5024 39.5795 19.5024 42.5145Z" fill="#111111"/>
<path d="M52.306 42.5163C52.306 47.8926 47.9437 52.2557 42.5564 52.2557C37.1657 52.2557 32.7999 47.8926 32.7999 42.5163C32.7999 37.1311 37.1674 32.7698 42.5564 32.7698C47.9437 32.7716 52.306 37.1311 52.306 42.5163Z" fill="#111111"/>
<path d="M80.6773 42.5142C80.6773 47.894 76.3115 52.2553 70.926 52.2553C65.5405 52.2553 61.1747 47.894 61.1747 42.5142C61.1747 37.1343 65.5405 32.773 70.926 32.773C76.3115 32.773 80.6773 37.1343 80.6773 42.5142Z" fill="#111111"/>
<path d="M113.484 42.5163C113.484 50.3408 107.136 56.6843 99.3053 56.6843C91.4674 56.6843 85.1137 50.3408 85.1137 42.5163C85.1137 34.6866 91.4674 28.3395 99.3053 28.3395C107.136 28.3413 113.484 34.6883 113.484 42.5163Z" fill="#111111"/>
<path d="M137.429 42.5145C137.429 47.8954 133.062 52.2574 127.676 52.2574C122.289 52.2574 117.923 47.8954 117.923 42.5145C117.923 37.1337 122.289 32.7716 127.676 32.7716C133.062 32.7716 137.429 37.1337 137.429 42.5145Z" fill="#111111"/>
<path d="M14.1805 80.6001C19.567 80.6001 23.9336 76.2381 23.9336 70.8572C23.9336 65.4763 19.567 61.1143 14.1805 61.1143C8.79408 61.1143 4.4275 65.4763 4.4275 70.8572C4.4275 76.2381 8.79408 80.6001 14.1805 80.6001Z" fill="#111111"/>
<path d="M52.306 70.8572C52.306 76.2381 47.9394 80.6001 42.5529 80.6001C37.1664 80.6001 32.7999 76.2381 32.7999 70.8572C32.7999 65.4763 37.1664 61.1143 42.5529 61.1143C47.9394 61.1143 52.306 65.4763 52.306 70.8572Z" fill="#111111"/>
<path d="M70.9277 85.0284C78.7625 85.0284 85.1139 78.6836 85.1139 70.8569C85.1139 63.0302 78.7625 56.6854 70.9277 56.6854C63.0928 56.6854 56.7414 63.0302 56.7414 70.8569C56.7414 78.6836 63.0928 85.0284 70.9277 85.0284Z" fill="#111111"/>
<path d="M109.055 70.8572C109.055 76.2381 104.688 80.6001 99.3019 80.6001C93.9155 80.6001 89.5489 76.2381 89.5489 70.8572C89.5489 65.4763 93.9155 61.1143 99.3019 61.1143C104.688 61.1143 109.055 65.4763 109.055 70.8572Z" fill="#111111"/>
<path d="M127.676 80.6001C133.062 80.6001 137.429 76.2381 137.429 70.8572C137.429 65.4763 133.062 61.1143 127.676 61.1143C122.289 61.1143 117.923 65.4763 117.923 70.8572C117.923 76.2381 122.289 80.6001 127.676 80.6001Z" fill="#111111"/>
<path d="M23.9336 99.2002C23.9336 104.581 19.567 108.943 14.1805 108.943C8.79408 108.943 4.4275 104.581 4.4275 99.2002C4.4275 93.8194 8.79408 89.4573 14.1805 89.4573C19.567 89.4573 23.9336 93.8194 23.9336 99.2002Z" fill="#111111"/>
<path d="M42.5549 113.372C50.3898 113.372 56.7412 107.027 56.7412 99.2002C56.7412 91.3736 50.3898 85.0288 42.5549 85.0288C34.7201 85.0288 28.3687 91.3736 28.3687 99.2002C28.3687 107.027 34.7201 113.372 42.5549 113.372Z" fill="#111111"/>
<path d="M80.6773 99.2002C80.6773 104.58 76.3115 108.941 70.926 108.941C65.5405 108.941 61.1747 104.58 61.1747 99.2002C61.1747 93.8203 65.5405 89.4591 70.926 89.4591C76.3115 89.4591 80.6773 93.8203 80.6773 99.2002Z" fill="#111111"/>
<path d="M99.3019 108.943C104.688 108.943 109.055 104.581 109.055 99.2002C109.055 93.8194 104.688 89.4573 99.3019 89.4573C93.9155 89.4573 89.5489 93.8194 89.5489 99.2002C89.5489 104.581 93.9155 108.943 99.3019 108.943Z" fill="#111111"/>
<path d="M132.994 99.2006C132.994 102.136 130.612 104.515 127.674 104.515C124.736 104.515 122.354 102.136 122.354 99.2006C122.354 96.2656 124.736 93.8863 127.674 93.8863C130.612 93.8863 132.994 96.2656 132.994 99.2006Z" fill="#111111"/>
<path d="M14.1845 141.713C22.0183 141.713 28.3689 135.369 28.3689 127.544C28.3689 119.718 22.0183 113.374 14.1845 113.374C6.35061 113.374 0 119.718 0 127.544C0 135.369 6.35061 141.713 14.1845 141.713Z" fill="#111111"/>
<path d="M42.5564 137.283C47.9437 137.283 52.306 132.92 52.306 127.544C52.306 122.157 47.9437 117.801 42.5564 117.801C37.1674 117.801 32.7999 122.157 32.7999 127.544C32.7999 132.92 37.1657 137.283 42.5564 137.283Z" fill="#111111"/>
<path d="M70.926 137.285C76.3115 137.285 80.6773 132.923 80.6773 127.544C80.6773 122.164 76.3115 117.802 70.926 117.802C65.5405 117.802 61.1747 122.164 61.1747 127.544C61.1747 132.923 65.5405 137.285 70.926 137.285Z" fill="#111111"/>
<path d="M104.621 127.544C104.621 130.48 102.239 132.86 99.2998 132.86C96.3608 132.86 93.9782 130.48 93.9782 127.544C93.9782 124.608 96.3608 122.228 99.2998 122.228C102.239 122.228 104.621 124.608 104.621 127.544Z" fill="#111111"/>
<path d="M127.674 132.857C130.612 132.857 132.994 130.478 132.994 127.543C132.994 124.608 130.612 122.229 127.674 122.229C124.736 122.229 122.354 124.608 122.354 127.543C122.354 130.478 124.736 132.857 127.674 132.857Z" fill="#111111"/>
</svg>
