<svg width="281" height="60" viewBox="0 0 281 60" fill="none" xmlns="http://www.w3.org/2000/svg">
<path fill-rule="evenodd" clip-rule="evenodd" d="M51.1978 15.0421C53.9083 15.0421 56.1055 12.8471 56.1055 10.1395C56.1055 7.4319 53.9083 5.23694 51.1978 5.23694C48.4874 5.23694 46.2901 7.4319 46.2901 10.1395C46.2901 12.8471 48.4874 15.0421 51.1978 15.0421ZM44.7574 10.1389C44.7574 12.0002 43.247 13.509 41.3838 13.509C39.5206 13.509 38.0102 12.0002 38.0102 10.1389C38.0102 8.27765 39.5206 6.7688 41.3838 6.7688C43.247 6.7688 44.7574 8.27765 44.7574 10.1389ZM31.5685 13.5089C33.4313 13.5089 34.9415 12.0003 34.9415 10.1394C34.9415 8.27847 33.4313 6.7699 31.5685 6.7699C29.7056 6.7699 28.1955 8.27847 28.1955 10.1394C28.1955 12.0003 29.7056 13.5089 31.5685 13.5089ZM13.7808 10.1389C13.7808 11.1541 12.957 11.9771 11.9407 11.9771C10.9244 11.9771 10.1005 11.1541 10.1005 10.1389C10.1005 9.12367 10.9244 8.30066 11.9407 8.30066C12.957 8.30066 13.7808 9.12367 13.7808 10.1389ZM23.5949 10.1389C23.5949 11.1541 22.7711 11.9771 21.7548 11.9771C20.7385 11.9771 19.9146 11.1541 19.9146 10.1389C19.9146 9.12367 20.7385 8.30066 21.7548 8.30066C22.7711 8.30066 23.5949 9.12367 23.5949 10.1389ZM13.7808 19.9429C13.7808 20.9581 12.957 21.7811 11.9407 21.7811C10.9244 21.7811 10.1005 20.9581 10.1005 19.9429C10.1005 18.9276 10.9244 18.1046 11.9407 18.1046C12.957 18.1046 13.7808 18.9276 13.7808 19.9429ZM25.1277 19.9435C25.1277 21.8032 23.6188 23.3124 21.7553 23.3124C19.8906 23.3124 18.3805 21.8032 18.3805 19.9435C18.3805 18.0807 19.8913 16.5721 21.7553 16.5721C23.6188 16.5728 25.1277 18.0807 25.1277 19.9435ZM34.9415 19.9427C34.9415 21.8037 33.4313 23.3122 31.5685 23.3122C29.7056 23.3122 28.1955 21.8037 28.1955 19.9427C28.1955 18.0818 29.7056 16.5732 31.5685 16.5732C33.4313 16.5732 34.9415 18.0818 34.9415 19.9427ZM46.2896 19.9435C46.2896 22.65 44.0937 24.8442 41.385 24.8442C38.6738 24.8442 36.4761 22.65 36.4761 19.9435C36.4761 17.2351 38.6738 15.0397 41.385 15.0397C44.0937 15.0403 46.2896 17.2358 46.2896 19.9435ZM54.572 19.9429C54.572 21.8041 53.0616 23.313 51.1984 23.313C49.3352 23.313 47.8248 21.8041 47.8248 19.9429C47.8248 18.0816 49.3352 16.5728 51.1984 16.5728C53.0616 16.5728 54.572 18.0816 54.572 19.9429ZM11.94 33.1168C13.8032 33.1168 15.3136 31.608 15.3136 29.7467C15.3136 27.8854 13.8032 26.3766 11.94 26.3766C10.0768 26.3766 8.5664 27.8854 8.5664 29.7467C8.5664 31.608 10.0768 33.1168 11.94 33.1168ZM25.1277 29.7467C25.1277 31.608 23.6173 33.1168 21.7541 33.1168C19.8909 33.1168 18.3805 31.608 18.3805 29.7467C18.3805 27.8854 19.8909 26.3766 21.7541 26.3766C23.6173 26.3766 25.1277 27.8854 25.1277 29.7467ZM31.569 34.6485C34.2791 34.6485 36.4761 32.4539 36.4761 29.7466C36.4761 27.0393 34.2791 24.8446 31.569 24.8446C28.8589 24.8446 26.662 27.0393 26.662 29.7466C26.662 32.4539 28.8589 34.6485 31.569 34.6485ZM44.7574 29.7467C44.7574 31.608 43.247 33.1168 41.3838 33.1168C39.5206 33.1168 38.0102 31.608 38.0102 29.7467C38.0102 27.8854 39.5206 26.3766 41.3838 26.3766C43.247 26.3766 44.7574 27.8854 44.7574 29.7467ZM51.1984 33.1168C53.0616 33.1168 54.572 31.608 54.572 29.7467C54.572 27.8854 53.0616 26.3766 51.1984 26.3766C49.3352 26.3766 47.8248 27.8854 47.8248 29.7467C47.8248 31.608 49.3352 33.1168 51.1984 33.1168ZM15.3136 39.5506C15.3136 41.4119 13.8032 42.9208 11.94 42.9208C10.0768 42.9208 8.5664 41.4119 8.5664 39.5506C8.5664 37.6894 10.0768 36.1805 11.94 36.1805C13.8032 36.1805 15.3136 37.6894 15.3136 39.5506ZM21.7548 44.4526C24.4649 44.4526 26.6619 42.2579 26.6619 39.5507C26.6619 36.8434 24.4649 34.6487 21.7548 34.6487C19.0447 34.6487 16.8477 36.8434 16.8477 39.5507C16.8477 42.2579 19.0447 44.4526 21.7548 44.4526ZM34.9415 39.5506C34.9415 41.4116 33.4313 42.9201 31.5685 42.9201C29.7056 42.9201 28.1955 41.4116 28.1955 39.5506C28.1955 37.6897 29.7056 36.1812 31.5685 36.1812C33.4313 36.1812 34.9415 37.6897 34.9415 39.5506ZM41.3838 42.9208C43.247 42.9208 44.7574 41.4119 44.7574 39.5506C44.7574 37.6894 43.247 36.1805 41.3838 36.1805C39.5206 36.1805 38.0102 37.6894 38.0102 39.5506C38.0102 41.4119 39.5206 42.9208 41.3838 42.9208ZM53.038 39.5508C53.038 40.566 52.2141 41.389 51.1978 41.389C50.1815 41.389 49.3577 40.566 49.3577 39.5508C49.3577 38.5355 50.1815 37.7125 51.1978 37.7125C52.2141 37.7125 53.038 38.5355 53.038 39.5508ZM11.9414 54.2561C14.6511 54.2561 16.8478 52.0616 16.8478 49.3547C16.8478 46.6478 14.6511 44.4533 11.9414 44.4533C9.23161 44.4533 7.03491 46.6478 7.03491 49.3547C7.03491 52.0616 9.23161 54.2561 11.9414 54.2561ZM21.7553 52.7236C23.6188 52.7236 25.1277 51.2144 25.1277 49.3547C25.1277 47.4914 23.6188 45.9846 21.7553 45.9846C19.8913 45.9846 18.3805 47.4914 18.3805 49.3547C18.3805 51.2144 19.8906 52.7236 21.7553 52.7236ZM31.5685 52.7242C33.4313 52.7242 34.9415 51.2156 34.9415 49.3547C34.9415 47.4938 33.4313 45.9852 31.5685 45.9852C29.7056 45.9852 28.1955 47.4938 28.1955 49.3547C28.1955 51.2156 29.7056 52.7242 31.5685 52.7242ZM43.2238 49.3547C43.2238 50.3703 42.3997 51.1936 41.3831 51.1936C40.3665 51.1936 39.5423 50.3703 39.5423 49.3547C39.5423 48.3391 40.3665 47.5159 41.3831 47.5159C42.3997 47.5159 43.2238 48.3391 43.2238 49.3547ZM51.1978 51.1928C52.2141 51.1928 53.038 50.3698 53.038 49.3545C53.038 48.3393 52.2141 47.5163 51.1978 47.5163C50.1815 47.5163 49.3577 48.3393 49.3577 49.3545C49.3577 50.3698 50.1815 51.1928 51.1978 51.1928ZM133.789 38.5175L133.833 13.5469H130.079V39.3557C130.079 41.1204 130.55 42.4733 131.493 43.4145C132.464 44.3557 133.745 44.8263 135.335 44.8263C135.688 44.8263 136.115 44.7969 136.616 44.738C137.145 44.7086 137.646 44.6498 138.117 44.5616C138.618 44.4733 139 44.3704 139.265 44.2528L138.824 41.3851H136.748C135.806 41.3851 135.07 41.1498 134.54 40.6792C134.039 40.1792 133.789 39.4586 133.789 38.5175ZM81.0985 13.9881V26.4733H95.1425V13.9881H99.0289V44.4292H95.1425V29.8263H81.0985V44.4292H77.2121V13.9881H81.0985ZM115.147 22.4145C118.386 22.4145 120.727 23.0028 122.169 24.1792C123.641 25.3557 124.377 27.1057 124.377 29.4292C124.407 31.341 124.009 32.841 123.185 33.9292C122.361 34.9881 121.05 35.5175 119.254 35.5175H109.259C109.357 36.8028 109.554 37.8469 109.848 38.6498C110.319 39.8557 111.055 40.6792 112.056 41.1204C113.057 41.5616 114.382 41.7822 116.03 41.7822C117.179 41.7822 118.43 41.7381 119.784 41.6498C121.168 41.5322 122.405 41.3998 123.494 41.2528L123.892 43.7675C123.214 44.0322 122.375 44.2528 121.374 44.4292C120.403 44.6057 119.387 44.738 118.327 44.8263C117.296 44.9145 116.369 44.9586 115.545 44.9586C113.072 44.9586 111.084 44.591 109.583 43.8557C108.081 43.091 106.977 41.8851 106.27 40.238C105.593 38.5616 105.255 36.3557 105.255 33.6204C105.255 30.7969 105.593 28.5763 106.27 26.9586C106.977 25.3116 108.052 24.1498 109.494 23.4733C110.966 22.7675 112.851 22.4145 115.147 22.4145ZM118.283 32.6057H109.195C109.236 30.9554 109.409 29.6466 109.715 28.6792C110.098 27.5322 110.731 26.7381 111.614 26.2969C112.527 25.8263 113.763 25.591 115.324 25.591C117.238 25.591 118.592 25.8851 119.387 26.4733C120.182 27.0616 120.594 28.0469 120.623 29.4292C120.623 30.2233 120.476 30.9586 120.182 31.6351C119.887 32.2822 119.254 32.6057 118.283 32.6057ZM147.033 22.9439V44.4292H143.323V22.9439H147.033ZM146.061 13.8116C146.827 13.8116 147.209 14.1939 147.209 14.9586V17.4733C147.209 18.2381 146.827 18.6204 146.061 18.6204H144.294C143.529 18.6204 143.146 18.2381 143.146 17.4733V14.9586C143.146 14.1939 143.529 13.8116 144.294 13.8116H146.061ZM169.116 23.5175C167.644 22.7822 165.672 22.4145 163.199 22.4145C160.755 22.4145 158.782 22.7822 157.281 23.5175C155.809 24.2528 154.734 25.4586 154.057 27.1351C153.409 28.7822 153.085 30.9733 153.085 33.7086C153.085 36.4439 153.409 38.6498 154.057 40.3263C154.734 41.9733 155.809 43.1645 157.281 43.8998C158.782 44.6351 160.755 45.0028 163.199 45.0028C165.672 45.0028 167.644 44.6351 169.116 43.8998C170.618 43.1645 171.693 41.9733 172.34 40.3263C172.988 38.6498 173.312 36.4439 173.312 33.7086C173.312 30.9733 172.988 28.7822 172.34 27.1351C171.693 25.4586 170.618 24.2528 169.116 23.5175ZM159.489 26.341C160.402 25.841 161.638 25.591 163.199 25.591C164.759 25.591 165.996 25.841 166.908 26.341C167.821 26.8116 168.469 27.6351 168.851 28.8116C169.234 29.9881 169.426 31.6204 169.426 33.7086C169.426 35.7969 169.234 37.4292 168.851 38.6057C168.469 39.7822 167.821 40.6204 166.908 41.1204C165.996 41.591 164.759 41.8263 163.199 41.8263C161.638 41.8263 160.402 41.591 159.489 41.1204C158.606 40.6204 157.973 39.7822 157.59 38.6057C157.207 37.4292 157.016 35.7969 157.016 33.7086C157.016 31.6204 157.207 29.9881 157.59 28.8116C157.973 27.6351 158.606 26.8116 159.489 26.341ZM186.356 22.4145C187.298 22.4145 188.299 22.4439 189.359 22.5028C190.419 22.5616 191.464 22.6351 192.495 22.7233C193.555 22.8116 194.526 22.9292 195.41 23.0763L195.101 25.8116C193.746 25.7528 192.377 25.7086 190.993 25.6792C189.639 25.6204 188.285 25.591 186.93 25.591C185.605 25.5616 184.56 25.591 183.795 25.6792C183.029 25.7675 182.47 26.0028 182.116 26.3851C181.793 26.7675 181.631 27.4145 181.631 28.3263C181.631 29.4439 181.896 30.1792 182.426 30.5322C182.956 30.8851 183.736 31.1792 184.766 31.4145L191.037 32.8263C192.745 33.2381 193.996 33.8704 194.791 34.7233C195.616 35.5763 196.028 36.9145 196.028 38.7381C196.028 40.5028 195.689 41.8263 195.012 42.7086C194.364 43.591 193.363 44.1792 192.009 44.4733C190.655 44.7675 188.932 44.9145 186.842 44.9145C186.076 44.9145 184.928 44.8851 183.397 44.8263C181.896 44.7675 180.232 44.591 178.407 44.2969L178.672 41.5616C179.378 41.591 180.129 41.6351 180.924 41.6939C181.719 41.7233 182.543 41.7381 183.397 41.7381H186.091C187.71 41.7381 188.976 41.6645 189.889 41.5175C190.802 41.3704 191.45 41.091 191.832 40.6792C192.215 40.2381 192.407 39.591 192.407 38.7381C192.407 37.6792 192.097 36.9733 191.479 36.6204C190.861 36.2675 190.036 35.9733 189.006 35.7381L182.823 34.3263C181.645 34.0322 180.703 33.6498 179.997 33.1792C179.29 32.6792 178.775 32.0469 178.451 31.2822C178.127 30.4881 177.965 29.5028 177.965 28.3263C177.965 26.6498 178.259 25.3851 178.848 24.5322C179.437 23.6792 180.35 23.1057 181.586 22.8116C182.823 22.5175 184.413 22.3851 186.356 22.4145ZM219.603 25.3263C218.455 23.3851 216.57 22.4145 213.95 22.4145C212.89 22.4145 211.801 22.591 210.682 22.9439C209.593 23.2675 208.547 23.7381 207.546 24.3557C206.618 24.9287 205.778 25.603 205.026 26.3786L204.72 22.9439H201.628V53.2969H205.382V47.0763C205.382 46.2233 205.368 45.4145 205.338 44.6498C205.338 44.0373 205.31 43.4059 205.253 42.7556C206.477 43.4816 207.727 44.0248 209.004 44.3851C210.388 44.7675 211.786 44.9586 213.199 44.9586C215.054 44.9586 216.57 44.6057 217.748 43.8998C218.955 43.1939 219.853 42.0322 220.442 40.4145C221.031 38.7675 221.325 36.5616 221.325 33.7969C221.325 30.0616 220.751 27.2381 219.603 25.3263ZM205.382 40.407C206.712 40.7734 207.889 41.0848 208.915 41.341C209.975 41.5763 211.094 41.6939 212.272 41.6939C213.538 41.6939 214.539 41.4733 215.275 41.0322C216.04 40.591 216.6 39.7969 216.953 38.6498C217.307 37.5028 217.483 35.8851 217.483 33.7969C217.483 31.7675 217.321 30.1645 216.997 28.9881C216.673 27.8116 216.158 26.9733 215.452 26.4733C214.774 25.9439 213.862 25.6792 212.714 25.6792C211.536 25.6792 210.373 25.9586 209.225 26.5175C208.121 27.0547 206.84 27.8637 205.382 28.9446V40.407ZM237.404 22.4145C238.994 22.4145 240.334 22.6351 241.423 23.0763C242.542 23.4881 243.381 24.1939 243.941 25.1939C244.5 26.1939 244.78 27.5616 244.78 29.2969V44.4292H241.821L241.381 40.8452C241.182 41.0431 240.961 41.2525 240.717 41.4733C240.128 42.0028 239.406 42.5322 238.553 43.0616C237.728 43.5616 236.801 43.9881 235.77 44.341C234.769 44.6645 233.68 44.8263 232.502 44.8263C231.236 44.8263 230.117 44.6057 229.146 44.1645C228.174 43.6939 227.409 43.0175 226.849 42.1351C226.319 41.2233 226.054 40.1204 226.054 38.8263V36.4881C226.054 34.8116 226.57 33.5175 227.6 32.6057C228.66 31.6645 230.132 31.1939 232.016 31.1939H240.982V29.2969C240.982 27.9733 240.672 27.0322 240.054 26.4733C239.465 25.8851 238.317 25.591 236.609 25.591C235.491 25.591 234.077 25.6498 232.37 25.7675C230.692 25.8851 229.028 26.0175 227.379 26.1645L227.026 23.3851C228.027 23.2086 229.116 23.0469 230.294 22.8998C231.501 22.7528 232.723 22.6351 233.96 22.5469C235.196 22.4586 236.344 22.4145 237.404 22.4145ZM240.982 34.026V38.3945C240.423 38.8927 239.834 39.3308 239.215 39.7086C238.155 40.3557 237.095 40.841 236.035 41.1645C235.005 41.4586 234.077 41.6057 233.253 41.6057C232.075 41.6057 231.221 41.3557 230.692 40.8557C230.162 40.3263 229.897 39.5028 229.897 38.3851V37.0175C229.897 36.1057 230.103 35.3998 230.515 34.8998C230.927 34.3704 231.648 34.091 232.679 34.0616L240.982 34.026ZM270.387 28.3263C270.387 24.3851 268.444 22.4145 264.557 22.4145C262.938 22.4145 261.304 22.7822 259.655 23.5175C258.09 24.1876 256.511 25.1229 254.919 26.3233L254.665 22.9439H251.485V44.4292H255.239V28.9666C256.896 27.9629 258.339 27.1612 259.567 26.5616C260.892 25.9145 262.217 25.591 263.542 25.591C264.66 25.591 265.455 25.8704 265.926 26.4292C266.398 26.9586 266.633 27.9439 266.633 29.3851V44.4292H270.387V28.3263Z" fill="#111111"/>
</svg>
