<svg width="194" height="51" viewBox="0 0 194 51" fill="none" xmlns="http://www.w3.org/2000/svg">
<path d="M75.7654 0.176574V30.6569H71.8781V0.176574H75.7654Z" fill="black"/>
<path d="M86.399 9.14399L86.885 13.2522L87.2384 13.9148V30.6569H83.4835V9.14399H86.399ZM96.9567 8.61389L96.515 12.1478H95.2781C94.0118 12.1478 92.7454 12.4129 91.4791 12.943C90.2128 13.4436 88.6667 14.1651 86.8408 15.1075L86.5316 12.7663C88.1219 11.4705 89.7121 10.4545 91.3024 9.71825C92.9221 8.98201 94.483 8.61389 95.9849 8.61389H96.9567Z" fill="black"/>
<path d="M105.543 9.14399V30.6569H101.832V9.14399H105.543ZM104.571 -0.00012207C105.337 -0.00012207 105.719 0.382722 105.719 1.14841V3.66636C105.719 4.43205 105.337 4.81489 104.571 4.81489H102.804C102.038 4.81489 101.655 4.43205 101.655 3.66636V1.14841C101.655 0.382722 102.038 -0.00012207 102.804 -0.00012207H104.571Z" fill="black"/>
<path d="M120.211 8.61389C121.153 8.61389 122.154 8.64334 123.215 8.70224C124.275 8.76114 125.32 8.83477 126.351 8.92311C127.411 9.01146 128.383 9.12926 129.267 9.27651L128.957 12.0153C127.603 11.9564 126.233 11.9123 124.849 11.8828C123.494 11.8239 122.14 11.7945 120.785 11.7945C119.46 11.765 118.414 11.7945 117.649 11.8828C116.883 11.9712 116.323 12.2067 115.97 12.5896C115.646 12.9724 115.484 13.6203 115.484 14.5333C115.484 15.6524 115.749 16.3886 116.279 16.742C116.809 17.0954 117.59 17.3899 118.621 17.6255L124.893 19.0391C126.601 19.4514 127.853 20.0845 128.648 20.9386C129.473 21.7926 129.885 23.1326 129.885 24.9584C129.885 26.7254 129.546 28.0506 128.869 28.9341C128.221 29.8176 127.22 30.4066 125.865 30.7011C124.51 30.9956 122.788 31.1429 120.697 31.1429C119.931 31.1429 118.782 31.1134 117.251 31.0545C115.749 30.9956 114.085 30.8189 112.259 30.5244L112.524 27.7856C113.231 27.8151 113.982 27.8592 114.777 27.9181C115.572 27.9476 116.397 27.9623 117.251 27.9623C118.135 27.9623 119.033 27.9623 119.946 27.9623C121.565 27.9623 122.832 27.8887 123.745 27.7414C124.658 27.5942 125.306 27.3144 125.688 26.9021C126.071 26.4604 126.263 25.8125 126.263 24.9584C126.263 23.8982 125.953 23.1915 125.335 22.8381C124.717 22.4847 123.892 22.1902 122.861 21.9546L116.677 20.541C115.499 20.2465 114.556 19.8637 113.85 19.3925C113.143 18.8918 112.628 18.2586 112.304 17.493C111.98 16.6978 111.818 15.7113 111.818 14.5333C111.818 12.8546 112.112 11.5883 112.701 10.7343C113.29 9.88023 114.203 9.30596 115.44 9.01146C116.677 8.71697 118.267 8.58444 120.211 8.61389Z" fill="black"/>
<path d="M25.5635 21.1149C27.9814 21.1149 29.9486 23.0821 29.9486 25.5001C29.9486 27.918 27.9814 29.8852 25.5635 29.8852C23.1456 29.8852 21.1784 27.918 21.1784 25.5001C21.1784 23.0821 23.1456 21.1149 25.5635 21.1149ZM25.5635 17.9245C21.3796 17.9245 17.988 21.3163 17.988 25.5001C17.988 29.6839 21.3796 33.0756 25.5635 33.0756C29.7474 33.0756 33.1391 29.684 33.1391 25.5001C33.1391 21.3162 29.7473 17.9245 25.5635 17.9245Z" fill="black"/>
<path d="M24.7595 16.6372L24.4814 13.4592C23.7702 13.5206 23.0766 13.6435 22.4059 13.8228L23.2313 16.9035C23.7284 16.7712 24.2394 16.6818 24.7595 16.6372Z" fill="black"/>
<path d="M21.775 17.4368L20.4268 14.5456C19.7795 14.8466 19.1698 15.1993 18.6009 15.5972L20.4303 18.2097C20.8521 17.9153 21.3015 17.6567 21.775 17.4368Z" fill="black"/>
<path d="M19.2439 19.2092L16.9882 16.9534C16.4828 17.4576 16.0305 17.9976 15.6319 18.566L18.2445 20.3953C18.5402 19.9745 18.8742 19.5776 19.2439 19.2092Z" fill="black"/>
<path d="M17.4717 21.7402L14.5804 20.392C14.278 21.0387 14.0377 21.7008 13.8576 22.3712L16.9382 23.1967C17.0721 22.7 17.2502 22.2129 17.4717 21.7402Z" fill="black"/>
<path d="M16.672 24.7246L13.494 24.4465C13.431 25.1577 13.4317 25.8621 13.4917 26.5537L16.669 26.2757C16.625 25.7632 16.6256 25.2445 16.672 24.7246Z" fill="black"/>
<path d="M16.9413 27.8026L13.8599 28.6283C14.0439 29.3181 14.2855 29.9798 14.5784 30.6091L17.4689 29.2613C17.2523 28.7947 17.0756 28.3071 16.9413 27.8026Z" fill="black"/>
<path d="M18.2472 30.603L15.634 32.4327C16.0428 33.018 16.496 33.5572 16.9866 34.0484L19.2418 31.7931C18.8787 31.4288 18.5459 31.0311 18.2472 30.603Z" fill="black"/>
<path d="M20.4319 32.7879L18.6022 35.4011C19.1865 35.8112 19.7968 36.1628 20.4258 36.4566L21.7737 33.5661C21.3078 33.3479 20.8591 33.088 20.4319 32.7879Z" fill="black"/>
<path d="M23.2322 34.0936L22.4066 37.175C23.0959 37.3605 23.7897 37.4822 24.4813 37.5432L24.7592 34.3659C24.2469 34.3202 23.7362 34.2296 23.2322 34.0936Z" fill="black"/>
<path d="M26.3103 34.3629L26.5883 37.5409C27.2995 37.4795 27.9931 37.3566 28.6638 37.1773L27.8384 34.0966C27.3413 34.2289 26.8304 34.3183 26.3103 34.3629Z" fill="black"/>
<path d="M29.2948 33.5632L30.643 36.4544C31.2903 36.1534 31.9 35.8007 32.469 35.4029L30.6396 32.7903C30.2177 33.0847 29.7684 33.3434 29.2948 33.5632Z" fill="black"/>
<path d="M31.8258 31.7909L34.0816 34.0467C34.587 33.5425 35.0393 33.0025 35.4378 32.4341L32.8253 30.6048C32.5295 31.0256 32.1956 31.4225 31.8258 31.7909Z" fill="black"/>
<path d="M33.598 29.2599L36.4893 30.6081C36.7917 29.9614 37.032 29.2993 37.2121 28.6288L34.1315 27.8034C33.9976 28.3001 33.8195 28.7872 33.598 29.2599Z" fill="black"/>
<path d="M34.3978 26.2754L37.5758 26.5534C37.6388 25.8423 37.6381 25.1379 37.5781 24.4463L34.4008 24.7243C34.4448 25.2368 34.4442 25.7554 34.3978 26.2754Z" fill="black"/>
<path d="M34.1285 23.1974L37.2099 22.3717C37.0259 21.6819 36.7843 21.0202 36.4914 20.3908L33.6009 21.7387C33.8175 22.2053 33.9942 22.6929 34.1285 23.1974Z" fill="black"/>
<path d="M32.8227 20.3971L35.4359 18.5673C35.027 17.982 34.5738 17.4429 34.0832 16.9517L31.828 19.2069C32.1911 19.5713 32.524 19.9689 32.8227 20.3971Z" fill="black"/>
<path d="M30.6378 18.2123L32.4676 15.5991C31.8833 15.189 31.2729 14.8373 30.644 14.5436L29.2961 17.4341C29.762 17.6522 30.2107 17.9121 30.6378 18.2123Z" fill="black"/>
<path d="M27.8375 16.9064L28.6632 13.8251C27.9739 13.6395 27.2801 13.5178 26.5885 13.4569L26.3105 16.6341C26.8229 16.6798 27.3335 16.7704 27.8375 16.9064Z" fill="black"/>
<path d="M24.5011 13.6844L24.2231 10.5065C23.3374 10.583 22.4738 10.7361 21.6386 10.9593L22.464 14.0395C23.1267 13.8631 23.8077 13.7439 24.5011 13.6844Z" fill="black"/>
<path d="M20.5223 14.7505L19.1742 11.8594C18.3681 12.2342 17.6089 12.6734 16.9004 13.1688L18.7295 15.7809C19.2919 15.3885 19.8911 15.0436 20.5223 14.7505Z" fill="black"/>
<path d="M17.1481 17.1132L14.8924 14.8575C14.2631 15.4853 13.6999 16.1577 13.2036 16.8655L15.8158 18.6945C16.21 18.1334 16.6552 17.6045 17.1481 17.1132Z" fill="black"/>
<path d="M14.7854 20.4874L11.8943 19.1392C11.5177 19.9445 11.2184 20.769 10.9942 21.6038L14.0744 22.4291C14.253 21.7669 14.4902 21.1176 14.7854 20.4874Z" fill="black"/>
<path d="M13.7193 24.4662L10.5414 24.1881C10.4629 25.0736 10.4637 25.9508 10.5385 26.8119L13.7152 26.534C13.6566 25.8507 13.6575 25.1594 13.7193 24.4662Z" fill="black"/>
<path d="M14.0783 28.5697L10.997 29.3953C11.2261 30.2543 11.5268 31.0782 11.8916 31.8619L14.7817 30.5143C14.4928 29.8923 14.2573 29.2422 14.0783 28.5697Z" fill="black"/>
<path d="M15.8192 32.303L13.2061 34.1327C13.7152 34.8615 14.2795 35.5329 14.8904 36.1445L17.1452 33.8897C16.6611 33.4039 16.2175 32.8738 15.8192 32.303Z" fill="black"/>
<path d="M18.7319 35.2157L16.9022 37.8288C17.6298 38.3395 18.3898 38.7774 19.173 39.1432L20.5207 36.2531C19.8996 35.9622 19.3013 35.6158 18.7319 35.2157Z" fill="black"/>
<path d="M22.4651 36.9565L21.6394 40.0379C22.4978 40.269 23.3617 40.4205 24.2228 40.4964L24.5007 37.3197C23.8176 37.2588 23.137 37.1378 22.4651 36.9565Z" fill="black"/>
<path d="M26.5686 37.3155L26.8466 40.4934C27.7323 40.4169 28.5959 40.2638 29.4311 40.0406L28.6057 36.9604C27.943 37.1368 27.262 37.256 26.5686 37.3155Z" fill="black"/>
<path d="M30.5474 36.2494L31.8956 39.1405C32.7016 38.7657 33.4609 38.3265 34.1693 37.8311L32.3402 35.2189C31.7778 35.6114 31.1786 35.9563 30.5474 36.2494Z" fill="black"/>
<path d="M33.9216 33.8867L36.1773 36.1424C36.8066 35.5145 37.3698 34.8421 37.8661 34.1343L35.2539 32.3053C34.8596 32.8664 34.4145 33.3953 33.9216 33.8867Z" fill="black"/>
<path d="M36.2842 30.5125L39.1754 31.8607C39.552 31.0554 39.8513 30.231 40.0755 29.3961L36.9953 28.5708C36.8167 29.233 36.5794 29.8823 36.2842 30.5125Z" fill="black"/>
<path d="M37.3504 26.5336L40.5283 26.8117C40.6068 25.9262 40.606 25.049 40.5312 24.1879L37.3545 24.4658C37.4131 25.1491 37.4122 25.8403 37.3504 26.5336Z" fill="black"/>
<path d="M36.9914 22.4301L40.0728 21.6044C39.8436 20.7455 39.5429 19.9215 39.1781 19.1378L36.2881 20.4854C36.5769 21.1075 36.8124 21.7575 36.9914 22.4301Z" fill="black"/>
<path d="M35.2506 18.6969L37.8637 16.8672C37.3545 16.1384 36.7902 15.467 36.1794 14.8554L33.9245 17.1102C34.4087 17.596 34.8523 18.1261 35.2506 18.6969Z" fill="black"/>
<path d="M32.3378 15.7843L34.1675 13.1712C33.4399 12.6605 32.6799 12.2226 31.8967 11.8568L30.549 14.7468C31.1701 15.0377 31.7684 15.3841 32.3378 15.7843Z" fill="black"/>
<path d="M28.6046 14.0434L29.4303 10.962C28.5719 10.731 27.7079 10.5794 26.8468 10.5036L26.5689 13.6803C27.252 13.7411 27.9326 13.8621 28.6046 14.0434Z" fill="black"/>
<path d="M24.2407 10.7118L23.9627 7.53402C22.9012 7.62574 21.8661 7.80919 20.8653 8.07679L21.6905 11.1564C22.5202 10.9355 23.3726 10.7863 24.2407 10.7118Z" fill="black"/>
<path d="M19.261 12.0464L17.9129 9.15535C16.9467 9.60456 16.0369 10.131 15.1879 10.7247L17.0166 13.3364C17.7206 12.8451 18.4707 12.4133 19.261 12.0464Z" fill="black"/>
<path d="M15.038 15.0035L12.7823 12.7479C12.0281 13.5004 11.3532 14.3063 10.7584 15.1547L13.3701 16.9834C13.8636 16.2809 14.4209 15.6185 15.038 15.0035Z" fill="black"/>
<path d="M12.081 19.2267L9.18998 17.8786C8.73861 18.8437 8.38001 19.8318 8.1113 20.8324L11.1909 21.6576C11.4144 20.8287 11.7115 20.0157 12.081 19.2267Z" fill="black"/>
<path d="M10.7468 24.2064L7.56899 23.9284C7.47495 24.9897 7.47591 26.0408 7.56564 27.073L10.7418 26.7951C10.6683 25.9397 10.6694 25.0742 10.7468 24.2064Z" fill="black"/>
<path d="M11.1963 29.3423L8.11496 30.1679C8.38958 31.1973 8.75001 32.1848 9.18734 33.1241L12.0769 31.7767C11.7153 30.998 11.4203 30.1843 11.1963 29.3423Z" fill="black"/>
<path d="M13.3752 34.0146L10.7621 35.8443C11.3723 36.7178 12.0488 37.5224 12.7809 38.2554L15.0353 36.001C14.4292 35.3929 13.8738 34.7292 13.3752 34.0146Z" fill="black"/>
<path d="M17.0207 37.6601L15.191 40.2731C16.0631 40.8852 16.974 41.4099 17.9127 41.8483L19.2601 38.9587C18.4826 38.5947 17.7335 38.1611 17.0207 37.6601Z" fill="black"/>
<path d="M21.6931 39.8386L20.8675 42.9199C21.8964 43.1968 22.9317 43.3784 23.9638 43.4693L24.2417 40.2932C23.3865 40.217 22.5344 40.0655 21.6931 39.8386Z" fill="black"/>
<path d="M26.8289 40.2878L27.107 43.4656C28.1684 43.3739 29.2036 43.1905 30.2044 42.9229L29.3792 39.8433C28.5495 40.0642 27.6971 40.2133 26.8289 40.2878Z" fill="black"/>
<path d="M31.8087 38.9534L33.1569 41.8445C34.123 41.3953 35.0328 40.8689 35.8819 40.2751L34.0531 37.6635C33.3491 38.1548 32.599 38.5865 31.8087 38.9534Z" fill="black"/>
<path d="M36.0317 35.9963L38.2873 38.2519C39.0416 37.4994 39.7165 36.6935 40.3113 35.8451L37.6996 34.0164C37.206 34.7189 36.6488 35.3813 36.0317 35.9963Z" fill="black"/>
<path d="M38.9887 31.7731L41.8797 33.1212C42.3311 32.1561 42.6897 31.168 42.9584 30.1674L39.8788 29.3422C39.6553 30.1712 39.3582 30.9842 38.9887 31.7731Z" fill="black"/>
<path d="M40.3229 26.7933L43.5007 27.0713C43.5947 26.01 43.5938 24.9589 43.504 23.9267L40.3279 24.2046C40.4014 25.06 40.4002 25.9255 40.3229 26.7933Z" fill="black"/>
<path d="M39.8734 21.6576L42.9547 20.832C42.6801 19.8026 42.3197 18.8151 41.8823 17.8759L38.9928 19.2233C39.3544 20.002 39.6494 20.8157 39.8734 21.6576Z" fill="black"/>
<path d="M37.6946 16.9852L40.3076 15.1555C39.6974 14.282 39.021 13.4774 38.2888 12.7444L36.0344 14.9988C36.6405 15.6069 37.196 16.2706 37.6946 16.9852Z" fill="black"/>
<path d="M34.049 13.3398L35.8787 10.7268C35.0066 10.1147 34.0958 9.58998 33.1571 9.15162L31.8097 12.0412C32.5872 12.4052 33.3362 12.8389 34.049 13.3398Z" fill="black"/>
<path d="M29.3766 11.1611L30.2022 8.07981C29.1733 7.80296 28.138 7.62134 27.1059 7.53042L26.828 10.7066C27.6832 10.7827 28.5353 10.9342 29.3766 11.1611Z" fill="black"/>
<path d="M11.846 11.8111C13.6249 10.0322 15.6956 8.63596 18.0004 7.66105C20.385 6.65248 22.9199 6.14106 25.5348 6.14106V2.95065C17.1892 2.95065 9.90297 7.48478 6.00381 14.2237L8.76559 15.8183C9.60826 14.3604 10.6388 13.0184 11.846 11.8111Z" fill="black"/>
<path d="M20.5244 44.1992C18.0944 43.548 15.8498 42.453 13.8531 40.9443C11.7873 39.3835 10.077 37.4439 8.76961 35.1793L6.00663 36.7746C10.1795 44.0021 17.7493 48.045 25.5349 48.0523V44.8633C23.8509 44.8625 22.1736 44.6411 20.5244 44.1992Z" fill="black"/>
<path d="M44.2341 20.4895C44.8853 22.9196 45.0591 25.411 44.7509 27.8945C44.4321 30.4639 43.6075 32.9149 42.3001 35.1795L45.0631 36.7747C49.2359 29.5471 48.9523 20.9701 45.0658 14.2238L42.3041 15.8184C43.1454 17.2771 43.7922 18.8404 44.2341 20.4895Z" fill="black"/>
<path d="M23.493 4.7688L23.181 1.60064C22.6564 1.65169 22.137 1.72036 21.6228 1.80459L22.1413 4.94531C22.589 4.87217 23.0395 4.81267 23.493 4.7688Z" fill="black"/>
<path d="M20.8046 5.21269L20.0817 2.11241C19.5682 2.23149 19.0622 2.36733 18.5634 2.51799L19.4874 5.5642C19.9217 5.43323 20.3605 5.31543 20.8046 5.21269Z" fill="black"/>
<path d="M18.197 6.00366L17.0756 3.02421C16.5821 3.20933 16.0982 3.41009 15.6233 3.62457L16.937 6.52409C17.3505 6.33761 17.7702 6.16334 18.197 6.00366Z" fill="black"/>
<path d="M15.7151 7.12817L14.2144 4.32061C13.7492 4.5685 13.2956 4.83075 12.8528 5.10537L14.5337 7.8086C14.9193 7.56972 15.3128 7.34232 15.7151 7.12817Z" fill="black"/>
<path d="M13.4011 8.56715L11.5468 5.97949C11.118 6.286 10.7025 6.6052 10.2993 6.93525L12.3188 9.39594C12.6699 9.1088 13.0302 8.83195 13.4011 8.56715Z" fill="black"/>
<path d="M11.2946 10.2958L9.11845 7.9723C8.73328 8.33218 8.36304 8.70282 8.00635 9.08272L10.3297 11.2587C10.6403 10.9282 10.9615 10.6067 11.2946 10.2958Z" fill="black"/>
<path d="M9.43204 12.2846L6.9712 10.2651C6.63629 10.6722 6.31756 11.088 6.0136 11.5112L8.6011 13.3654C8.86591 12.9971 9.14235 12.6364 9.43204 12.2846Z" fill="black"/>
<path d="M7.84481 14.4995L5.14141 12.8184C4.86257 13.2657 4.6008 13.7196 4.35466 14.1788L7.16206 15.6794C7.37653 15.2797 7.60345 14.886 7.84481 14.4995Z" fill="black"/>
<path d="M6.56033 16.9027L3.66064 15.5889C3.4425 16.0688 3.2423 16.5529 3.05813 17.0404L6.03734 18.1617C6.19781 17.7374 6.37145 17.3175 6.56033 16.9027Z" fill="black"/>
<path d="M5.6004 19.4529L2.55403 18.5288C2.40042 19.033 2.26506 19.5392 2.14614 20.0464L5.24618 20.7693C5.34987 20.3278 5.46736 19.8887 5.6004 19.4529Z" fill="black"/>
<path d="M4.98172 22.1067L1.84076 21.5881C1.7543 22.108 1.68618 22.6275 1.6345 23.146L4.80242 23.458C4.84764 23.0068 4.90666 22.5561 4.98172 22.1067Z" fill="black"/>
<path d="M4.71461 24.8184L1.53281 24.7142C1.51495 25.241 1.51519 25.765 1.53162 26.2857L4.71317 26.1816C4.69906 25.7282 4.6989 25.2737 4.71461 24.8184Z" fill="black"/>
<path d="M4.80375 27.5418L1.63559 27.8538C1.68664 28.3785 1.75531 28.8979 1.83954 29.412L4.98026 28.8935C4.90712 28.4459 4.84762 27.9953 4.80375 27.5418Z" fill="black"/>
<path d="M5.24764 30.2303L2.14736 30.9531C2.26644 31.4666 2.40227 31.9726 2.55294 32.4715L5.59915 31.5474C5.46818 31.1131 5.35037 30.6743 5.24764 30.2303Z" fill="black"/>
<path d="M6.0386 32.8379L3.05916 33.9592C3.24428 34.4528 3.44504 34.9367 3.65951 35.4116L6.55904 34.0978C6.37256 33.6844 6.19828 33.2647 6.0386 32.8379Z" fill="black"/>
<path d="M7.16318 35.3198L4.35562 36.8205C4.60351 37.2857 4.86577 37.7393 5.14038 38.1821L7.84362 36.5011C7.60473 36.1156 7.37734 35.722 7.16318 35.3198Z" fill="black"/>
<path d="M8.6021 37.6338L6.01443 39.4881C6.32095 39.9168 6.64015 40.3324 6.9702 40.7355L9.43089 38.716C9.14375 38.3649 8.8669 38.0047 8.6021 37.6338Z" fill="black"/>
<path d="M10.3307 39.7402L8.00725 41.9164C8.36713 42.3015 8.73777 42.6718 9.11767 43.0285L11.2937 40.7051C10.9632 40.3945 10.6417 40.0733 10.3307 39.7402Z" fill="black"/>
<path d="M12.3196 41.6029L10.3001 44.0637C10.7071 44.3986 11.1229 44.7174 11.5461 45.0213L13.4003 42.4338C13.0321 42.169 12.6713 41.8926 12.3196 41.6029Z" fill="black"/>
<path d="M14.5345 43.1901L12.8534 45.8935C13.3007 46.1723 13.7545 46.4341 14.2138 46.6802L15.7144 43.8728C15.3147 43.6584 14.921 43.4314 14.5345 43.1901Z" fill="black"/>
<path d="M16.9376 44.4746L15.6238 47.3743C16.1036 47.5924 16.5878 47.7926 17.0753 47.9768L18.1966 44.9976C17.7723 44.8371 17.3524 44.6634 16.9376 44.4746Z" fill="black"/>
<path d="M19.4878 45.4345L18.5637 48.4808C19.068 48.6344 19.5741 48.7698 20.0814 48.8887L20.8043 45.7887C20.3627 45.685 19.9236 45.5675 19.4878 45.4345Z" fill="black"/>
<path d="M22.1415 46.0532L21.6229 49.1942C22.1428 49.2806 22.6623 49.3487 23.1808 49.4004L23.4929 46.2325C23.0416 46.1873 22.5909 46.1283 22.1415 46.0532Z" fill="black"/>
<path d="M24.8533 46.3202L24.7491 49.502C25.2759 49.5198 25.7999 49.5196 26.3206 49.5032L26.2165 46.3216C25.7631 46.3357 25.3086 46.3359 24.8533 46.3202Z" fill="black"/>
<path d="M27.5767 46.2311L27.8887 49.3993C28.4134 49.3482 28.9328 49.2796 29.4469 49.1953L28.9284 46.0546C28.4808 46.1278 28.0302 46.1873 27.5767 46.2311Z" fill="black"/>
<path d="M30.2652 45.7872L30.988 48.8875C31.5015 48.7684 32.0075 48.6326 32.5063 48.4819L31.5823 45.4357C31.148 45.5667 30.7092 45.6845 30.2652 45.7872Z" fill="black"/>
<path d="M32.8727 44.9963L33.9941 47.9757C34.4877 47.7906 34.9716 47.5899 35.4464 47.3754L34.1327 44.4759C33.7192 44.6623 33.2995 44.8366 32.8727 44.9963Z" fill="black"/>
<path d="M35.3548 43.8716L36.8554 46.6792C37.3206 46.4313 37.7742 46.169 38.217 45.8944L36.5361 43.1912C36.1505 43.43 35.757 43.6574 35.3548 43.8716Z" fill="black"/>
<path d="M37.6687 42.4328L39.5229 45.0205C39.9517 44.714 40.3673 44.3948 40.7704 44.0647L38.7509 41.604C38.3998 41.8912 38.0396 42.168 37.6687 42.4328Z" fill="black"/>
<path d="M39.7751 40.7042L41.9513 43.0277C42.3364 42.6678 42.7067 42.2971 43.0633 41.9172L40.74 39.7412C40.4294 40.0717 40.1082 40.3933 39.7751 40.7042Z" fill="black"/>
<path d="M41.6378 38.7154L44.0986 40.7349C44.4335 40.3278 44.7522 39.912 45.0562 39.4888L42.4687 37.6346C42.2039 38.0029 41.9274 38.3636 41.6378 38.7154Z" fill="black"/>
<path d="M43.225 36.5004L45.9284 38.1815C46.2072 37.7342 46.469 37.2803 46.7151 36.8211L43.9077 35.3205C43.6932 35.7201 43.4663 36.1138 43.225 36.5004Z" fill="black"/>
<path d="M44.5095 34.0973L47.4091 35.4111C47.6273 34.9313 47.8275 34.4471 48.0116 33.9596L45.0324 32.8384C44.872 33.2626 44.6983 33.6826 44.5095 34.0973Z" fill="black"/>
<path d="M45.4693 31.547L48.5157 32.4711C48.6693 31.9668 48.8047 31.4607 48.9236 30.9534L45.8236 30.2305C45.7199 30.6721 45.6024 31.1112 45.4693 31.547Z" fill="black"/>
<path d="M46.0881 28.8933L49.2291 29.4119C49.3155 28.892 49.3836 28.3725 49.4353 27.854L46.2674 27.5419C46.2222 27.9932 46.1631 28.4439 46.0881 28.8933Z" fill="black"/>
<path d="M46.3551 26.1816L49.5369 26.2857C49.5548 25.7589 49.5545 25.235 49.5381 24.7142L46.3565 24.8184C46.3707 25.2718 46.3708 25.7262 46.3551 26.1816Z" fill="black"/>
<path d="M46.266 23.4582L49.4342 23.1461C49.3831 22.6215 49.3145 22.1021 49.2302 21.5879L46.0895 22.1065C46.1626 22.5541 46.2221 23.0046 46.266 23.4582Z" fill="black"/>
<path d="M45.8222 20.7697L48.9225 20.0468C48.8034 19.5333 48.6676 19.0273 48.5169 18.5285L45.4707 19.4525C45.6017 19.8868 45.7195 20.3257 45.8222 20.7697Z" fill="black"/>
<path d="M45.0312 18.1621L48.0106 17.0408C47.8255 16.5472 47.6247 16.0633 47.4103 15.5884L44.5107 16.9021C44.6972 17.3156 44.8715 17.7353 45.0312 18.1621Z" fill="black"/>
<path d="M43.9065 15.6801L46.7141 14.1794C46.4662 13.7142 46.204 13.2606 45.9293 12.8178L43.2261 14.4987C43.465 14.8843 43.6924 15.2778 43.9065 15.6801Z" fill="black"/>
<path d="M42.4677 13.366L45.0554 11.5118C44.7489 11.083 44.4296 10.6674 44.0996 10.2643L41.6389 12.2838C41.9261 12.6349 42.2029 12.9952 42.4677 13.366Z" fill="black"/>
<path d="M40.739 11.2597L43.0625 9.0835C42.7027 8.69833 42.332 8.32809 41.9521 7.9714L39.7761 10.2947C40.1066 10.6053 40.4281 10.9265 40.739 11.2597Z" fill="black"/>
<path d="M38.7502 9.39716L40.7698 6.93632C40.3627 6.6014 39.9469 6.28268 39.5237 5.97871L37.6695 8.56622C38.0377 8.83102 38.3985 9.10747 38.7502 9.39716Z" fill="black"/>
<path d="M36.5352 7.80986L38.2163 5.10646C37.769 4.82762 37.3152 4.56585 36.8559 4.31971L35.3553 7.12711C35.755 7.34158 36.1487 7.5685 36.5352 7.80986Z" fill="black"/>
<path d="M34.1322 6.52538L35.446 3.62569C34.9662 3.40755 34.482 3.20735 33.9945 3.02318L32.8733 6.00239C33.2975 6.16286 33.7174 6.3365 34.1322 6.52538Z" fill="black"/>
<path d="M31.5819 5.56551L32.506 2.51915C32.0018 2.36553 31.4956 2.23018 30.9884 2.11125L30.2655 5.2113C30.707 5.31499 31.1461 5.43247 31.5819 5.56551Z" fill="black"/>
<path d="M28.9282 4.94683L29.4468 1.80587C28.9269 1.71941 28.4074 1.6513 27.8889 1.59961L27.5768 4.76753C28.0281 4.81276 28.4788 4.87178 28.9282 4.94683Z" fill="black"/>
<path d="M26.2165 4.67966L26.3206 1.49786C25.7938 1.48 25.2699 1.48024 24.7491 1.49667L24.8533 4.67822C25.3066 4.66411 25.7611 4.66395 26.2165 4.67966Z" fill="black"/>
<path d="M14.3818 6.18224C15.2244 5.69579 16.0898 5.26835 16.9748 4.89906L15.7529 1.94897C14.746 2.36835 13.7546 2.8564 12.7849 3.41632C11.8077 3.98046 10.8829 4.60028 10.0106 5.26827L11.9544 7.80154C12.7226 7.21394 13.5318 6.67293 14.3818 6.18224Z" fill="black"/>
<path d="M6.2172 14.3468C6.70366 13.5042 7.23949 12.7014 7.82126 11.939L5.28799 9.99519C4.62574 10.8618 4.01119 11.7802 3.45127 12.75C2.88713 13.7271 2.39612 14.7262 1.97459 15.741L4.9246 16.9629C5.29605 16.07 5.72651 15.1968 6.2172 14.3468Z" fill="black"/>
<path d="M3.22872 25.5001C3.22872 24.5271 3.29133 23.5639 3.41393 22.6128L0.248081 22.196C0.107862 23.2776 0.0348816 24.3803 0.0348816 25.5001C0.0348816 26.6284 0.109218 27.7392 0.25159 28.8287L3.41736 28.412C3.29261 27.4529 3.22872 26.4814 3.22872 25.5001Z" fill="black"/>
<path d="M6.21719 36.6531C5.73073 35.8105 5.3033 34.945 4.93401 34.0601L1.98391 35.282C2.40329 36.2888 2.89135 37.2802 3.45126 38.2499C4.01541 39.2271 4.63522 40.1519 5.30322 41.0242L7.83648 39.0804C7.24889 38.3122 6.70788 37.503 6.21719 36.6531Z" fill="black"/>
<path d="M14.3818 44.8177C13.5392 44.3313 12.7363 43.7954 11.974 43.2136L10.0301 45.7469C10.8967 46.4092 11.8152 47.0237 12.7849 47.5836C13.762 48.1478 14.7612 48.6388 15.7759 49.0603L16.9978 46.1103C16.1049 45.7389 15.2317 45.3084 14.3818 44.8177Z" fill="black"/>
<path d="M25.5349 47.8061C24.5619 47.8061 23.5987 47.7435 22.6476 47.6209L22.2308 50.7868C23.3124 50.927 24.4151 51 25.5349 51C26.6632 51 27.774 50.9257 28.8635 50.7833L28.4468 47.6176C27.4877 47.7423 26.5163 47.8061 25.5349 47.8061Z" fill="black"/>
<path d="M36.6879 44.8176C35.8454 45.3041 34.9799 45.7315 34.0949 46.1008L35.3169 49.0509C36.3237 48.6315 37.3151 48.1435 38.2848 47.5836C39.262 47.0194 40.1868 46.3996 41.0591 45.7316L39.1153 43.1983C38.3471 43.7859 37.5379 44.327 36.6879 44.8176Z" fill="black"/>
<path d="M44.8526 36.6531C44.3661 37.4957 43.8303 38.2985 43.2485 39.0609L45.7818 41.0047C46.444 40.1381 47.0586 39.2197 47.6185 38.25C48.1827 37.2728 48.6737 36.2737 49.0952 35.259L46.1452 34.037C45.7737 34.93 45.3433 35.8032 44.8526 36.6531Z" fill="black"/>
<path d="M47.8411 25.5C47.8411 26.4729 47.7785 27.4361 47.6559 28.3872L50.8217 28.804C50.9619 27.7224 51.035 26.6198 51.035 25.5C51.035 24.3717 50.9607 23.2608 50.8183 22.1713L47.6525 22.5881C47.7773 23.5471 47.8411 24.5186 47.8411 25.5Z" fill="black"/>
<path d="M44.8526 14.347C45.339 15.1895 45.7665 16.055 46.1358 16.94L49.0859 15.718C48.6665 14.7112 48.1784 13.7198 47.6185 12.7501C47.0544 11.7729 46.4345 10.8481 45.7666 9.97577L43.2333 11.9196C43.8209 12.6878 44.3619 13.497 44.8526 14.347Z" fill="black"/>
<path d="M36.6879 6.18232C37.5305 6.66878 38.3334 7.20461 39.0957 7.78638L41.0395 5.25311C40.173 4.59086 39.2545 3.97631 38.2848 3.41639C37.3076 2.85225 36.3085 2.36124 35.2938 1.93971L34.0718 4.88972C34.9648 5.26117 35.838 5.69163 36.6879 6.18232Z" fill="black"/>
<path d="M25.5349 3.19384C26.5079 3.19384 27.4711 3.25645 28.4221 3.37904L28.839 0.213199C27.7573 0.0729807 26.6546 0 25.5349 0C24.4066 0 23.2958 0.0743366 22.2063 0.216709L22.623 3.38247C23.582 3.25773 24.5535 3.19384 25.5349 3.19384Z" fill="black"/>
<path d="M73.3637 40.1962V50.6152H72.0349V40.1962H73.3637Z" fill="black"/>
<path d="M85.515 40.1962V50.0867C85.515 50.439 85.3438 50.6152 85.0016 50.6152H83.703C83.552 50.6152 83.4312 50.5799 83.3406 50.5095C83.25 50.439 83.1745 50.3333 83.1141 50.1924L79.5958 42.8085C79.5052 42.6071 79.3995 42.3806 79.2787 42.129C79.1579 41.8773 79.0673 41.6458 79.0069 41.4344H78.7653C78.7854 41.6558 78.8005 41.8823 78.8106 42.1139C78.8206 42.3454 78.8257 42.5769 78.8257 42.8085V50.6152H77.4969V40.7247C77.4969 40.3723 77.673 40.1962 78.0254 40.1962H79.2787C79.4297 40.1962 79.5505 40.2314 79.6411 40.3019C79.7317 40.3723 79.8072 40.478 79.8676 40.619L83.2802 47.8217C83.3909 48.0331 83.5067 48.2747 83.6275 48.5465C83.7583 48.8082 83.8791 49.0699 83.9899 49.3317H84.2466C84.2365 49.0599 84.2264 48.7931 84.2164 48.5314C84.2063 48.2696 84.2013 48.0079 84.2013 47.7462V40.1962H85.515Z" fill="black"/>
<path d="M97.279 40.1962L94.1231 50.2377C94.0829 50.3383 94.0174 50.4289 93.9268 50.5095C93.8362 50.5799 93.7305 50.6152 93.6097 50.6152H92.2658C92.135 50.6152 92.0242 50.5799 91.9336 50.5095C91.843 50.4289 91.7826 50.3383 91.7524 50.2377L88.5965 40.1962H89.9706L92.4319 48.4559C92.4823 48.6471 92.5326 48.8384 92.5829 49.0297C92.6433 49.2109 92.6937 49.3971 92.7339 49.5884H93.1416C93.192 49.3971 93.2423 49.2058 93.2926 49.0146C93.343 48.8233 93.3983 48.632 93.4587 48.4408L95.9049 40.1962H97.279Z" fill="black"/>
<path d="M102.283 40.1811C102.786 40.1811 103.289 40.1811 103.793 40.1811C104.306 40.1811 104.81 40.1911 105.303 40.2113C105.806 40.2213 106.289 40.2415 106.752 40.2717L106.692 41.3136H102.509C102.197 41.3136 101.966 41.3941 101.815 41.5552C101.674 41.7062 101.603 41.9578 101.603 42.3102V48.5012C101.603 48.8535 101.674 49.1102 101.815 49.2713C101.966 49.4323 102.197 49.5129 102.509 49.5129H106.692L106.752 50.5397C106.289 50.5699 105.806 50.59 105.303 50.6001C104.81 50.6101 104.306 50.6152 103.793 50.6152C103.289 50.6252 102.786 50.6303 102.283 50.6303C101.669 50.6303 101.181 50.4692 100.818 50.1471C100.466 49.8149 100.285 49.3719 100.275 48.8183V41.9931C100.285 41.4293 100.466 40.9864 100.818 40.6643C101.181 40.3421 101.669 40.1811 102.283 40.1811ZM100.546 44.5752H106.103V45.6473H100.546V44.5752Z" fill="black"/>
<path d="M113.224 40.015C113.717 40.025 114.225 40.0502 114.749 40.0905C115.272 40.1307 115.796 40.2062 116.319 40.317L116.229 41.2834C115.796 41.2632 115.318 41.2481 114.794 41.2381C114.271 41.2179 113.767 41.2079 113.284 41.2079C112.912 41.2079 112.59 41.223 112.318 41.2532C112.056 41.2733 111.84 41.3337 111.669 41.4344C111.497 41.525 111.372 41.681 111.291 41.9025C111.221 42.1139 111.185 42.4108 111.185 42.7934C111.185 43.3672 111.286 43.7698 111.487 44.0014C111.699 44.2228 112.036 44.3889 112.499 44.4997L114.613 45.0282C115.418 45.2194 115.967 45.5567 116.259 46.0399C116.561 46.513 116.712 47.1522 116.712 47.9576C116.712 48.5616 116.641 49.0498 116.501 49.4223C116.37 49.7947 116.163 50.0816 115.881 50.283C115.6 50.4742 115.237 50.6051 114.794 50.6756C114.351 50.7561 113.828 50.7964 113.224 50.7964C112.882 50.7964 112.434 50.7813 111.88 50.7511C111.336 50.7209 110.707 50.6403 109.992 50.5095L110.083 49.528C110.677 49.5481 111.155 49.5682 111.518 49.5884C111.88 49.5984 112.192 49.6035 112.454 49.6035C112.715 49.6035 112.987 49.6035 113.269 49.6035C113.803 49.6035 114.22 49.5632 114.522 49.4827C114.834 49.4021 115.051 49.2411 115.172 48.9995C115.303 48.7579 115.368 48.4005 115.368 47.9274C115.368 47.5247 115.323 47.2126 115.232 46.9912C115.142 46.7697 114.996 46.6036 114.794 46.4929C114.603 46.3721 114.356 46.2764 114.054 46.206L111.895 45.6624C111.14 45.4711 110.606 45.1389 110.294 44.6658C109.992 44.1926 109.841 43.5584 109.841 42.7632C109.841 42.1592 109.907 41.676 110.038 41.3136C110.179 40.9411 110.385 40.6643 110.657 40.4831C110.939 40.2918 111.291 40.166 111.714 40.1056C112.137 40.0452 112.64 40.015 113.224 40.015Z" fill="black"/>
<path d="M124.029 40.1962V50.6152H122.7V40.1962H124.029ZM127.396 40.1962V41.374H119.348V40.1962H127.396Z" fill="black"/>
<path d="M131.912 40.1962V50.6152H130.583V40.1962H131.912Z" fill="black"/>
<path d="M140.016 39.9999C140.368 39.9999 140.711 40.0099 141.043 40.0301C141.375 40.0502 141.697 40.0854 142.009 40.1358C142.321 40.176 142.623 40.2364 142.915 40.317L142.779 41.3136C142.467 41.2834 142.15 41.2582 141.828 41.2381C141.516 41.2179 141.214 41.2079 140.922 41.2079C140.63 41.1978 140.353 41.1928 140.092 41.1928C139.528 41.1928 139.05 41.2481 138.657 41.3589C138.275 41.4595 137.967 41.6609 137.736 41.9629C137.504 42.2649 137.333 42.6977 137.223 43.2615C137.122 43.8252 137.072 44.5601 137.072 45.4661C137.072 46.4929 137.142 47.3133 137.283 47.9274C137.424 48.5314 137.66 48.9693 137.993 49.2411C138.325 49.5129 138.768 49.6488 139.321 49.6488C139.704 49.6488 140.051 49.5934 140.363 49.4827C140.685 49.3719 140.982 49.231 141.254 49.0599C141.536 48.8787 141.808 48.6924 142.07 48.5012L142.251 49.3166C142.07 49.528 141.818 49.7494 141.496 49.981C141.184 50.2125 140.816 50.4088 140.394 50.5699C139.971 50.7309 139.493 50.8115 138.959 50.8115C138.184 50.8115 137.55 50.6202 137.056 50.2377C136.573 49.8451 136.221 49.2511 135.999 48.4559C135.778 47.6505 135.667 46.6237 135.667 45.3755C135.667 43.9963 135.803 42.9192 136.075 42.1441C136.357 41.3589 136.815 40.8052 137.449 40.4831C138.093 40.1609 138.949 39.9999 140.016 39.9999ZM143.187 44.5903V50.6152H142.221L142.009 49.075L141.888 48.773V44.5903H143.187Z" fill="black"/>
<path d="M151.113 40.1962C151.234 40.1962 151.34 40.2314 151.431 40.3019C151.521 40.3623 151.582 40.4478 151.612 40.5586L154.964 50.6152H153.59L150.887 42.0686C150.847 41.9276 150.801 41.7867 150.751 41.6458C150.711 41.4948 150.671 41.3538 150.63 41.223H150.207C150.167 41.3538 150.127 41.4948 150.087 41.6458C150.046 41.7867 150.001 41.9276 149.951 42.0686L147.248 50.6152H145.874L149.226 40.5586C149.256 40.4478 149.317 40.3623 149.407 40.3019C149.498 40.2314 149.604 40.1962 149.724 40.1962H151.113ZM153.046 46.206V47.3536H147.761V46.206H153.046Z" fill="black"/>
<path d="M160.785 40.1962V50.6152H159.456V40.1962H160.785ZM164.152 40.1962V41.374H156.104V40.1962H164.152Z" fill="black"/>
<path d="M168.668 40.1962V50.6152H167.339V40.1962H168.668Z" fill="black"/>
<path d="M176.531 39.9999C177.286 39.9999 177.925 40.0905 178.448 40.2717C178.982 40.4529 179.405 40.7549 179.717 41.1777C180.039 41.5904 180.27 42.1441 180.411 42.8387C180.562 43.5333 180.638 44.3889 180.638 45.4057C180.638 46.4224 180.562 47.2781 180.411 47.9727C180.27 48.6673 180.039 49.226 179.717 49.6488C179.405 50.0615 178.982 50.3585 178.448 50.5397C177.925 50.7209 177.286 50.8115 176.531 50.8115C175.776 50.8115 175.131 50.7209 174.598 50.5397C174.074 50.3585 173.652 50.0615 173.329 49.6488C173.007 49.226 172.771 48.6673 172.62 47.9727C172.479 47.2781 172.408 46.4224 172.408 45.4057C172.408 44.3889 172.479 43.5333 172.62 42.8387C172.771 42.1441 173.007 41.5904 173.329 41.1777C173.652 40.7549 174.074 40.4529 174.598 40.2717C175.131 40.0905 175.776 39.9999 176.531 39.9999ZM176.531 41.1928C175.846 41.1928 175.302 41.3236 174.9 41.5854C174.507 41.8471 174.225 42.285 174.054 42.8991C173.893 43.5031 173.813 44.3386 173.813 45.4057C173.813 46.4627 173.893 47.2982 174.054 47.9123C174.225 48.5263 174.507 48.9642 174.9 49.226C175.302 49.4877 175.846 49.6186 176.531 49.6186C177.215 49.6186 177.754 49.4877 178.146 49.226C178.549 48.9642 178.831 48.5263 178.992 47.9123C179.163 47.2982 179.249 46.4627 179.249 45.4057C179.249 44.3386 179.163 43.5031 178.992 42.8991C178.831 42.285 178.549 41.8471 178.146 41.5854C177.754 41.3236 177.215 41.1928 176.531 41.1928Z" fill="black"/>
<path d="M192.415 40.1962V50.0867C192.415 50.439 192.244 50.6152 191.902 50.6152H190.603C190.452 50.6152 190.332 50.5799 190.241 50.5095C190.15 50.439 190.075 50.3333 190.014 50.1924L186.496 42.8085C186.406 42.6071 186.3 42.3806 186.179 42.129C186.058 41.8773 185.968 41.6458 185.907 41.4344H185.666C185.686 41.6558 185.701 41.8823 185.711 42.1139C185.721 42.3454 185.726 42.5769 185.726 42.8085V50.6152H184.397V40.7247C184.397 40.3723 184.573 40.1962 184.926 40.1962H186.179C186.33 40.1962 186.451 40.2314 186.541 40.3019C186.632 40.3723 186.708 40.478 186.768 40.619L190.181 47.8217C190.291 48.0331 190.407 48.2747 190.528 48.5465C190.659 48.8082 190.779 49.0699 190.89 49.3317H191.147C191.137 49.0599 191.127 48.7931 191.117 48.5314C191.107 48.2696 191.102 48.0079 191.102 47.7462V40.1962H192.415Z" fill="black"/>
</svg>
