<svg width="100" height="100" viewBox="0 0 100 100" fill="none" xmlns="http://www.w3.org/2000/svg">
<path d="M49.6018 41.8583C53.6316 41.8583 56.9103 45.1369 56.9103 49.1668C56.9103 53.1967 53.6316 56.4754 49.6018 56.4754C45.5719 56.4754 42.2932 53.1967 42.2932 49.1668C42.2932 45.1369 45.5719 41.8583 49.6018 41.8583ZM49.6018 36.5409C42.6286 36.5409 36.9758 42.1938 36.9758 49.1668C36.9758 56.1399 42.6286 61.7927 49.6018 61.7927C56.5749 61.7927 62.2277 56.14 62.2277 49.1668C62.2277 42.1936 56.5748 36.5409 49.6018 36.5409Z" fill="black"/>
<path d="M48.2617 34.3953L47.7983 29.0987C46.6129 29.201 45.4569 29.4059 44.3391 29.7047L45.7148 34.8392C46.5433 34.6186 47.3948 34.4697 48.2617 34.3953Z" fill="black"/>
<path d="M43.2876 35.7281L41.0406 30.9094C39.9617 31.4111 38.9456 31.9989 37.9974 32.662L41.0463 37.0162C41.7494 36.5256 42.4984 36.0945 43.2876 35.7281Z" fill="black"/>
<path d="M39.0691 38.6819L35.3095 34.9223C34.4672 35.7627 33.7134 36.6627 33.0491 37.6101L37.4033 40.6589C37.8963 39.9574 38.4529 39.2961 39.0691 38.6819Z" fill="black"/>
<path d="M36.1153 42.9003L31.2966 40.6533C30.7925 41.7312 30.392 42.8347 30.0918 43.9521L35.2263 45.3278C35.4495 44.5001 35.7463 43.6882 36.1153 42.9003Z" fill="black"/>
<path d="M34.7826 47.8743L29.486 47.4109C29.381 48.5962 29.382 49.7701 29.4821 50.9228L34.7775 50.4595C34.7042 49.6053 34.7052 48.7409 34.7826 47.8743Z" fill="black"/>
<path d="M35.2314 53.0044L30.0958 54.3805C30.4025 55.5301 30.805 56.633 31.2933 57.6819L36.1108 55.4355C35.7497 54.6578 35.4552 53.8452 35.2314 53.0044Z" fill="black"/>
<path d="M37.4078 57.6716L33.0525 60.7212C33.7339 61.6967 34.4893 62.5953 35.3069 63.4139L39.0656 59.6552C38.4604 59.048 37.9057 58.3852 37.4078 57.6716Z" fill="black"/>
<path d="M41.0492 61.3131L37.9995 65.6685C38.9734 66.352 39.9906 66.9381 41.0389 67.4277L43.2854 62.6102C42.5089 62.2466 41.761 61.8134 41.0492 61.3131Z" fill="black"/>
<path d="M45.7163 63.4894L44.3402 68.625C45.4891 68.9342 46.6454 69.1371 47.798 69.2386L48.2613 63.9432C47.4073 63.867 46.5563 63.716 45.7163 63.4894Z" fill="black"/>
<path d="M50.8464 63.9382L51.3098 69.2349C52.4951 69.1325 53.6511 68.9276 54.769 68.6288L53.3932 63.4944C52.5648 63.7149 51.7132 63.8638 50.8464 63.9382Z" fill="black"/>
<path d="M55.8206 62.6053L58.0676 67.4241C59.1465 66.9224 60.1626 66.3345 61.1108 65.6715L58.0619 61.3172C57.3588 61.8079 56.6098 62.239 55.8206 62.6053Z" fill="black"/>
<path d="M60.0389 59.6516L63.7986 63.4112C64.6408 62.5708 65.3947 61.6709 66.059 60.7234L61.7047 57.6746C61.2118 58.3761 60.6552 59.0374 60.0389 59.6516Z" fill="black"/>
<path d="M62.9926 55.4332L67.8114 57.6802C68.3154 56.6023 68.716 55.4989 69.0161 54.3814L63.8817 53.0057C63.6585 53.8335 63.3617 54.6453 62.9926 55.4332Z" fill="black"/>
<path d="M64.3256 50.4589L69.6222 50.9223C69.7272 49.7371 69.7261 48.5632 69.626 47.4105L64.3306 47.8738C64.404 48.728 64.4029 49.5923 64.3256 50.4589Z" fill="black"/>
<path d="M63.8767 45.329L69.0123 43.9528C68.7057 42.8032 68.3031 41.7004 67.8149 40.6514L62.9973 42.8979C63.3584 43.6755 63.653 44.4882 63.8767 45.329Z" fill="black"/>
<path d="M61.7004 40.6619L66.0557 37.6122C65.3743 36.6368 64.6189 35.7381 63.8013 34.9195L60.0426 38.6782C60.6478 39.2855 61.2026 39.9483 61.7004 40.6619Z" fill="black"/>
<path d="M58.0589 37.0205L61.1086 32.6652C60.1347 31.9816 59.1175 31.3955 58.0692 30.9059L55.8227 35.7235C56.5992 36.087 57.3471 36.5203 58.0589 37.0205Z" fill="black"/>
<path d="M53.3918 34.8441L54.7679 29.7084C53.619 29.3992 52.4627 29.1964 51.3101 29.0948L50.8468 34.3902C51.7008 34.4664 52.5518 34.6174 53.3918 34.8441Z" fill="black"/>
<path d="M47.8311 29.474L47.3677 24.1776C45.8916 24.305 44.4522 24.5601 43.0602 24.9322L44.4358 30.0659C45.5404 29.7718 46.6754 29.5732 47.8311 29.474Z" fill="black"/>
<path d="M41.1998 31.2509L38.9528 26.4323C37.6094 27.057 36.344 27.789 35.1633 28.6147L38.2117 32.9683C39.149 32.3142 40.1478 31.7393 41.1998 31.2509Z" fill="black"/>
<path d="M35.576 35.1886L31.8165 31.4291C30.7677 32.4756 29.829 33.5962 29.0019 34.7759L33.3555 37.8242C34.0126 36.889 34.7545 36.0075 35.576 35.1886Z" fill="black"/>
<path d="M31.6383 40.8124L26.8197 38.5654C26.192 39.9075 25.6932 41.2816 25.3196 42.6731L30.4532 44.0485C30.7508 42.9449 31.1463 41.8627 31.6383 40.8124Z" fill="black"/>
<path d="M29.8614 47.4436L24.5649 46.9802C24.4341 48.4561 24.4354 49.9179 24.5601 51.3532L29.8546 50.8899C29.7569 49.7511 29.7584 48.5991 29.8614 47.4436Z" fill="black"/>
<path d="M30.4598 54.2828L25.3242 55.6589C25.7061 57.0905 26.2072 58.4637 26.8153 59.7699L31.632 57.5239C31.1506 56.4871 30.7581 55.4037 30.4598 54.2828Z" fill="black"/>
<path d="M33.3613 60.505L29.0061 63.5545C29.8546 64.7692 30.7951 65.8882 31.8133 66.9075L35.5713 63.1495C34.7644 62.3399 34.025 61.4563 33.3613 60.505Z" fill="black"/>
<path d="M38.2157 65.3595L35.1662 69.7147C36.3789 70.5658 37.6455 71.2956 38.9509 71.9053L41.197 67.0886C40.1618 66.6037 39.1647 66.0264 38.2157 65.3595Z" fill="black"/>
<path d="M44.4377 68.2609L43.0615 73.3965C44.4922 73.7816 45.9321 74.0342 47.3673 74.1606L47.8304 68.8661C46.692 68.7647 45.5576 68.563 44.4377 68.2609Z" fill="black"/>
<path d="M51.2768 68.8591L51.7403 74.1556C53.2163 74.0281 54.6558 73.773 56.0477 73.4009L54.6721 68.2673C53.5676 68.5614 52.4326 68.76 51.2768 68.8591Z" fill="black"/>
<path d="M57.9082 67.0823L60.1552 71.9009C61.4986 71.2762 62.764 70.5442 63.9447 69.7185L60.8963 65.3649C59.959 66.019 58.9602 66.5939 57.9082 67.0823Z" fill="black"/>
<path d="M63.5319 63.1444L67.2914 66.9039C68.3402 65.8575 69.2789 64.7369 70.106 63.5572L65.7524 60.5089C65.0953 61.4441 64.3534 62.3256 63.5319 63.1444Z" fill="black"/>
<path d="M67.4696 57.5209L72.2882 59.7679C72.9159 58.4258 73.4147 57.0516 73.7884 55.6602L68.6547 54.2847C68.3571 55.3884 67.9616 56.4706 67.4696 57.5209Z" fill="black"/>
<path d="M69.2466 50.8894L74.543 51.3528C74.6738 49.877 74.6725 48.4151 74.5478 46.9798L69.2533 47.4431C69.351 48.5819 69.3496 49.7339 69.2466 50.8894Z" fill="black"/>
<path d="M68.6482 44.0501L73.7839 42.674C73.4019 41.2425 72.9008 39.8692 72.2927 38.563L67.476 40.8091C67.9574 41.8458 68.3499 42.9293 68.6482 44.0501Z" fill="black"/>
<path d="M65.7468 37.8282L70.102 34.7787C69.2535 33.5641 68.313 32.445 67.2948 31.4257L63.5368 35.1837C64.3437 35.9933 65.0831 36.8769 65.7468 37.8282Z" fill="black"/>
<path d="M60.8923 32.9738L63.9418 28.6186C62.729 27.7675 61.4624 27.0377 60.157 26.428L57.911 31.2447C58.9461 31.7296 59.9433 32.3069 60.8923 32.9738Z" fill="black"/>
<path d="M54.6702 30.0724L56.0464 24.9367C54.6157 24.5516 53.1758 24.2991 51.7406 24.1726L51.2775 29.4671C52.4159 29.5686 53.5503 29.7702 54.6702 30.0724Z" fill="black"/>
<path d="M47.3971 24.5197L46.9337 19.2234C45.1646 19.3763 43.4394 19.682 41.7714 20.128L43.1467 25.2607C44.5295 24.8925 45.9503 24.6439 47.3971 24.5197Z" fill="black"/>
<path d="M39.0975 26.7441L36.8507 21.9256C35.2405 22.6743 33.7241 23.5516 32.309 24.5412L35.3569 28.894C36.5303 28.0751 37.7804 27.3555 39.0975 26.7441Z" fill="black"/>
<path d="M32.0592 31.6725L28.2998 27.9132C27.0428 29.1674 25.9179 30.5106 24.9266 31.9245L29.2794 34.9724C30.102 33.8015 31.0307 32.6976 32.0592 31.6725Z" fill="black"/>
<path d="M27.131 38.7112L22.3125 36.4643C21.5603 38.0728 20.9626 39.7197 20.5147 41.3874L25.6474 42.7627C26.0199 41.3811 26.5151 40.0261 27.131 38.7112Z" fill="black"/>
<path d="M24.9072 47.0107L19.6109 46.5473C19.4542 48.3161 19.4557 50.0681 19.6053 51.7884L24.8989 51.3252C24.7764 49.8995 24.7783 48.457 24.9072 47.0107Z" fill="black"/>
<path d="M25.6563 55.5706L20.5208 56.9466C20.9785 58.6622 21.5793 60.3081 22.3081 61.8735L27.1241 59.6279C26.5213 58.33 26.0298 56.9738 25.6563 55.5706Z" fill="black"/>
<path d="M29.2879 63.3577L24.9328 66.4072C25.9498 67.863 27.0772 69.204 28.2974 70.4257L32.0547 66.6683C31.0446 65.6549 30.1188 64.5487 29.2879 63.3577Z" fill="black"/>
<path d="M35.3638 69.4335L32.3143 73.7885C33.7678 74.8087 35.2859 75.6832 36.8504 76.4138L39.096 71.5979C37.8002 70.9912 36.5518 70.2684 35.3638 69.4335Z" fill="black"/>
<path d="M43.1511 73.0644L41.7751 78.1999C43.4898 78.6613 45.2155 78.964 46.9356 79.1155L47.3988 73.822C45.9734 73.695 44.5532 73.4426 43.1511 73.0644Z" fill="black"/>
<path d="M51.7108 73.8131L52.1742 79.1094C53.9433 78.9566 55.6685 78.6508 57.3366 78.2048L55.9612 73.0721C54.5785 73.4403 53.1577 73.6889 51.7108 73.8131Z" fill="black"/>
<path d="M60.0105 71.5891L62.2573 76.4075C63.8676 75.6589 65.3839 74.7815 66.799 73.7919L63.7511 69.4391C62.5777 70.258 61.3276 70.9776 60.0105 71.5891Z" fill="black"/>
<path d="M67.0488 66.6605L70.8081 70.4199C72.0652 69.1657 73.1901 67.8225 74.1813 66.4086L69.8286 63.3607C69.006 64.5316 68.0773 65.6355 67.0488 66.6605Z" fill="black"/>
<path d="M71.977 59.6219L76.7955 61.8688C77.5477 60.2603 78.1454 58.6134 78.5933 56.9457L73.4606 55.5704C73.0881 56.9519 72.5929 58.3069 71.977 59.6219Z" fill="black"/>
<path d="M74.2007 51.3222L79.497 51.7856C79.6538 50.0168 79.6522 48.2648 79.5026 46.5445L74.2091 47.0077C74.3315 48.4334 74.3296 49.8759 74.2007 51.3222Z" fill="black"/>
<path d="M73.4516 42.7627L78.5871 41.3867C78.1294 39.6711 77.5287 38.0252 76.7998 36.4598L71.9839 38.7055C72.5866 40.0033 73.0782 41.3595 73.4516 42.7627Z" fill="black"/>
<path d="M69.8202 34.9753L74.1752 31.9258C73.1583 30.4701 72.0309 29.129 70.8107 27.9074L67.0533 31.6648C68.0634 32.6781 68.9892 33.7844 69.8202 34.9753Z" fill="black"/>
<path d="M63.7443 28.8997L66.7938 24.5447C65.3403 23.5246 63.8222 22.65 62.2577 21.9194L60.0121 26.7353C61.3079 27.342 62.5563 28.0648 63.7443 28.8997Z" fill="black"/>
<path d="M55.9568 25.2685L57.3328 20.133C55.6181 19.6716 53.8925 19.3689 52.1723 19.2174L51.7092 24.5109C53.1345 24.6379 54.5548 24.8903 55.9568 25.2685Z" fill="black"/>
<path d="M26.7393 26.3519C29.7041 23.3871 33.1552 21.06 36.9966 19.4351C40.9709 17.7542 45.1958 16.9018 49.5539 16.9018V11.5844C35.6445 11.5844 23.5009 19.1413 17.0023 30.3729L21.6052 33.0305C23.0097 30.6006 24.7272 28.364 26.7393 26.3519Z" fill="black"/>
<path d="M41.2033 80.332C37.1532 79.2467 33.4123 77.4217 30.0845 74.9073C26.6415 72.3059 23.7908 69.0732 21.6119 65.2989L17.007 67.9576C23.9617 80.0035 36.578 86.7417 49.5541 86.7539V81.4388C46.7474 81.4375 43.9518 81.0685 41.2033 80.332Z" fill="black"/>
<path d="M80.7194 40.8159C81.8047 44.866 82.0945 49.0183 81.5808 53.1575C81.0495 57.4398 79.6751 61.5249 77.4961 65.2991L82.1011 67.9578C89.0558 55.9119 88.5831 41.6168 82.1056 30.373L77.5027 33.0306C78.9048 35.4619 79.9829 38.0674 80.7194 40.8159Z" fill="black"/>
<path d="M46.151 14.6147L45.6309 9.33442C44.7565 9.4195 43.8908 9.53396 43.0339 9.67434L43.8981 14.9089C44.6442 14.787 45.3951 14.6878 46.151 14.6147Z" fill="black"/>
<path d="M41.6702 15.3545L40.4654 10.1874C39.6096 10.3858 38.7663 10.6122 37.9349 10.8633L39.4749 15.9404C40.1988 15.7221 40.9302 15.5257 41.6702 15.3545Z" fill="black"/>
<path d="M37.3242 16.6728L35.4553 11.707C34.6327 12.0156 33.8262 12.3502 33.0347 12.7076L35.2243 17.5402C35.9134 17.2294 36.6129 16.9389 37.3242 16.6728Z" fill="black"/>
<path d="M33.1877 18.547L30.6865 13.8677C29.9113 14.2809 29.1553 14.7179 28.4172 15.1756L31.2188 19.681C31.8614 19.2829 32.5173 18.9039 33.1877 18.547Z" fill="black"/>
<path d="M29.331 20.9453L26.2406 16.6325C25.5259 17.1434 24.8333 17.6754 24.1615 18.2254L27.5272 22.3266C28.1124 21.848 28.7129 21.3866 29.331 20.9453Z" fill="black"/>
<path d="M25.8203 23.8263L22.1933 19.9539C21.5514 20.5537 20.9343 21.1714 20.3398 21.8046L24.212 25.4313C24.7297 24.8804 25.265 24.3445 25.8203 23.8263Z" fill="black"/>
<path d="M22.716 27.1411L18.6146 23.7752C18.0564 24.4537 17.5252 25.1467 17.0186 25.852L21.3311 28.9423C21.7724 28.3286 22.2332 27.7273 22.716 27.1411Z" fill="black"/>
<path d="M20.0706 30.8326L15.5649 28.0307C15.1002 28.7762 14.6639 29.5326 14.2537 30.298L18.9327 32.7991C19.2901 32.1329 19.6683 31.4768 20.0706 30.8326Z" fill="black"/>
<path d="M17.9298 34.8379L13.097 32.6482C12.7334 33.4479 12.3997 34.2549 12.0928 35.0673L17.0581 36.9361C17.3256 36.2291 17.615 35.5292 17.9298 34.8379Z" fill="black"/>
<path d="M16.3299 39.0881L11.2526 37.548C10.9966 38.3884 10.771 39.232 10.5728 40.0774L15.7395 41.2822C15.9124 40.5463 16.1082 39.8145 16.3299 39.0881Z" fill="black"/>
<path d="M15.2988 43.5111L10.0638 42.6468C9.91973 43.5134 9.80621 44.3792 9.72007 45.2434L14.9999 45.7634C15.0753 45.0113 15.1737 44.2602 15.2988 43.5111Z" fill="black"/>
<path d="M14.8536 48.0307L9.55059 47.8571C9.52081 48.7351 9.52121 49.6083 9.5486 50.4763L14.8512 50.3027C14.8277 49.5471 14.8274 48.7896 14.8536 48.0307Z" fill="black"/>
<path d="M15.0022 52.5697L9.72189 53.0898C9.80697 53.9642 9.92142 54.8299 10.0618 55.6868L15.2963 54.8225C15.1744 54.0765 15.0753 53.3256 15.0022 52.5697Z" fill="black"/>
<path d="M15.742 57.0505L10.5748 58.2553C10.7733 59.1111 10.9997 59.9544 11.2508 60.7858L16.3278 59.2458C16.1095 58.5219 15.9132 57.7905 15.742 57.0505Z" fill="black"/>
<path d="M17.0602 61.3965L12.0945 63.2654C12.403 64.088 12.7376 64.8945 13.0951 65.686L17.9276 63.4964C17.6168 62.8073 17.3264 62.1078 17.0602 61.3965Z" fill="black"/>
<path d="M18.9345 65.533L14.2553 68.0342C14.6684 68.8095 15.1055 69.5655 15.5632 70.3035L20.0686 67.5019C19.6705 66.8593 19.2915 66.2034 18.9345 65.533Z" fill="black"/>
<path d="M21.3327 69.3897L17.02 72.4801C17.5308 73.1948 18.0628 73.8873 18.6129 74.5592L22.714 71.1934C22.2355 70.6083 21.7741 70.0078 21.3327 69.3897Z" fill="black"/>
<path d="M24.2138 72.9003L20.3413 76.5273C20.9411 77.1692 21.5589 77.7863 22.192 78.3808L25.8187 74.5086C25.2678 73.9909 24.732 73.4556 24.2138 72.9003Z" fill="black"/>
<path d="M27.5285 76.0048L24.1627 80.1062C24.8412 80.6644 25.5341 81.1956 26.2395 81.7022L29.3298 77.3897C28.716 76.9484 28.1148 76.4876 27.5285 76.0048Z" fill="black"/>
<path d="M31.22 78.6502L28.4182 83.1558C29.1637 83.6206 29.9201 84.0568 30.6855 84.4671L33.1865 79.7881C32.5204 79.4306 31.8642 79.0524 31.22 78.6502Z" fill="black"/>
<path d="M35.2253 80.791L33.0356 85.6238C33.8353 85.9874 34.6422 86.321 35.4547 86.628L37.3235 81.6626C36.6164 81.3952 35.9165 81.1058 35.2253 80.791Z" fill="black"/>
<path d="M39.4756 82.3908L37.9354 87.4681C38.7758 87.7241 39.6194 87.9497 40.4649 88.1479L41.6697 82.9811C40.9337 82.8083 40.2019 82.6125 39.4756 82.3908Z" fill="black"/>
<path d="M43.8984 83.422L43.034 88.657C43.9006 88.8011 44.7664 88.9146 45.6306 89.0007L46.1507 83.7209C45.3985 83.6455 44.6475 83.5471 43.8984 83.422Z" fill="black"/>
<path d="M48.418 83.8669L48.2444 89.1699C49.1225 89.1997 49.9957 89.1993 50.8636 89.1719L50.69 83.8693C49.9344 83.8929 49.177 83.8931 48.418 83.8669Z" fill="black"/>
<path d="M52.9571 83.7186L53.4771 88.9988C54.3516 88.9138 55.2172 88.7993 56.0741 88.6589L55.2099 83.4244C54.4639 83.5463 53.7129 83.6455 52.9571 83.7186Z" fill="black"/>
<path d="M57.4378 82.9788L58.6426 88.1459C59.4985 87.9474 60.3418 87.7211 61.1732 87.4699L59.6331 82.3929C58.9093 82.6112 58.1779 82.8075 57.4378 82.9788Z" fill="black"/>
<path d="M61.7838 81.6605L63.6527 86.6262C64.4753 86.3177 65.2818 85.9831 66.0733 85.6257L63.8838 80.7931C63.1946 81.1039 62.4951 81.3944 61.7838 81.6605Z" fill="black"/>
<path d="M65.9205 79.786L68.4217 84.4653C69.1969 84.0521 69.9529 83.615 70.691 83.1574L67.8894 78.652C67.2468 79.0501 66.5909 79.4291 65.9205 79.786Z" fill="black"/>
<path d="M69.777 77.3881L72.8675 81.7008C73.5821 81.19 74.2747 80.658 74.9465 80.1079L71.5808 76.0067C70.9956 76.4853 70.3952 76.9467 69.777 77.3881Z" fill="black"/>
<path d="M73.2877 74.507L76.9147 78.3795C77.5566 77.7797 78.1737 77.1619 78.7682 76.5288L74.8959 72.902C74.3783 73.4529 73.843 73.9888 73.2877 74.507Z" fill="black"/>
<path d="M76.3922 71.1923L80.4936 74.5582C81.0518 73.8797 81.583 73.1867 82.0896 72.4813L77.7771 69.391C77.3357 70.0048 76.875 70.606 76.3922 71.1923Z" fill="black"/>
<path d="M79.0375 67.5006L83.5432 70.3025C84.0079 69.557 84.4442 68.8006 84.8544 68.0351L80.1754 65.5341C79.818 66.2002 79.4398 66.8564 79.0375 67.5006Z" fill="black"/>
<path d="M81.1783 63.4955L86.0111 65.6852C86.3747 64.8855 86.7084 64.0786 87.0153 63.2661L82.05 61.3973C81.7825 62.1044 81.4931 62.8043 81.1783 63.4955Z" fill="black"/>
<path d="M82.7781 59.245L87.8554 60.7852C88.1114 59.9448 88.337 59.1012 88.5352 58.2557L83.3685 57.0509C83.1957 57.7868 82.9999 58.5186 82.7781 59.245Z" fill="black"/>
<path d="M83.8094 54.8222L89.0443 55.6866C89.1884 54.82 89.302 53.9542 89.3881 53.09L84.1082 52.5699C84.0329 53.3221 83.9345 54.0732 83.8094 54.8222Z" fill="black"/>
<path d="M84.2544 50.3027L89.5574 50.4763C89.5872 49.5982 89.5868 48.725 89.5594 47.8571L84.2568 48.0307C84.2803 48.7863 84.2806 49.5437 84.2544 50.3027Z" fill="black"/>
<path d="M84.1059 45.7636L89.3862 45.2436C89.3011 44.3691 89.1867 43.5035 89.0463 42.6466L83.8118 43.5108C83.9337 44.2568 84.0328 45.0077 84.1059 45.7636Z" fill="black"/>
<path d="M83.3662 41.2828L88.5334 40.0781C88.3349 39.2222 88.1085 38.3789 87.8574 37.5475L82.7804 39.0876C82.9987 39.8114 83.195 40.5428 83.3662 41.2828Z" fill="black"/>
<path d="M82.0479 36.9369L87.0136 35.068C86.7051 34.2454 86.3705 33.4389 86.013 32.6474L81.1805 34.8369C81.4913 35.526 81.7817 36.2255 82.0479 36.9369Z" fill="black"/>
<path d="M80.1735 32.8001L84.8528 30.299C84.4396 29.5237 84.0025 28.7677 83.5448 28.0297L79.0394 30.8312C79.4376 31.4738 79.8166 32.1297 80.1735 32.8001Z" fill="black"/>
<path d="M77.7754 28.9434L82.0882 25.853C81.5773 25.1383 81.0453 24.4458 80.4952 23.7739L76.3941 27.1397C76.8727 27.7248 77.3341 28.3253 77.7754 28.9434Z" fill="black"/>
<path d="M74.8943 25.4328L78.7668 21.8058C78.167 21.1639 77.5493 20.5468 76.9161 19.9524L73.2894 23.8246C73.8403 24.3422 74.3761 24.8776 74.8943 25.4328Z" fill="black"/>
<path d="M71.5796 22.3286L74.9455 18.2272C74.267 17.669 73.574 17.1378 72.8687 16.6312L69.7784 20.9437C70.3921 21.3851 70.9934 21.8458 71.5796 22.3286Z" fill="black"/>
<path d="M67.888 19.6831L70.6898 15.1775C69.9443 14.7127 69.1879 14.2764 68.4225 13.8662L65.9215 18.5452C66.5876 18.9027 67.2438 19.2809 67.888 19.6831Z" fill="black"/>
<path d="M63.8829 17.5423L66.0726 12.7095C65.2728 12.3459 64.4659 12.0123 63.6534 11.7053L61.7847 16.6707C62.4917 16.9381 63.1916 17.2275 63.8829 17.5423Z" fill="black"/>
<path d="M59.6325 15.9425L61.1726 10.8653C60.3322 10.6092 59.4886 10.3836 58.6432 10.1854L57.4384 15.3522C58.1743 15.525 58.9061 15.7208 59.6325 15.9425Z" fill="black"/>
<path d="M55.2096 14.9114L56.0739 9.67648C55.2073 9.53238 54.3415 9.41885 53.4773 9.33271L52.9573 14.6126C53.7094 14.6879 54.4605 14.7863 55.2096 14.9114Z" fill="black"/>
<path d="M50.69 14.4661L50.8636 9.16313C49.9856 9.13335 49.1124 9.13375 48.2444 9.16113L48.418 14.4637C49.1736 14.4402 49.9311 14.4399 50.69 14.4661Z" fill="black"/>
<path d="M30.9655 16.9704C32.3698 16.1597 33.8123 15.4473 35.2872 14.8318L33.2507 9.91497C31.5726 10.6139 29.9203 11.4274 28.3041 12.3605C26.6755 13.3008 25.1341 14.3338 23.6802 15.4471L26.92 19.6692C28.2002 18.6899 29.549 17.7882 30.9655 16.9704Z" fill="black"/>
<path d="M17.3579 30.5781C18.1687 29.1738 19.0617 27.8356 20.0313 26.5651L15.8092 23.3253C14.7055 24.7697 13.6812 26.3004 12.748 27.9166C11.8078 29.5452 10.9894 31.2104 10.2869 32.9016L15.2036 34.9382C15.8226 33.45 16.5401 31.9946 17.3579 30.5781Z" fill="black"/>
<path d="M12.3771 49.1668C12.3771 47.5452 12.4815 45.9398 12.6858 44.3547L7.40937 43.66C7.17567 45.4627 7.05404 47.3006 7.05404 49.1668C7.05404 51.0473 7.17793 52.8987 7.41522 54.7145L12.6915 54.02C12.4836 52.4216 12.3771 50.8024 12.3771 49.1668Z" fill="black"/>
<path d="M17.3579 67.7551C16.5471 66.3508 15.8347 64.9083 15.2192 63.4334L10.3024 65.47C11.0014 67.148 11.8148 68.8004 12.748 70.4166C13.6882 72.0452 14.7213 73.5865 15.8346 75.0404L20.0567 71.8007C19.0774 70.5204 18.1757 69.1717 17.3579 67.7551Z" fill="black"/>
<path d="M30.9655 81.3629C29.5612 80.5521 28.2231 79.6591 26.9525 78.6894L23.7128 82.9115C25.1571 84.0153 26.6879 85.0396 28.3041 85.9728C29.9326 86.913 31.5979 87.7313 33.2891 88.4339L35.3256 83.5172C33.8374 82.8981 32.3821 82.1807 30.9655 81.3629Z" fill="black"/>
<path d="M49.5541 86.3436C47.9324 86.3436 46.3271 86.2392 44.742 86.0349L44.0473 91.3113C45.85 91.545 47.6877 91.6668 49.5541 91.6668C51.4345 91.6668 53.2859 91.5429 55.1018 91.3056L54.4072 86.0293C52.8088 86.2372 51.1897 86.3436 49.5541 86.3436Z" fill="black"/>
<path d="M68.1425 81.3628C66.7382 82.1735 65.2957 82.8859 63.8208 83.5014L65.8573 88.4182C67.5354 87.7192 69.1877 86.9058 70.8039 85.9726C72.4325 85.0324 73.9739 83.9994 75.4278 82.886L72.188 78.6639C70.9078 79.6433 69.559 80.5449 68.1425 81.3628Z" fill="black"/>
<path d="M81.7502 67.7552C80.9395 69.1595 80.0464 70.4976 79.0768 71.7682L83.2989 75.0079C84.4026 73.5636 85.4269 72.0329 86.3601 70.4166C87.3003 68.7881 88.1187 67.1228 88.8212 65.4316L83.9046 63.3951C83.2855 64.8833 82.568 66.3386 81.7502 67.7552Z" fill="black"/>
<path d="M86.731 49.1666C86.731 50.7883 86.6267 52.3936 86.4223 53.9787L91.6988 54.6734C91.9325 52.8707 92.0542 51.033 92.0542 49.1666C92.0542 47.2861 91.9303 45.4348 91.693 43.6189L86.4168 44.3135C86.6247 45.9119 86.731 47.531 86.731 49.1666Z" fill="black"/>
<path d="M81.7502 30.5783C82.561 31.9826 83.2734 33.4251 83.8888 34.9L88.8057 32.8634C88.1067 31.1854 87.2933 29.533 86.3601 27.9168C85.4199 26.2882 84.3868 24.7469 83.2735 23.293L79.0514 26.5327C80.0307 27.813 80.9324 29.1617 81.7502 30.5783Z" fill="black"/>
<path d="M68.1424 16.9706C69.5467 17.7813 70.8848 18.6744 72.1554 19.644L75.3952 15.4219C73.9508 14.3181 72.4201 13.2939 70.8039 12.3607C69.1753 11.4204 67.5101 10.6021 65.8189 9.89953L63.7823 14.8162C65.2705 15.4353 66.7259 16.1527 68.1424 16.9706Z" fill="black"/>
<path d="M49.5541 11.9898C51.1757 11.9898 52.781 12.0941 54.3661 12.2984L55.0608 7.02202C53.2581 6.78832 51.4203 6.66669 49.5541 6.66669C47.6736 6.66669 45.8222 6.79058 44.0063 7.02787L44.7009 12.3041C46.2993 12.0962 47.9184 11.9898 49.5541 11.9898Z" fill="black"/>
</svg>
