<svg width="32" height="32" viewBox="0 0 32 32" fill="none" xmlns="http://www.w3.org/2000/svg">
<path d="M21.1133 20.3796C18.6923 17.958 18.6923 14.0343 21.1133 11.6127L31.849 0.874574C32.0618 0.661754 32.0494 0.310498 31.8139 0.112141C31.6032 -0.0634867 31.285 -0.0242287 31.0909 0.169995L20.3821 10.8812C17.961 13.3028 14.0382 13.3028 11.6171 10.8812L0.908325 0.169995C0.714145 -0.0242287 0.396021 -0.0634867 0.185316 0.112141C-0.0501785 0.310498 -0.0605037 0.661754 0.150202 0.874574L10.8859 11.6127C13.3069 14.0343 13.3069 17.958 10.8859 20.3796L0.177057 31.0909C-0.0191879 31.2872 -0.0563692 31.6136 0.127482 31.8223C0.230769 31.9401 0.373306 32 0.515842 32C0.648049 32 0.780248 31.9504 0.881469 31.8492L11.6171 21.1111C14.0382 18.6895 17.961 18.6895 20.3821 21.1111L31.1177 31.8492C31.2189 31.9504 31.3511 32 31.4834 32C31.6259 32 31.7684 31.9401 31.8717 31.8223C32.0556 31.6136 32.0184 31.2872 31.8221 31.0909L21.1133 20.3796V20.3796Z" fill="#111111"/>
</svg>
