<svg width="209" height="32" viewBox="0 0 209 32" fill="none" xmlns="http://www.w3.org/2000/svg">
<path d="M27.3632 30.752L16.8493 2.5299C16.3889 1.29782 15.1635 0.475098 13.7888 0.475098H13.7804C12.4057 0.475098 11.1803 1.29382 10.7158 2.52192L9.1309 6.70741L0.0315509 30.75C-0.0672409 31.0096 0.0756919 31.2952 0.348946 31.389C0.6222 31.4829 0.922779 31.3471 1.02157 31.0875L10.1272 7.02491C10.8062 5.2317 12.4541 4.5927 13.772 4.5927C13.7741 4.5927 13.7699 4.5927 13.772 4.5927C15.0899 4.59669 16.7442 5.24169 17.4147 7.04089L26.3732 31.0835C26.4699 31.3431 26.7705 31.4789 27.0437 31.387C27.317 31.2952 27.4599 31.0096 27.3632 30.75V30.752Z" fill="#111111"/>
<path d="M80.0717 1.14189L69.5578 29.364C69.0995 30.5961 67.872 31.4188 66.4973 31.4188H66.4889C65.1142 31.4188 63.8888 30.6001 63.4243 29.372L61.8394 25.1865L52.74 1.14189C52.6413 0.882297 52.7842 0.596741 53.0574 0.502887C53.3307 0.409032 53.6313 0.544821 53.7301 0.804418L62.8378 24.867C63.5168 26.6602 65.1647 27.2992 66.4826 27.2992C66.4847 27.2992 66.4805 27.2992 66.4826 27.2992C67.8005 27.2952 69.4548 26.6502 70.1253 24.851L79.0817 0.808412C79.1784 0.548815 79.479 0.413026 79.7522 0.504883C80.0255 0.596741 80.1684 0.882297 80.0717 1.14189V1.14189Z" fill="#111111"/>
<path d="M132.782 30.752L122.268 2.5299C121.81 1.29782 120.583 0.475098 119.208 0.475098H119.2C117.825 0.475098 116.6 1.29382 116.135 2.52192L114.55 6.70741L105.451 30.75C105.352 31.0096 105.495 31.2952 105.768 31.389C106.041 31.4829 106.342 31.3471 106.441 31.0875L115.549 7.02491C116.227 5.2317 117.875 4.5927 119.193 4.5927C119.195 4.5927 119.191 4.5927 119.193 4.5927C120.511 4.59669 122.165 5.24169 122.836 7.04089L131.795 31.0835C131.891 31.3431 132.192 31.4789 132.465 31.387C132.738 31.2952 132.881 31.0096 132.785 30.75L132.782 30.752Z" fill="#111111"/>
<path d="M172.236 17.9619C173.407 17.9619 174.357 17.0598 174.357 15.947C174.357 14.8342 173.407 13.9321 172.236 13.9321C171.065 13.9321 170.115 14.8342 170.115 15.947C170.115 17.0598 171.065 17.9619 172.236 17.9619Z" fill="#111111"/>
</svg>
