<svg width="242" height="33" viewBox="0 0 242 33" fill="none" xmlns="http://www.w3.org/2000/svg">
<g clip-path="url(#clip0_546_6375)">
<path d="M27.8299 31.252L17.316 3.0299C16.8556 1.79782 15.6302 0.975098 14.2555 0.975098H14.2471C12.8724 0.975098 11.647 1.79382 11.1825 3.02192L9.59758 7.20741L0.498226 31.25C0.399434 31.5096 0.542367 31.7952 0.815621 31.889C1.08887 31.9829 1.38945 31.8471 1.48825 31.5875L10.5939 7.52491C11.2728 5.7317 12.9208 5.0927 14.2387 5.0927C14.2408 5.0927 14.2366 5.0927 14.2387 5.0927C15.5566 5.09669 17.2109 5.74169 17.8814 7.54089L26.8399 31.5835C26.9366 31.8431 27.2372 31.9789 27.5104 31.887C27.7837 31.7952 27.9266 31.5096 27.8299 31.25V31.252Z" fill="#111111"/>
<path d="M80.5384 1.64189L70.0244 29.864C69.5662 31.0961 68.3387 31.9188 66.964 31.9188H66.9556C65.5809 31.9188 64.3555 31.1001 63.8909 29.872L62.3061 25.6865L53.2067 1.64189C53.1079 1.3823 53.2509 1.09674 53.5241 1.00289C53.7974 0.909032 54.0979 1.04482 54.1967 1.30442L63.3045 25.367C63.9834 27.1602 65.6314 27.7992 66.9493 27.7992C66.9514 27.7992 66.9472 27.7992 66.9493 27.7992C68.2672 27.7952 69.9215 27.1502 70.592 25.351L79.5484 1.30841C79.6451 1.04882 79.9457 0.913026 80.2189 1.00488C80.4922 1.09674 80.6351 1.3823 80.5384 1.64189V1.64189Z" fill="#111111"/>
<path d="M133.249 31.252L122.735 3.0299C122.277 1.79782 121.049 0.975098 119.675 0.975098H119.666C118.292 0.975098 117.066 1.79382 116.602 3.02192L115.017 7.20741L105.917 31.25C105.819 31.5096 105.962 31.7952 106.235 31.889C106.508 31.9829 106.809 31.8471 106.907 31.5875L116.015 7.52491C116.694 5.7317 118.342 5.0927 119.66 5.0927C119.662 5.0927 119.658 5.0927 119.66 5.0927C120.978 5.09669 122.632 5.74169 123.303 7.54089L132.261 31.5835C132.358 31.8431 132.658 31.9789 132.932 31.887C133.205 31.7952 133.348 31.5096 133.251 31.25L133.249 31.252Z" fill="#111111"/>
<path d="M172.703 18.4619C173.874 18.4619 174.824 17.5598 174.824 16.447C174.824 15.3342 173.874 14.4321 172.703 14.4321C171.531 14.4321 170.582 15.3342 170.582 16.447C170.582 17.5598 171.531 18.4619 172.703 18.4619Z" fill="#111111"/>
<path d="M230.456 20.6525C227.993 18.3121 227.993 14.52 230.456 12.1796L241.38 1.80178C241.596 1.5961 241.584 1.25662 241.344 1.06492C241.13 0.895186 240.806 0.933127 240.609 1.12084L229.712 11.4727C227.249 13.8131 223.257 13.8131 220.793 11.4727L209.897 1.12084C209.699 0.933127 209.376 0.895186 209.161 1.06492C208.922 1.25662 208.911 1.5961 209.125 1.80178L220.049 12.1796C222.513 14.52 222.513 18.3121 220.049 20.6525L209.153 31.0044C208.953 31.1941 208.915 31.5096 209.102 31.7113C209.207 31.8251 209.353 31.883 209.498 31.883C209.632 31.883 209.767 31.8351 209.87 31.7372L220.793 21.3594C223.257 19.019 227.249 19.019 229.712 21.3594L240.636 31.7372C240.739 31.8351 240.873 31.883 241.008 31.883C241.153 31.883 241.298 31.8251 241.403 31.7113C241.59 31.5096 241.552 31.1941 241.353 31.0044L230.456 20.6525V20.6525Z" fill="#111111"/>
</g>
<defs>
<clipPath id="clip0_546_6375">
<rect width="241.067" height="32" fill="white" transform="translate(0.466675 0.5)"/>
</clipPath>
</defs>
</svg>
