<svg width="278" height="52" viewBox="0 0 278 52" fill="none" xmlns="http://www.w3.org/2000/svg">
<path fill-rule="evenodd" clip-rule="evenodd" d="M101.23 0.224999C99.6702 0.104999 98.1552 0.0299997 96.6852 0C94.9452 0 93.4452 0.0900002 92.1852 0.27C90.9252 0.449999 89.8752 0.825 89.0352 1.395C88.2252 1.935 87.6102 2.76 87.1902 3.87C86.8002 4.95 86.6052 6.39 86.6052 8.19C86.6052 10.56 87.0552 12.45 87.9552 13.86C88.8852 15.27 90.4752 16.26 92.7252 16.83L99.1602 18.45C100.06 18.66 100.795 18.945 101.365 19.305C101.965 19.635 102.4 20.13 102.67 20.79C102.94 21.45 103.075 22.38 103.075 23.58C103.075 24.99 102.88 26.055 102.49 26.775C102.13 27.495 101.485 27.975 100.555 28.215C99.6552 28.455 98.4102 28.575 96.8202 28.575H94.3902C93.6102 28.575 92.6802 28.56 91.6002 28.53C90.5202 28.47 89.0952 28.41 87.3252 28.35L87.0552 31.275C89.1852 31.665 91.0602 31.905 92.6802 31.995C94.3302 32.085 95.6652 32.13 96.6852 32.13C98.4852 32.13 100.045 32.01 101.365 31.77C102.685 31.56 103.765 31.17 104.605 30.6C105.445 30 106.06 29.145 106.45 28.035C106.87 26.925 107.08 25.47 107.08 23.67C107.08 21.27 106.63 19.365 105.73 17.955C104.86 16.515 103.225 15.51 100.825 14.94L94.5252 13.365C93.1452 13.035 92.1402 12.54 91.5102 11.88C90.9102 11.19 90.6102 9.99 90.6102 8.28C90.6102 7.14 90.7152 6.255 90.9252 5.625C91.1652 4.965 91.5402 4.5 92.0502 4.23C92.5602 3.93 93.2052 3.75 93.9852 3.69C94.7952 3.6 95.7552 3.555 96.8652 3.555C98.3052 3.555 99.8052 3.585 101.365 3.645C102.925 3.675 104.35 3.72 105.64 3.78L105.91 0.9C104.35 0.57 102.79 0.345 101.23 0.224999ZM129.02 10.935C127.55 9.735 125.165 9.135 121.865 9.135C119.525 9.135 117.605 9.495 116.105 10.215C114.635 10.905 113.54 12.09 112.82 13.77C112.13 15.42 111.785 17.685 111.785 20.565C111.785 23.355 112.13 25.605 112.82 27.315C113.54 28.995 114.665 30.225 116.195 31.005C117.725 31.755 119.75 32.13 122.27 32.13C123.11 32.13 124.055 32.085 125.105 31.995C126.185 31.905 127.22 31.77 128.21 31.59C129.23 31.41 130.085 31.185 130.775 30.915L130.37 28.35C129.26 28.5 128 28.635 126.59 28.755C125.21 28.845 123.935 28.89 122.765 28.89C121.085 28.89 119.735 28.665 118.715 28.215C117.695 27.765 116.945 26.925 116.465 25.695C116.165 24.876 115.965 23.811 115.865 22.5H126.05C127.88 22.5 129.215 21.96 130.055 20.88C130.895 19.77 131.3 18.24 131.27 16.29C131.27 13.92 130.52 12.135 129.02 10.935ZM115.8 19.53H125.06C126.05 19.53 126.695 19.2 126.995 18.54C127.295 17.85 127.445 17.1 127.445 16.29C127.415 14.88 126.995 13.875 126.185 13.275C125.375 12.675 123.995 12.375 122.045 12.375C120.455 12.375 119.195 12.615 118.265 13.095C117.365 13.545 116.72 14.355 116.33 15.525C116.018 16.5117 115.842 17.8467 115.8 19.53ZM150.355 9.135C154.315 9.135 156.295 11.145 156.295 15.165V31.59H152.47V16.245C152.47 14.775 152.23 13.77 151.75 13.23C151.27 12.66 150.46 12.375 149.32 12.375C147.97 12.375 146.62 12.705 145.27 13.365C144.019 13.9766 142.549 14.7943 140.86 15.8181V31.59H137.035V9.675H140.275L140.534 13.1219C142.156 11.8976 143.765 10.9436 145.36 10.26C147.04 9.51 148.705 9.135 150.355 9.135ZM168.672 9.675V3.195H164.847V9.69375L160.887 9.9V12.69H164.847V26.055C164.847 27.975 165.327 29.445 166.287 30.465C167.247 31.485 168.642 31.995 170.472 31.995C170.832 31.995 171.312 31.965 171.912 31.905C172.512 31.875 173.127 31.815 173.757 31.725C174.387 31.635 174.942 31.53 175.422 31.41L174.972 28.485H171.642C170.562 28.485 169.797 28.26 169.347 27.81C168.897 27.36 168.672 26.61 168.672 25.56V12.69H175.647V9.675H168.672ZM184.281 9.675V31.59H180.501V9.675H184.281ZM183.291 0.360001C184.071 0.360001 184.461 0.75 184.461 1.53V4.095C184.461 4.875 184.071 5.265 183.291 5.265H181.491C180.711 5.265 180.321 4.875 180.321 4.095V1.53C180.321 0.75 180.711 0.360001 181.491 0.360001H183.291ZM210.743 15.165C210.743 11.145 208.763 9.135 204.803 9.135C203.153 9.135 201.488 9.51 199.808 10.26C198.213 10.9436 196.604 11.8975 194.982 13.1219L194.723 9.675H191.483V31.59H195.308V15.8181C196.997 14.7943 198.467 13.9766 199.718 13.365C201.068 12.705 202.418 12.375 203.768 12.375C204.908 12.375 205.718 12.66 206.198 13.23C206.678 13.77 206.918 14.775 206.918 16.245V31.59H210.743V15.165ZM226.63 9.135C229.93 9.135 232.315 9.735 233.785 10.935C235.285 12.135 236.035 13.92 236.035 16.29C236.065 18.24 235.66 19.77 234.82 20.88C233.98 21.96 232.645 22.5 230.815 22.5H220.631C220.731 23.811 220.931 24.876 221.23 25.695C221.71 26.925 222.46 27.765 223.48 28.215C224.5 28.665 225.85 28.89 227.53 28.89C228.7 28.89 229.975 28.845 231.355 28.755C232.765 28.635 234.025 28.5 235.135 28.35L235.54 30.915C234.85 31.185 233.995 31.41 232.975 31.59C231.985 31.77 230.95 31.905 229.87 31.995C228.82 32.085 227.875 32.13 227.035 32.13C224.515 32.13 222.49 31.755 220.96 31.005C219.43 30.225 218.305 28.995 217.585 27.315C216.895 25.605 216.55 23.355 216.55 20.565C216.55 17.685 216.895 15.42 217.585 13.77C218.305 12.09 219.4 10.905 220.87 10.215C222.37 9.495 224.29 9.135 226.63 9.135ZM229.825 19.53H220.565C220.607 17.8467 220.784 16.5117 221.095 15.525C221.485 14.355 222.13 13.545 223.03 13.095C223.96 12.615 225.22 12.375 226.81 12.375C228.76 12.375 230.14 12.675 230.95 13.275C231.76 13.875 232.18 14.88 232.21 16.29C232.21 17.1 232.06 17.85 231.76 18.54C231.46 19.2 230.815 19.53 229.825 19.53ZM245.625 25.56L245.67 0.0899992H241.845V26.415C241.845 28.215 242.325 29.595 243.285 30.555C244.275 31.515 245.58 31.995 247.2 31.995C247.56 31.995 247.995 31.965 248.505 31.905C249.045 31.875 249.555 31.815 250.035 31.725C250.545 31.635 250.935 31.53 251.205 31.41L250.755 28.485H248.64C247.68 28.485 246.93 28.245 246.39 27.765C245.88 27.255 245.625 26.52 245.625 25.56Z" fill="#111111"/>
<path fill-rule="evenodd" clip-rule="evenodd" d="M32.1629 14.1042L38.9455 10.1024V6.08504L28.5337 0L18.2737 5.9473L18.0759 6.11374V18.2525L28.3996 24.1998L28.6203 24.323L32.1629 22.2986V14.1042ZM28.5107 23.1L19.1194 17.7021V7.18696L28.5107 12.5823V23.1ZM19.5488 6.36104L28.661 1.09983L38.0111 6.49826L28.8989 11.7574L19.5488 6.36104ZM55.5144 0L45.3295 5.9473L45.2064 6.11374V10.1024L51.989 14.1042V22.3038L55.3062 24.1998L55.5644 24.323L66.0759 18.252V6.08504L55.5144 0ZM55.2545 11.7574L46.1424 6.49826L55.4924 1.09983L64.6046 6.36104L55.2545 11.7574ZM65.0324 17.7021L55.6411 23.1V12.5823L65.0324 7.18696V17.7021ZM42.076 31.5318L49.2154 27.4096L52.5107 29.3217V41.4897L42.0739 47.5596L41.8902 47.4365L31.6412 41.4897V29.3504L31.8013 29.185L34.8942 27.3856L42.076 31.5318ZM32.6847 40.9393L41.5542 46.1729V35.4073L32.6847 30.1628V40.9393ZM42.5977 46.1739L51.4673 40.9393V30.1633L42.5977 35.4073V46.1739ZM51.4672 14.9666V14.4026L51.0733 14.1308L42.0431 19.3633L33.0665 14.1271L32.6846 14.4026V14.9661L41.5542 20.1887V30.6334L42.0759 30.9344L42.5977 30.6334V20.1887L51.4672 14.9666Z" fill="#111111"/>
<path d="M116.996 40.5811C117.117 40.5811 117.222 40.6163 117.313 40.6868C117.404 40.7472 117.464 40.8327 117.494 40.9435L120.846 51.0001H119.472L116.769 42.4535C116.729 42.3125 116.684 42.1716 116.634 42.0307C116.593 41.8797 116.553 41.7387 116.513 41.6079H116.09C116.05 41.7387 116.009 41.8797 115.969 42.0307C115.929 42.1716 115.884 42.3125 115.833 42.4535L113.13 51.0001H111.756L115.108 40.9435C115.139 40.8327 115.199 40.7472 115.29 40.6868C115.38 40.6163 115.486 40.5811 115.607 40.5811H116.996ZM118.929 46.5909V47.7385H113.644V46.5909H118.929Z" fill="black"/>
<path d="M127.463 40.3999C127.906 40.3999 128.283 40.4099 128.595 40.4301C128.917 40.4502 129.209 40.4854 129.471 40.5358C129.743 40.576 130.02 40.6314 130.302 40.7019L130.166 41.7136C129.864 41.6834 129.582 41.6582 129.32 41.6381C129.068 41.6179 128.797 41.6028 128.505 41.5928C128.213 41.5827 127.865 41.5777 127.463 41.5777C126.788 41.5777 126.255 41.7085 125.862 41.9703C125.47 42.232 125.188 42.6699 125.017 43.284C124.855 43.898 124.775 44.7336 124.775 45.7906C124.775 46.8476 124.855 47.6831 125.017 48.2972C125.188 48.9112 125.47 49.3491 125.862 49.6109C126.255 49.8726 126.788 50.0035 127.463 50.0035C128.107 50.0035 128.646 49.9934 129.078 49.9733C129.521 49.9431 129.954 49.8978 130.377 49.8374L130.513 50.834C130.08 50.9548 129.632 51.0403 129.169 51.0907C128.716 51.1511 128.147 51.1813 127.463 51.1813C126.466 51.1813 125.666 51.0101 125.062 50.6679C124.468 50.3155 124.035 49.7468 123.763 48.9616C123.501 48.1764 123.371 47.1194 123.371 45.7906C123.371 44.4618 123.501 43.4048 123.763 42.6196C124.035 41.8344 124.468 41.2706 125.062 40.9284C125.666 40.576 126.466 40.3999 127.463 40.3999Z" fill="black"/>
<path d="M137.422 40.3999C137.865 40.3999 138.243 40.4099 138.555 40.4301C138.877 40.4502 139.169 40.4854 139.431 40.5358C139.702 40.576 139.979 40.6314 140.261 40.7019L140.125 41.7136C139.823 41.6834 139.541 41.6582 139.28 41.6381C139.028 41.6179 138.756 41.6028 138.464 41.5928C138.172 41.5827 137.825 41.5777 137.422 41.5777C136.748 41.5777 136.214 41.7085 135.822 41.9703C135.429 42.232 135.147 42.6699 134.976 43.284C134.815 43.898 134.734 44.7336 134.734 45.7906C134.734 46.8476 134.815 47.6831 134.976 48.2972C135.147 48.9112 135.429 49.3491 135.822 49.6109C136.214 49.8726 136.748 50.0035 137.422 50.0035C138.066 50.0035 138.605 49.9934 139.038 49.9733C139.481 49.9431 139.914 49.8978 140.337 49.8374L140.472 50.834C140.04 50.9548 139.592 51.0403 139.129 51.0907C138.676 51.1511 138.107 51.1813 137.422 51.1813C136.426 51.1813 135.625 51.0101 135.021 50.6679C134.427 50.3155 133.995 49.7468 133.723 48.9616C133.461 48.1764 133.33 47.1194 133.33 45.7906C133.33 44.4618 133.461 43.4048 133.723 42.6196C133.995 41.8344 134.427 41.2706 135.021 40.9284C135.625 40.576 136.426 40.3999 137.422 40.3999Z" fill="black"/>
<path d="M145.762 40.566C146.265 40.566 146.769 40.566 147.272 40.566C147.786 40.566 148.289 40.576 148.782 40.5962C149.285 40.6062 149.769 40.6264 150.232 40.6566L150.171 41.6985H145.989C145.677 41.6985 145.445 41.779 145.294 41.9401C145.153 42.0911 145.083 42.3427 145.083 42.6951V48.8861C145.083 49.2384 145.153 49.4951 145.294 49.6562C145.445 49.8172 145.677 49.8978 145.989 49.8978H150.171L150.232 50.9246C149.769 50.9548 149.285 50.9749 148.782 50.985C148.289 50.995 147.786 51.0001 147.272 51.0001C146.769 51.0101 146.265 51.0152 145.762 51.0152C145.148 51.0152 144.66 50.8541 144.297 50.532C143.945 50.1998 143.764 49.7568 143.754 49.2032V42.378C143.764 41.8142 143.945 41.3713 144.297 41.0492C144.66 40.727 145.148 40.566 145.762 40.566ZM144.026 44.9601H149.582V46.0322H144.026V44.9601Z" fill="black"/>
<path d="M156.703 40.3999C157.196 40.4099 157.705 40.4351 158.228 40.4754C158.752 40.5156 159.275 40.5911 159.799 40.7019L159.708 41.6683C159.275 41.6481 158.797 41.633 158.274 41.623C157.75 41.6028 157.247 41.5928 156.764 41.5928C156.391 41.5928 156.069 41.6079 155.797 41.6381C155.535 41.6582 155.319 41.7186 155.148 41.8193C154.977 41.9099 154.851 42.0659 154.77 42.2874C154.7 42.4988 154.665 42.7957 154.665 43.1783C154.665 43.7521 154.765 44.1547 154.967 44.3863C155.178 44.6077 155.515 44.7738 155.978 44.8846L158.092 45.4131C158.898 45.6043 159.446 45.9416 159.738 46.4248C160.04 46.8979 160.191 47.5371 160.191 48.3425C160.191 48.9465 160.121 49.4347 159.98 49.8072C159.849 50.1796 159.643 50.4665 159.361 50.6679C159.079 50.8591 158.716 50.99 158.274 51.0605C157.831 51.141 157.307 51.1813 156.703 51.1813C156.361 51.1813 155.913 51.1662 155.359 51.136C154.816 51.1058 154.186 51.0252 153.472 50.8944L153.562 49.9129C154.156 49.933 154.634 49.9531 154.997 49.9733C155.359 49.9833 155.671 49.9884 155.933 49.9884C156.195 49.9884 156.467 49.9884 156.748 49.9884C157.282 49.9884 157.7 49.9481 158.002 49.8676C158.314 49.787 158.53 49.626 158.651 49.3844C158.782 49.1428 158.847 48.7854 158.847 48.3123C158.847 47.9096 158.802 47.5975 158.711 47.3761C158.621 47.1546 158.475 46.9885 158.274 46.8778C158.082 46.757 157.836 46.6613 157.534 46.5909L155.374 46.0473C154.619 45.856 154.086 45.5238 153.774 45.0507C153.472 44.5775 153.321 43.9433 153.321 43.1481C153.321 42.5441 153.386 42.0609 153.517 41.6985C153.658 41.326 153.864 41.0492 154.136 40.868C154.418 40.6767 154.77 40.5509 155.193 40.4905C155.616 40.4301 156.119 40.3999 156.703 40.3999Z" fill="black"/>
<path d="M166.677 40.3999C167.171 40.4099 167.679 40.4351 168.202 40.4754C168.726 40.5156 169.249 40.5911 169.773 40.7019L169.682 41.6683C169.249 41.6481 168.771 41.633 168.248 41.623C167.724 41.6028 167.221 41.5928 166.738 41.5928C166.365 41.5928 166.043 41.6079 165.771 41.6381C165.51 41.6582 165.293 41.7186 165.122 41.8193C164.951 41.9099 164.825 42.0659 164.745 42.2874C164.674 42.4988 164.639 42.7957 164.639 43.1783C164.639 43.7521 164.74 44.1547 164.941 44.3863C165.152 44.6077 165.49 44.7738 165.953 44.8846L168.067 45.4131C168.872 45.6043 169.421 45.9416 169.713 46.4248C170.015 46.8979 170.166 47.5371 170.166 48.3425C170.166 48.9465 170.095 49.4347 169.954 49.8072C169.823 50.1796 169.617 50.4665 169.335 50.6679C169.053 50.8591 168.691 50.99 168.248 51.0605C167.805 51.141 167.281 51.1813 166.677 51.1813C166.335 51.1813 165.887 51.1662 165.333 51.136C164.79 51.1058 164.161 51.0252 163.446 50.8944L163.537 49.9129C164.131 49.933 164.609 49.9531 164.971 49.9733C165.333 49.9833 165.646 49.9884 165.907 49.9884C166.169 49.9884 166.441 49.9884 166.723 49.9884C167.256 49.9884 167.674 49.9481 167.976 49.8676C168.288 49.787 168.505 49.626 168.625 49.3844C168.756 49.1428 168.822 48.7854 168.822 48.3123C168.822 47.9096 168.776 47.5975 168.686 47.3761C168.595 47.1546 168.449 46.9885 168.248 46.8778C168.057 46.757 167.81 46.6613 167.508 46.5909L165.349 46.0473C164.594 45.856 164.06 45.5238 163.748 45.0507C163.446 44.5775 163.295 43.9433 163.295 43.1481C163.295 42.5441 163.36 42.0609 163.491 41.6985C163.632 41.326 163.839 41.0492 164.11 40.868C164.392 40.6767 164.745 40.5509 165.167 40.4905C165.59 40.4301 166.094 40.3999 166.677 40.3999Z" fill="black"/>
<path d="M182.324 40.3999C182.767 40.3999 183.145 40.4099 183.457 40.4301C183.779 40.4502 184.071 40.4854 184.332 40.5358C184.604 40.576 184.881 40.6314 185.163 40.7019L185.027 41.7136C184.725 41.6834 184.443 41.6582 184.181 41.6381C183.93 41.6179 183.658 41.6028 183.366 41.5928C183.074 41.5827 182.727 41.5777 182.324 41.5777C181.65 41.5777 181.116 41.7085 180.723 41.9703C180.331 42.232 180.049 42.6699 179.878 43.284C179.717 43.898 179.636 44.7336 179.636 45.7906C179.636 46.8476 179.717 47.6831 179.878 48.2972C180.049 48.9112 180.331 49.3491 180.723 49.6109C181.116 49.8726 181.65 50.0035 182.324 50.0035C182.968 50.0035 183.507 49.9934 183.94 49.9733C184.383 49.9431 184.816 49.8978 185.238 49.8374L185.374 50.834C184.941 50.9548 184.493 51.0403 184.03 51.0907C183.577 51.1511 183.009 51.1813 182.324 51.1813C181.327 51.1813 180.527 51.0101 179.923 50.6679C179.329 50.3155 178.896 49.7468 178.625 48.9616C178.363 48.1764 178.232 47.1194 178.232 45.7906C178.232 44.4618 178.363 43.4048 178.625 42.6196C178.896 41.8344 179.329 41.2706 179.923 40.9284C180.527 40.576 181.327 40.3999 182.324 40.3999Z" fill="black"/>
<path d="M192.314 40.3848C193.069 40.3848 193.708 40.4754 194.231 40.6566C194.765 40.8378 195.188 41.1398 195.5 41.5626C195.822 41.9753 196.054 42.529 196.194 43.2236C196.345 43.9182 196.421 44.7738 196.421 45.7906C196.421 46.8073 196.345 47.663 196.194 48.3576C196.054 49.0522 195.822 49.6109 195.5 50.0337C195.188 50.4464 194.765 50.7434 194.231 50.9246C193.708 51.1058 193.069 51.1964 192.314 51.1964C191.559 51.1964 190.915 51.1058 190.381 50.9246C189.858 50.7434 189.435 50.4464 189.113 50.0337C188.79 49.6109 188.554 49.0522 188.403 48.3576C188.262 47.663 188.191 46.8073 188.191 45.7906C188.191 44.7738 188.262 43.9182 188.403 43.2236C188.554 42.529 188.79 41.9753 189.113 41.5626C189.435 41.1398 189.858 40.8378 190.381 40.6566C190.915 40.4754 191.559 40.3848 192.314 40.3848ZM192.314 41.5777C191.629 41.5777 191.086 41.7085 190.683 41.9703C190.29 42.232 190.009 42.6699 189.837 43.284C189.676 43.888 189.596 44.7235 189.596 45.7906C189.596 46.8476 189.676 47.6831 189.837 48.2972C190.009 48.9112 190.29 49.3491 190.683 49.6109C191.086 49.8726 191.629 50.0035 192.314 50.0035C192.998 50.0035 193.537 49.8726 193.929 49.6109C194.332 49.3491 194.614 48.9112 194.775 48.2972C194.946 47.6831 195.032 46.8476 195.032 45.7906C195.032 44.7235 194.946 43.888 194.775 43.284C194.614 42.6699 194.332 42.232 193.929 41.9703C193.537 41.7085 192.998 41.5777 192.314 41.5777Z" fill="black"/>
<path d="M208.199 40.5811V50.4716C208.199 50.8239 208.027 51.0001 207.685 51.0001H206.387C206.236 51.0001 206.115 50.9648 206.024 50.8944C205.934 50.8239 205.858 50.7182 205.798 50.5773L202.279 43.1934C202.189 42.992 202.083 42.7655 201.962 42.5139C201.841 42.2622 201.751 42.0307 201.69 41.8193H201.449C201.469 42.0407 201.484 42.2672 201.494 42.4988C201.504 42.7303 201.509 42.9618 201.509 43.1934V51.0001H200.18V41.1096C200.18 40.7572 200.357 40.5811 200.709 40.5811H201.962C202.113 40.5811 202.234 40.6163 202.325 40.6868C202.415 40.7572 202.491 40.8629 202.551 41.0039L205.964 48.2066C206.074 48.418 206.19 48.6596 206.311 48.9314C206.442 49.1931 206.563 49.4548 206.673 49.7166H206.93C206.92 49.4448 206.91 49.178 206.9 48.9163C206.89 48.6545 206.885 48.3928 206.885 48.1311V40.5811H208.199Z" fill="black"/>
<path d="M216.067 40.5811V51.0001H214.738V40.5811H216.067ZM219.434 40.5811V41.7589H211.386V40.5811H219.434Z" fill="black"/>
<path d="M226.215 40.4452C227.02 40.4452 227.669 40.5358 228.163 40.717C228.656 40.8881 229.013 41.1901 229.235 41.623C229.466 42.0558 229.582 42.6649 229.582 43.4501C229.582 44.0138 229.517 44.4869 229.386 44.8695C229.255 45.2419 229.049 45.5339 228.767 45.7453C228.495 45.9466 228.127 46.0775 227.664 46.1379V46.2134C227.836 46.2536 228.002 46.3392 228.163 46.4701C228.334 46.5909 228.49 46.757 228.631 46.9684C228.772 47.1697 228.877 47.4163 228.948 47.7083L229.96 51.0001H228.54L227.619 47.7385C227.488 47.3459 227.312 47.069 227.091 46.908C226.869 46.7368 226.582 46.6513 226.23 46.6513C225.616 46.6513 225.082 46.6513 224.629 46.6513C224.176 46.6412 223.799 46.6311 223.497 46.6211C223.195 46.611 222.953 46.606 222.772 46.606L222.817 45.5037H226.185C226.698 45.4936 227.101 45.4332 227.393 45.3225C227.695 45.2117 227.911 45.0154 228.042 44.7336C228.173 44.4416 228.238 44.039 228.238 43.5256C228.238 43.0122 228.173 42.6196 228.042 42.3478C227.911 42.0659 227.695 41.8696 227.393 41.7589C227.101 41.6481 226.698 41.5928 226.185 41.5928C225.359 41.5928 224.644 41.5978 224.04 41.6079C223.446 41.6179 223.044 41.623 222.832 41.623L222.621 40.5811C223.004 40.5408 223.361 40.5106 223.693 40.4905C224.025 40.4703 224.388 40.4603 224.78 40.4603C225.183 40.4502 225.661 40.4452 226.215 40.4452ZM223.935 40.5811V51.0001H222.621V40.5811H223.935Z" fill="black"/>
<path d="M237.195 40.3848C237.95 40.3848 238.589 40.4754 239.113 40.6566C239.646 40.8378 240.069 41.1398 240.381 41.5626C240.703 41.9753 240.935 42.529 241.076 43.2236C241.227 43.9182 241.302 44.7738 241.302 45.7906C241.302 46.8073 241.227 47.663 241.076 48.3576C240.935 49.0522 240.703 49.6109 240.381 50.0337C240.069 50.4464 239.646 50.7434 239.113 50.9246C238.589 51.1058 237.95 51.1964 237.195 51.1964C236.44 51.1964 235.796 51.1058 235.262 50.9246C234.739 50.7434 234.316 50.4464 233.994 50.0337C233.672 49.6109 233.435 49.0522 233.284 48.3576C233.143 47.663 233.073 46.8073 233.073 45.7906C233.073 44.7738 233.143 43.9182 233.284 43.2236C233.435 42.529 233.672 41.9753 233.994 41.5626C234.316 41.1398 234.739 40.8378 235.262 40.6566C235.796 40.4754 236.44 40.3848 237.195 40.3848ZM237.195 41.5777C236.51 41.5777 235.967 41.7085 235.564 41.9703C235.172 42.232 234.89 42.6699 234.719 43.284C234.558 43.888 234.477 44.7235 234.477 45.7906C234.477 46.8476 234.558 47.6831 234.719 48.2972C234.89 48.9112 235.172 49.3491 235.564 49.6109C235.967 49.8726 236.51 50.0035 237.195 50.0035C237.88 50.0035 238.418 49.8726 238.811 49.6109C239.213 49.3491 239.495 48.9112 239.656 48.2972C239.827 47.6831 239.913 46.8476 239.913 45.7906C239.913 44.7235 239.827 43.888 239.656 43.284C239.495 42.6699 239.213 42.232 238.811 41.9703C238.418 41.7085 237.88 41.5777 237.195 41.5777Z" fill="black"/>
<path d="M246.345 40.5811V48.8861C246.345 49.2283 246.426 49.48 246.587 49.6411C246.758 49.8021 247.015 49.8827 247.357 49.8827H251.117L251.177 50.9095C250.523 50.9598 249.853 50.99 249.169 51.0001C248.494 51.0101 247.82 51.0152 247.145 51.0152C246.38 51.0152 245.837 50.8289 245.515 50.4565C245.192 50.084 245.031 49.6159 245.031 49.0522V40.5811H246.345Z" fill="black"/>
</svg>
