<svg width="145" height="143" viewBox="0 0 145 143" fill="none" xmlns="http://www.w3.org/2000/svg">
<path fill-rule="evenodd" clip-rule="evenodd" d="M62.6413 30.3231L42.2829 42.3346V66.9307L31.6495 73.0069L30.9871 72.6373L0 54.7861V18.3508L0.593527 17.8512L31.3896 0L62.6413 18.2646V30.3231ZM3.13207 53.1339L31.3207 69.3361V37.7665L3.13207 21.5721V53.1339ZM31.7717 3.3012L4.42091 19.0931L32.4858 35.2906L59.8366 19.5049L31.7717 3.3012ZM81.8033 17.8512L112.374 0L144.075 18.2646V54.7845L112.524 73.0069L111.749 72.6373L101.792 66.9464V42.3346L81.4337 30.3231V18.3508L81.8033 17.8512ZM84.2432 19.5049L111.594 35.2906L139.659 19.0931L112.308 3.3012L84.2432 19.5049ZM112.754 69.3361L140.943 53.1339V21.5721L112.754 37.7665V69.3361ZM93.4672 82.2715L72.0376 94.6448L50.4812 82.1995L41.1977 87.6007L40.7169 88.0972V124.534L71.4801 142.384L72.0313 142.753L103.358 124.534V88.011L93.4672 82.2715ZM70.4716 138.591L43.849 122.882V90.5355L70.4716 106.277V138.591ZM100.226 122.882L73.6036 138.594V106.277L100.226 90.5371V122.882ZM100.226 43.2304V44.9232L73.6036 60.5977V91.9481L72.0375 92.8517L70.4715 91.9481V60.5977L43.8489 44.9217V43.2304L44.9953 42.4035L71.9389 58.1202L99.0438 42.4145L100.226 43.2304Z" fill="#111111"/>
</svg>
