<svg width="100" height="100" viewBox="0 0 100 100" fill="none" xmlns="http://www.w3.org/2000/svg">
<g clip-path="url(#clip0_1846_24354)">
<g clip-path="url(#clip1_1846_24354)">
<path d="M65.9782 63.6896C58.4121 56.1215 58.4121 43.8588 65.9782 36.2907L99.5289 2.73132C100.194 2.0662 100.155 0.968432 99.4192 0.348517C98.7607 -0.200365 97.7665 -0.077674 97.1596 0.529326L63.6929 34.0047C56.1267 41.5729 43.8672 41.5729 36.301 34.0047L2.83427 0.529326C2.22742 -0.077674 1.23323 -0.200365 0.5812 0.354975C-0.154759 0.968432 -0.193493 2.0662 0.471452 2.73132L34.0221 36.2907C41.5883 43.8588 41.5883 56.1215 34.0221 63.6896L0.555377 97.165C-0.057922 97.7785 -0.174126 98.7987 0.400438 99.4509C0.723227 99.819 1.16868 100.006 1.61412 100.006C2.02729 100.006 2.44046 99.8513 2.7568 99.5349L36.3075 65.9755C43.8737 58.4074 56.1332 58.4074 63.6993 65.9755L97.25 99.5349C97.5664 99.8513 97.9795 100.006 98.3927 100.006C98.8382 100.006 99.2836 99.819 99.6064 99.4509C100.181 98.7987 100.065 97.7785 99.4515 97.165L65.9847 63.6896H65.9782Z" fill="white"/>
</g>
</g>
<defs>
<clipPath id="clip0_1846_24354">
<rect width="100" height="100" fill="white"/>
</clipPath>
<clipPath id="clip1_1846_24354">
<rect width="100" height="100" fill="white"/>
</clipPath>
</defs>
</svg>
